<?xml version="1.0" encoding="UTF-8"?>
<svg id="Layer_1" data-name="Layer 1" xmlns="http://www.w3.org/2000/svg" xmlns:xlink="http://www.w3.org/1999/xlink" viewBox="0 0 589.4 639.54">
  <defs>
    <style>
      .cls-1 {
        fill: url(#linear-gradient-8);
      }

      .cls-2 {
        fill: url(#linear-gradient-7);
      }

      .cls-3 {
        fill: url(#linear-gradient-5);
      }

      .cls-4 {
        fill: url(#linear-gradient-6);
      }

      .cls-5 {
        fill: url(#linear-gradient-9);
      }

      .cls-6 {
        fill: url(#linear-gradient-4);
      }

      .cls-7 {
        fill: url(#linear-gradient-3);
      }

      .cls-8 {
        fill: url(#linear-gradient-2);
      }

      .cls-9 {
        fill: url(#linear-gradient);
      }

      .cls-10 {
        fill: url(#linear-gradient-10);
      }

      .cls-11 {
        fill: url(#linear-gradient-11);
      }

      .cls-12 {
        fill: url(#linear-gradient-12);
      }

      .cls-13 {
        fill: url(#linear-gradient-13);
      }

      .cls-14 {
        fill: url(#linear-gradient-19);
      }

      .cls-15 {
        fill: url(#linear-gradient-14);
      }

      .cls-16 {
        fill: url(#linear-gradient-21);
      }

      .cls-17 {
        fill: url(#linear-gradient-20);
      }

      .cls-18 {
        fill: url(#linear-gradient-22);
      }

      .cls-19 {
        fill: url(#linear-gradient-23);
      }

      .cls-20 {
        fill: url(#linear-gradient-28);
      }

      .cls-21 {
        fill: url(#linear-gradient-25);
      }

      .cls-22 {
        fill: url(#linear-gradient-31);
      }

      .cls-23 {
        fill: url(#linear-gradient-30);
      }

      .cls-24 {
        fill: url(#linear-gradient-15);
      }

      .cls-25 {
        fill: url(#linear-gradient-16);
      }

      .cls-26 {
        fill: url(#linear-gradient-17);
      }

      .cls-27 {
        fill: url(#linear-gradient-18);
      }

      .cls-28 {
        fill: url(#linear-gradient-27);
      }

      .cls-29 {
        fill: url(#linear-gradient-24);
      }

      .cls-30 {
        fill: url(#linear-gradient-26);
      }

      .cls-31 {
        fill: url(#linear-gradient-29);
      }
    </style>
    <linearGradient id="linear-gradient" x1="84.19" y1="138.47" x2="274.74" y2="138.47" gradientUnits="userSpaceOnUse">
      <stop offset="1" stop-color="#fbc379"/>
      <stop offset="1" stop-color="#1e1e1c"/>
    </linearGradient>
    <linearGradient id="linear-gradient-2" x1="160.92" y1="120.15" x2="182.65" y2="120.15" xlink:href="#linear-gradient"/>
    <linearGradient id="linear-gradient-3" x1="182.25" y1="131.27" x2="206.59" y2="131.27" xlink:href="#linear-gradient"/>
    <linearGradient id="linear-gradient-4" x1="139.24" y1="169.55" x2="216.99" y2="169.55" xlink:href="#linear-gradient"/>
    <linearGradient id="linear-gradient-5" x1="278.9" y1="124.28" x2="509.6" y2="124.28" xlink:href="#linear-gradient"/>
    <linearGradient id="linear-gradient-6" x1="366.45" y1="93.88" x2="383.42" y2="93.88" xlink:href="#linear-gradient"/>
    <linearGradient id="linear-gradient-7" x1="393.15" y1="86.84" x2="409.49" y2="86.84" xlink:href="#linear-gradient"/>
    <linearGradient id="linear-gradient-8" x1="352.44" y1="141.14" x2="439.82" y2="141.14" xlink:href="#linear-gradient"/>
    <linearGradient id="linear-gradient-9" x1="0" y1="113.89" x2="95.34" y2="113.89" xlink:href="#linear-gradient"/>
    <linearGradient id="linear-gradient-10" x1="193.6" y1="261.85" x2="440.92" y2="261.85" xlink:href="#linear-gradient"/>
    <linearGradient id="linear-gradient-11" x1="163.27" y1="296.79" x2="206.1" y2="296.79" xlink:href="#linear-gradient"/>
    <linearGradient id="linear-gradient-12" x1="151.22" y1="315.83" x2="207.31" y2="315.83" xlink:href="#linear-gradient"/>
    <linearGradient id="linear-gradient-13" x1="161.02" y1="330.14" x2="208.87" y2="330.14" xlink:href="#linear-gradient"/>
    <linearGradient id="linear-gradient-14" x1="188.74" y1="340.45" x2="207" y2="340.45" xlink:href="#linear-gradient"/>
    <linearGradient id="linear-gradient-15" x1="192.61" y1="305.84" x2="208.98" y2="305.84" xlink:href="#linear-gradient"/>
    <linearGradient id="linear-gradient-16" x1="168.57" y1="246.87" x2="370.64" y2="246.87" xlink:href="#linear-gradient"/>
    <linearGradient id="linear-gradient-17" x1="357.69" y1="248" x2="384.71" y2="248" xlink:href="#linear-gradient"/>
    <linearGradient id="linear-gradient-18" x1="357.22" y1="265.89" x2="404" y2="265.89" xlink:href="#linear-gradient"/>
    <linearGradient id="linear-gradient-19" x1="358.29" y1="290.4" x2="387.63" y2="290.4" xlink:href="#linear-gradient"/>
    <linearGradient id="linear-gradient-20" x1="245.33" y1="78.39" x2="312.95" y2="78.39" xlink:href="#linear-gradient"/>
    <linearGradient id="linear-gradient-21" x1="475.16" y1="90.73" x2="589.4" y2="90.73" xlink:href="#linear-gradient"/>
    <linearGradient id="linear-gradient-22" x1="309.26" y1="54.51" x2="482.37" y2="54.51" xlink:href="#linear-gradient"/>
    <linearGradient id="linear-gradient-23" x1="249.37" y1="205.6" x2="301.63" y2="205.6" xlink:href="#linear-gradient"/>
    <linearGradient id="linear-gradient-24" x1="95.81" y1="321.62" x2="119.4" y2="321.62" xlink:href="#linear-gradient"/>
    <linearGradient id="linear-gradient-25" x1="102.31" y1="339.75" x2="262.27" y2="339.75" xlink:href="#linear-gradient"/>
    <linearGradient id="linear-gradient-26" x1="452.33" y1="282.08" x2="577.9" y2="282.08" xlink:href="#linear-gradient"/>
    <linearGradient id="linear-gradient-27" x1="310.16" y1="345.58" x2="583.93" y2="345.58" xlink:href="#linear-gradient"/>
    <linearGradient id="linear-gradient-28" x1="149.08" y1="508.9" x2="204.77" y2="508.9" xlink:href="#linear-gradient"/>
    <linearGradient id="linear-gradient-29" x1="191.92" y1="489.07" x2="246.9" y2="489.07" xlink:href="#linear-gradient"/>
    <linearGradient id="linear-gradient-30" x1="325.99" y1="539.37" x2="384.06" y2="539.37" xlink:href="#linear-gradient"/>
    <linearGradient id="linear-gradient-31" x1="442.48" y1="493.95" x2="544.15" y2="493.95" xlink:href="#linear-gradient"/>
  </defs>
  <path class="cls-9" d="M162.6,230.56c-4.62-1.01-9.18-2.45-13.56-4.23-4.79-1.95-9.23-4.66-13.37-7.74-3.89-2.9-7.83-5.77-11.55-8.89-3.99-3.34-7.74-6.99-11.18-10.89-3.17-3.59-6.14-7.4-9.03-11.21-3.16-4.16-5.96-8.6-8.5-13.17-4.91-8.84-8.5-18.57-10.2-28.55-1.71-10.01-1.17-20.17.81-30.1,1.62-8.12,4.15-16.06,7.62-23.58,3.7-8,8.76-15.5,14.58-22.1,5.71-6.47,12.51-11.93,19.87-16.43,3.66-2.24,7.49-4.17,11.5-5.71,3.83-1.47,7.91-2.3,11.95-2.89,2.08-.3,4.16-.44,6.25-.57,1.89-.12,3.79-.3,5.68-.34,4.75-.13,9.45.02,14.18.47,2.3.22,4.56.59,6.84.93,5.95.91,11.85,2.28,17.57,4.18,1.44.48,2.66,1.36,3.53,2.48,4.67,1.67,9.25,3.6,13.68,5.8,3.44,1.71,6.66,3.67,9.82,5.85,3.05,2.1,5.85,4.51,8.63,6.94,5.61,4.93,10.53,10.58,15.3,16.31,4.68,5.62,9.08,11.52,12.33,18.11,1.75,3.55,3.32,7.13,4.66,10.86,1.29,3.59,2.23,7.26,2.98,11,.75,3.75,1.2,7.54,1.48,11.35.26,3.62.38,7.26.18,10.88-.2,3.72-.44,7.47-1.15,11.13-.39,2.04-.69,4.14-1.2,6.16-.51,2.01-1.02,4.01-1.53,6.02-2.19,8.64-6.08,16.76-11.25,24-5.74,8.06-12.9,15.21-21.32,20.45-3.73,2.32-7.62,4.48-11.67,6.18-2.11.89-4.22,1.77-6.32,2.65-3.62,1.52-7.42,2.65-11.21,3.67-5.33,1.45-10.82,2.3-16.31,2.82-3.06.29-6.13.44-9.2.44-7.02,0-14.01-.76-20.89-2.27ZM187.45,219c3.77-.21,7.51-.61,11.23-1.21,3.53-.65,6.99-1.49,10.43-2.51,4.23-1.37,8.27-3.08,12.37-4.79,3.34-1.57,6.58-3.29,9.72-5.22,2.1-1.38,4.11-2.86,6.06-4.45,2.05-1.78,3.98-3.67,5.83-5.66,2.21-2.5,4.26-5.13,6.21-7.84,1.25-1.85,2.4-3.76,3.46-5.72,1.17-2.36,2.17-4.78,3.08-7.25,1.26-3.67,2.2-7.4,3.16-11.16.35-1.81.7-3.62,1.05-5.44.34-1.78.48-3.62.69-5.43.09-1.74.19-3.48.28-5.21.09-1.68-.02-3.41-.06-5.1-.12-1.72-.24-3.44-.37-5.15-.12-1.71-.43-3.42-.67-5.11-.32-1.59-.64-3.18-.96-4.78-.31-1.51-.82-3.01-1.25-4.5-.53-1.47-1.06-2.94-1.58-4.42-.49-1.37-1.14-2.7-1.74-4.03-.61-1.24-1.22-2.48-1.83-3.71-.58-1.19-1.31-2.33-1.98-3.48-1.52-2.3-3.09-4.54-4.72-6.76-1.65-2.24-3.5-4.36-5.28-6.5.2.24.4.48.6.72-1.92-2.23-3.83-4.47-5.85-6.61-2.03-2.16-4.13-4.21-6.28-6.24-2.45-2.15-4.96-4.2-7.55-6.17-2.33-1.58-4.7-3.04-7.17-4.4-4.61-2.27-9.33-4.26-14.16-6.02-1.48-.51-2.95-.99-4.44-1.45-1.34-.41-2.48-1.19-3.33-2.2-.82-.22-1.64-.44-2.47-.65-1.74-.38-3.48-.8-5.23-1.07-3.36-.51-6.7-1.03-10.08-1.37-3.65-.28-7.29-.33-10.95-.24-4.11.26-8.19.48-12.26,1.1-1.72.33-3.41.74-5.1,1.21-1.63.53-3.22,1.15-4.79,1.83-2.26,1.08-4.45,2.26-6.6,3.56-3.31,2.12-6.5,4.41-9.55,6.89-2.07,1.78-4.02,3.67-5.9,5.65-2.27,2.53-4.38,5.16-6.36,7.92-2.17,3.17-4.18,6.43-5.98,9.83-1.51,3.05-2.82,6.17-4,9.37-1.37,3.96-2.48,7.97-3.4,12.06-.71,3.46-1.25,6.92-1.59,10.43-.2,2.7-.28,5.38-.21,8.08.14,2.52.39,5.02.76,7.52.53,2.98,1.24,5.9,2.09,8.8,1.06,3.31,2.28,6.53,3.68,9.71,1.79,3.84,3.79,7.54,6.02,11.15,3.39,5.26,7.25,10.17,11.23,14.98,2.64,3.09,5.43,5.99,8.4,8.75,2.36,2.11,4.8,4.11,7.31,6.02,2.81,2.14,5.63,4.29,8.49,6.36,1.71,1.14,3.48,2.17,5.3,3.13,1.79.87,3.59,1.65,5.44,2.36,3.38,1.17,6.82,2.12,10.31,2.91,3.02.6,6.03,1.05,9.09,1.34,3.8.27,7.59.31,11.39.17Z"/>
  <path class="cls-8" d="M165.86,142.63c-1.76-.5-3.28-1.73-4.16-3.35-.87-1.63-.95-3.38-.55-5.15,1.24-5.41,2.56-10.79,3.91-16.18.74-2.97,1.5-5.94,2.26-8.91.32-1.27.65-2.54.98-3.81.46-1.76.84-3.83,2.11-5.23,1.26-1.38,2.75-2.35,4.65-2.55,1.78-.19,3.6.34,5,1.45,2.45,1.95,3.38,5.79,1.86,8.58-1.43,4.89-2.57,9.89-3.8,14.84-1.29,5.19-2.56,10.38-3.75,15.59-.7,3.03-3.72,4.95-6.7,4.95-.61,0-1.21-.08-1.8-.25Z"/>
  <path class="cls-7" d="M187.19,158.36c-1.76-.5-3.28-1.73-4.16-3.35-.87-1.62-.97-3.38-.55-5.14,1.64-6.94,3.38-13.85,5.13-20.76,1.71-6.76,3.29-13.6,5.48-20.22,1.17-3.55,4.79-5.76,8.49-4.7,3.49,1,5.88,4.95,4.71,8.5-2.19,6.62-3.77,13.46-5.48,20.22-1.75,6.91-3.49,13.82-5.12,20.76-.72,3.03-3.71,4.95-6.69,4.95-.61,0-1.22-.08-1.81-.25Z"/>
  <path class="cls-6" d="M156.2,189.67c-5.89-3.65-10.53-9.47-13.27-15.79-2.61-6.01-3.83-12.57-3.67-19.12.06-2.53.37-5.19,1.91-7.28,1.31-1.79,3.45-2.7,5.64-2.7,3.74,0,6.79,3.35,6.7,7.02-.02.81-.18,1.59-.46,2.3,0,.05-.01.09-.02.14-.06,1.07-.06,2.13-.03,3.19.1,1.41.26,2.8.47,4.19.25,1.27.56,2.51.91,3.75.37,1.12.79,2.22,1.25,3.31.5,1.02,1.03,2.01,1.61,2.98.56.8,1.14,1.58,1.74,2.34.64.7,1.29,1.38,1.97,2.04.65.56,1.31,1.09,2,1.61.66.43,1.32.84,2.01,1.23.73.35,1.46.68,2.22.98.35.11.7.22,1.06.31.69.13,1.37.23,2.06.31.75.03,1.49.04,2.24.03.35-.04.69-.07,1.03-.11,1.7-.33,3.36-.75,5.02-1.23,8.53-2.8,17.04-5.86,25.27-9.47,1.02-.48,2.04-.97,3.05-1.48,3.34-1.68,7.49-.56,9.3,2.8,1.74,3.23.54,7.62-2.8,9.3-5.16,2.6-10.52,4.72-15.93,6.75-2.2.83-4.44,1.61-6.66,2.39-5.57,1.93-11.1,4.12-17.01,4.72-.8.08-1.6.12-2.4.12-5.39,0-10.63-1.81-15.21-4.65Z"/>
  <path class="cls-3" d="M351,228.67c-10.21-.91-20.4-3.76-29.64-8.18-8.95-4.28-17.09-10.46-23.32-18.21-6.3-7.82-10.39-17.09-13.73-26.49-1.65-4.64-2.92-9.41-3.89-14.24-1.07-5.29-1.52-10.64-1.52-16.04,0-4.9.59-9.78,1.38-14.61.9-5.48,2.31-10.86,4.07-16.12,2.74-8.2,6.48-16.22,11.2-23.47,2.13-3.27,4.2-6.57,6.53-9.71,1.32-1.79,2.64-3.58,3.97-5.37,1.01-1.37,2.16-2.64,3.24-3.95,1.23-1.49,2.4-3.05,3.73-4.45,1.43-1.52,2.86-3.05,4.3-4.57,2.6-2.76,5.38-5.32,8.14-7.91,1.04-.98,2.17-1.87,3.26-2.79,1.53-1.29,3.03-2.69,4.64-3.9,2.87-2.15,5.69-4.41,8.71-6.36,1.39-.9,2.79-1.8,4.18-2.7.79-.51,1.59-1.09,2.42-1.54,2.42-1.33,4.85-2.66,7.27-4,2.28-1.26,4.73-2.26,7.08-3.38,2.34-1.11,4.77-2.03,7.16-3.01,2.28-.94,4.61-1.71,6.94-2.52,4.55-1.57,9.17-2.86,13.88-3.87,6.67-1.42,13.55-2.15,20.36-1.59,3.16.26,6.23.9,9.27,1.76.03,0,.07.02.1.03.57,0,1.15-.01,1.72-.02,5.45-.04,10.94.31,16.27,1.47,6.9,1.53,13.76,3.45,20.06,6.74,6.36,3.32,12.55,7.04,18.14,11.55,5.44,4.4,10.82,9.09,15.33,14.47,4.87,5.81,9.16,12.21,12.06,19.26,1.39,3.39,2.67,6.85,3.46,10.44.88,3.96,1.48,7.91,1.71,11.97.41,7.16-.12,14.41-1.58,21.44-.79,3.83-1.67,7.62-2.76,11.38-1.07,3.65-2.4,7.21-3.89,10.71-3.02,7.05-7.21,13.51-11.86,19.58-4.61,6.02-9.73,11.59-15.12,16.91-5.12,5.05-10.68,9.69-16.31,14.16-3.16,2.52-6.38,4.93-9.64,7.32-2.93,2.16-6.05,4.07-9.11,6.05-3,1.95-6.24,3.56-9.36,5.3-1.63.91-3.42,1.62-5.11,2.42-1.63.77-3.23,1.62-4.9,2.3-3.31,1.34-6.59,2.82-9.97,3.99-3.64,1.27-7.25,2.65-10.96,3.71-2.38.68-4.75,1.36-7.12,2.04-3.59,1.02-7.24,1.8-10.91,2.48-6.85,1.27-13.75,1.95-20.67,1.95-3.06,0-6.13-.13-9.2-.41ZM364.09,215.32c4.35-.24,8.66-.75,12.96-1.45,4.07-.72,8.11-1.61,12.08-2.75,2.43-.69,4.85-1.39,7.28-2.08,3.12-1.09,6.24-2.17,9.35-3.26,1.48-.52,2.93-1.19,4.39-1.78,1.59-.64,3.18-1.29,4.77-1.93,2.8-1.33,5.6-2.65,8.4-3.98,1.44-.68,2.81-1.57,4.2-2.34,1.33-.75,2.66-1.49,4-2.23,3.46-2.24,6.91-4.46,10.23-6.9,3.59-2.64,7.07-5.37,10.55-8.14,1.77-1.49,3.54-2.98,5.31-4.47,1.92-1.61,3.74-3.36,5.6-5.04,1.82-1.64,3.5-3.45,5.24-5.17,1.68-1.66,3.21-3.49,4.81-5.22-.21.23-.42.46-.63.69,1.38-1.64,2.76-3.29,4.13-4.93,1.28-1.52,2.43-3.16,3.64-4.74,1.27-1.83,2.54-3.66,3.7-5.57.72-1.19,1.47-2.36,2.11-3.59.55-1.08,1.11-2.16,1.66-3.24.67-1.57,1.34-3.13,2.01-4.7.72-2.03,1.44-4.04,2.04-6.11.68-2.33,1.27-4.67,1.85-7.03.74-3.64,1.36-7.27,1.82-10.96.2-3.18.27-6.33.22-9.52-.17-2.67-.47-5.28-.89-7.92-.42-1.89-.89-3.75-1.4-5.62-.68-1.95-1.4-3.85-2.18-5.76-1.35-2.78-2.81-5.46-4.4-8.11-1.22-1.77-2.46-3.5-3.76-5.22-1.23-1.45-2.47-2.86-3.76-4.26-1.4-1.53-2.94-2.94-4.45-4.35-3.69-3.3-7.49-6.4-11.53-9.27-3.67-2.42-7.42-4.62-11.3-6.67-2.14-1-4.29-1.88-6.5-2.69-2.61-.83-5.24-1.65-7.92-2.25-.69-.15-1.38-.3-2.07-.45-2.05-.35-4.08-.63-6.15-.87-5.17-.26-10.32-.24-15.5-.06-2.35.11-4.69.23-7.03.38-2.22.14-4.33-.69-5.76-2.2-1.58.17-3.16.39-4.73.65-4.08.77-8.09,1.77-12.07,2.96-2.52.87-5.04,1.74-7.57,2.61-1.19.41-2.35.97-3.52,1.45-1.28.53-2.57,1.06-3.85,1.58-2.33,1.11-4.66,2.22-6.98,3.32-1.16.55-2.28,1.25-3.41,1.87-1.27.7-2.54,1.4-3.81,2.1-2.26,1.46-4.51,2.91-6.76,4.37-1.24.8-2.4,1.8-3.58,2.69-1.18.88-2.35,1.76-3.53,2.64-1.67,1.41-3.35,2.83-5.03,4.24-1.49,1.25-2.87,2.6-4.29,3.93-1.4,1.32-2.82,2.61-4.14,4.01-1.64,1.74-3.28,3.48-4.91,5.22-2.02,2.46-4.05,4.91-6.07,7.37-.93,1.13-1.75,2.36-2.61,3.53-.89,1.21-1.79,2.42-2.68,3.63-3.08,4.71-6.14,9.37-8.78,14.35-1.92,3.82-3.61,7.73-5.08,11.75-1.22,3.54-2.25,7.12-3.1,10.76-.81,3.84-1.43,7.71-1.84,11.61-.23,3.04-.29,6.07-.2,9.11.15,2.49.42,4.94.79,7.4.65,3.65,1.5,7.25,2.55,10.8,1.44,4.51,3.11,8.94,5.01,13.27,1.39,3,2.94,5.91,4.67,8.73,1.01,1.53,2.08,3,3.23,4.44,1.59,1.85,3.26,3.6,5.04,5.28,1.71,1.5,3.47,2.9,5.31,4.23,2.14,1.44,4.34,2.76,6.61,3.97,2.62,1.3,5.29,2.45,8.04,3.47,3.05,1.05,6.13,1.93,9.27,2.67,3.5.73,7.02,1.27,10.58,1.6,3.44.24,6.87.28,10.31.16Z"/>
  <path class="cls-4" d="M369.91,114.63c-1.22-6.76-2.01-13.64-2.54-20.49-.28-3.58-.51-7.15-.69-10.73-.09-1.77-.14-3.55-.2-5.32-.11-3.27.02-6.87,2.97-8.95,3.06-2.16,7.37-1.52,9.59,1.54,1.09,1.51,1.47,3.38,1.19,5.14-.09,1.89.02,3.78.09,5.66.5,9.81,1.26,19.65,2.85,29.35.04.21.08.42.11.63.32,1.79.16,3.53-.79,5.12-.94,1.58-2.52,2.73-4.31,3.15-.49.12-.99.17-1.49.17-3.08,0-6.21-2.09-6.77-5.27Z"/>
  <path class="cls-2" d="M395.8,108.23c-1.52-14.01-2.64-28.13-2.64-42.22,0-3.74,3.35-6.79,7.02-6.7,3.8.09,6.7,3.28,6.7,7.02s.1,7.29.21,10.94c.5,9.85,1.3,19.72,2.36,29.53.4,3.72-2.4,7.16-6.11,7.55-.23.02-.47.04-.7.04-3.45,0-6.47-2.66-6.84-6.15Z"/>
  <path class="cls-1" d="M380.84,168.67c-6.7-1.84-13.06-5.48-18.14-10.2-2.44-2.27-4.58-4.77-6.45-7.53-1.39-2.07-2.62-4.34-3.4-6.73-.53-1.71-.6-3.44.14-5.12.73-1.68,2.15-3.04,3.86-3.69,3.34-1.27,7.74.41,8.86,3.99.03.1.07.2.1.3.11.32.23.63.36.93.41.82.85,1.62,1.32,2.41.58.86,1.19,1.69,1.82,2.51.94,1.08,1.92,2.1,2.96,3.09.99.86,2.01,1.66,3.07,2.43,1.15.76,2.32,1.46,3.53,2.12,1.34.65,2.7,1.23,4.09,1.76,1.16.38,2.33.72,3.53,1.01,1.03.2,2.06.38,3.11.52.99.07,1.97.1,2.97.1.89-.06,1.78-.14,2.67-.26.89-.18,1.77-.39,2.65-.62,1.01-.34,2-.71,2.98-1.13,1.24-.6,2.45-1.25,3.64-1.95,1.46-.95,2.88-1.96,4.26-3.04,1.12-.96,2.18-1.95,3.21-3,.91-1.03,1.77-2.08,2.59-3.19,1.03-1.55,1.96-3.14,2.82-4.79,2.88-6.08,5.56-12.26,7.91-18.56.36-1.01.7-2.02,1.03-3.04,1.15-3.56,4.81-5.76,8.49-4.7,3.51,1,5.86,4.94,4.71,8.5-1.63,5.03-3.6,9.96-5.71,14.8-1.12,2.57-2.25,5.12-3.45,7.65-1.12,2.38-2.37,4.67-3.8,6.88-1.83,2.83-4.04,5.36-6.45,7.72-2.46,2.41-5.28,4.45-8.17,6.29-3.08,1.96-6.39,3.55-9.88,4.63-3.07.95-6.29,1.54-9.51,1.56-.09,0-.17,0-.26,0-3.9,0-7.69-.59-11.46-1.62Z"/>
  <path class="cls-5" d="M16.99,143.96c-4.04-.62-8.01-2.16-11.06-4.91-3.16-2.85-4.75-6.81-5.38-10.95C-.1,123.79-.02,119.34.03,115c.04-3.76.11-7.51.34-11.26.19-2.96.39-5.89.93-8.81.69-3.77,1.97-7.68,5.22-10.02,1.49-1.08,3.21-1.49,4.99-1.74,1.81-.26,3.73.36,5.41.96,2.27.82,4.5,1.74,6.75,2.62,3.26,1.28,6.53,2.56,9.8,3.83,7.15,2.78,14.3,5.55,21.48,8.26,6.68,2.53,13.41,4.95,20,7.7,3.21,1.35,6.39,2.72,9.56,4.17,2.53,1.16,5.17,2.34,7.52,3.85,3.15,2.01,4.33,6.14,2.36,9.42-.99,1.66-2.68,2.78-4.52,3.18-.36,2.75-2.42,5.05-5.22,5.84-6.44,1.81-12.89,3.53-19.36,5.21-6.78,1.76-13.57,3.45-20.45,4.83-3.64.73-7.4,1.2-11.1,1.42-2.21.13-4.42.21-6.62.21-3.38,0-6.75-.19-10.12-.71ZM29.97,130.93c2.04-.12,4.07-.25,6.1-.47,1.96-.22,3.89-.52,5.84-.83,6.79-1.36,13.49-3.03,20.2-4.78,4.27-1.11,8.54-2.24,12.8-3.4-2.92-1.29-5.86-2.53-8.84-3.68-6.14-2.38-12.29-4.7-18.44-7.03-5.68-2.15-11.35-4.33-17.01-6.54-2.9-1.13-5.79-2.25-8.68-3.38-2.41-.94-4.81-1.93-7.22-2.86-.18,1.1-.32,2.2-.44,3.3-.46,7.42-.67,14.85-.43,22.27.08.95.17,1.89.31,2.83.08.41.18.82.28,1.23.06.18.13.35.2.52l.23.44s.05.07.07.11c.08.09.16.17.23.26-.05-.04-.1-.09-.14-.13,0,0,.01.02.02.02-.01-.01-.02-.03-.03-.04-.02-.02-.04-.03-.05-.05,0,0,0,.02.01.02.17.15.34.29.52.43.15.09.3.17.46.26.24.11.48.21.72.3.53.18,1.07.34,1.61.48,1.32.25,2.64.43,3.97.57,2.58.16,5.14.15,7.72.13Z"/>
  <path class="cls-10" d="M234.1,323.88c-3.81-.05-7.61-.21-11.42-.42-7.02-.4-14.04-.94-21.03-1.66-.75-.08-1.49-.17-2.23-.25-3.72-.43-6.3-4.22-5.76-7.82.58-3.79,4.11-6.19,7.83-5.76,2.21.26,4.42.48,6.63.68,6.01.51,12.03.92,18.05,1.26,6.21.35,12.42.24,18.63.04,6.24-.38,12.43-.92,18.64-1.58,5.94-.64,11.84-1.59,17.74-2.53,2.77-.53,5.54-1.07,8.31-1.6,2.4-.47,4.78-1.08,7.17-1.64,2.23-.53,4.45-1.03,6.65-1.67,2.85-.83,5.7-1.65,8.55-2.48,3.8-1.33,7.6-2.69,11.4-4.02,2.01-.7,3.96-1.63,5.92-2.43,1.94-.8,3.88-1.6,5.82-2.39,3.02-1.39,6.04-2.78,9.06-4.17,2.63-1.21,5.17-2.56,7.73-3.91,2.47-1.29,4.98-2.5,7.36-3.95,2.95-1.79,5.9-3.59,8.86-5.38,3.32-2.34,6.64-4.68,9.97-7.02,1.72-1.21,3.3-2.68,4.93-4.01,1.45-1.18,2.91-2.35,4.36-3.54,2.99-2.78,5.99-5.55,8.98-8.33,1.29-1.2,2.46-2.56,3.68-3.82,1.4-1.45,2.79-2.9,4.19-4.35,1.5-1.76,2.99-3.51,4.49-5.26,2.42-2.84,4.7-5.73,6.85-8.78,3.17-4.66,5.89-9.52,8.56-14.47.99-2.06,1.96-4.11,2.85-6.21.55-1.7,1.05-3.4,2.4-4.69,1.34-1.28,3.09-1.9,4.92-1.9,3.74,0,6.79,3.35,6.71,7.02-.02.98-.25,1.89-.64,2.72-.48,1.36-.95,2.71-1.51,4.05-.69,1.67-1.55,3.28-2.33,4.91-.91,1.87-1.96,3.67-2.94,5.49-1.79,3.32-3.78,6.53-5.89,9.66-1.94,2.86-3.94,5.72-6.18,8.35-1.67,1.96-3.34,3.92-5.02,5.88-2.51,2.95-5.22,5.7-7.91,8.5-.95.98-1.86,2.03-2.86,2.96-1.64,1.52-3.29,3.05-4.93,4.57-1.35,1.25-2.7,2.5-4.05,3.75-1.3,1.2-2.76,2.26-4.13,3.37-2.81,2.27-5.56,4.61-8.51,6.69-3.15,2.22-6.23,4.59-9.52,6.59-1.96,1.19-3.93,2.38-5.89,3.58-1.41.85-2.79,1.81-4.25,2.57-3.73,1.95-7.47,3.91-11.2,5.86-1.01.53-2.06.98-3.1,1.45-2.49,1.15-4.99,2.3-7.49,3.45-3.42,1.57-6.9,2.96-10.38,4.39-13.83,5.67-28.26,9.83-42.94,12.65-7.69,1.48-15.41,2.62-23.18,3.63-6.98.9-14.06,1.53-21.09,1.77-3.12.11-6.24.23-9.37.23-.5,0-1.01,0-1.51,0Z"/>
  <path class="cls-11" d="M194.96,319.29c-2.79-2.43-5.41-5.04-7.99-7.7-2.76-2.84-5.2-6.01-7.69-9.09-5.02-6.2-10.04-12.4-14.73-18.85-2.2-3.03-1.48-7.4,1.54-9.58,3.04-2.2,7.39-1.49,9.59,1.54,5.77,7.93,11.98,15.54,18.21,23.11,2.74,3.09,5.53,6.06,8.54,8.87.36.32.71.64,1.07.96,1.4,1.22,2.35,2.77,2.55,4.65.19,1.78-.34,3.6-1.45,5-1.32,1.65-3.43,2.59-5.52,2.59-1.48,0-2.96-.47-4.13-1.49Z"/>
  <path class="cls-12" d="M157.93,323.48c-3.74-.04-6.79-3.32-6.7-7.02.09-3.78,3.28-6.74,7.02-6.7,8.99.09,17.99-.22,26.97-.52,2.51-.13,5.02-.26,7.53-.44,2.33-.17,4.65-.45,6.98-.62,3.72-.27,7.14,2.31,7.55,6.11.38,3.64-2.38,7.27-6.11,7.55-3.4.25-6.78.61-10.17.85-3.5.25-7.02.33-10.53.43-6.48.2-12.97.39-19.46.39-1.03,0-2.05,0-3.08-.02Z"/>
  <path class="cls-13" d="M162.29,345.04c-2.12-2.92-1.59-7.54,1.54-9.58,6.01-3.95,11.98-7.94,17.96-11.93,2.71-1.81,5.4-3.67,8.11-5.47,1.5-.99,2.99-2.01,4.58-2.85,2.15-1.15,4.36-2.36,6.8-2.7,3.71-.51,7.17,2.48,7.55,6.11.36,3.45-1.9,6.42-5.08,7.33-.21.09-.42.18-.63.27-1.14.57-2.27,1.17-3.38,1.81-9.31,6.15-18.53,12.44-27.86,18.57-1.26.83-2.69,1.25-4.11,1.25-2.09,0-4.13-.92-5.48-2.79Z"/>
  <path class="cls-15" d="M194.57,365.48c-3.7-.56-6.32-4.12-5.76-7.82,1.6-10.35,2.96-20.77,3.99-31.19.08-1.05.15-2.1.24-3.15.16-1.91.34-3.87,1.66-5.39,1.22-1.4,2.78-2.35,4.66-2.55,1.73-.18,3.66.3,4.99,1.45,1.23,1.07,1.95,2.24,2.41,3.8.34,1.14.3,2.31-.02,3.4-1,11.94-2.52,23.85-4.35,35.7-.52,3.36-3.5,5.83-6.81,5.83-.33,0-.67-.02-1.01-.08Z"/>
  <path class="cls-24" d="M199.39,323.7c-1.48-.74-2.59-1.71-3.4-3.17-.88-1.59-1.04-3.5-1.26-5.27-.27-2.1-.46-4.22-.67-6.32-.48-4.66-.95-9.32-1.42-13.98-.38-3.72,2.38-7.15,6.11-7.55,3.71-.39,7.17,2.39,7.55,6.11.73,7.15,1.34,14.32,2.24,21.44,0,0,0,0,0,.01.63,1.66.59,3.54-.12,5.17-1.07,2.47-3.73,4.18-6.4,4.18-.89,0-1.79-.19-2.63-.61Z"/>
  <path class="cls-25" d="M277.66,273.16c-7.12-.76-14.2-1.86-21.21-3.3-4.11-.85-8.19-1.79-12.27-2.79-3.69-.91-7.33-2.01-10.98-3.06-3.42-.99-6.78-2.2-10.16-3.31-1.63-.54-3.23-1.19-4.84-1.78-1.74-.65-3.54-1.22-5.25-1.95-3.32-1.42-6.72-2.72-9.94-4.34-2.1-1.06-4.2-2.11-6.3-3.17-1.61-.81-3.13-1.75-4.67-2.68-3.5-2.09-6.94-4.29-10.22-6.71-1.67-1.23-3.35-2.45-4.97-3.74-2.51-2.01-5.06-4.02-6.98-6.63-2.23-3.01-1.46-7.41,1.54-9.58,3.05-2.22,7.36-1.47,9.59,1.54.04.06.09.12.13.17.4.44.82.86,1.25,1.27,2.69,2.35,5.58,4.44,8.44,6.55,1.63,1.13,3.25,2.33,4.95,3.36,2.22,1.33,4.43,2.65,6.66,3.97,2.02,1.01,4.03,2.03,6.05,3.04,1.94.98,3.95,1.79,5.94,2.64,1.9.81,3.79,1.63,5.73,2.35,2.34.87,4.68,1.73,7.01,2.6,4.34,1.43,8.66,2.87,13.05,4.13,4.6,1.33,9.23,2.49,13.88,3.64,2.44.5,4.89,1.01,7.33,1.51,2.55.53,5.13.88,7.7,1.32,4.83.83,9.73,1.29,14.6,1.81,6.57.49,13.15.92,19.74,1.05,7.05.14,14.08.11,21.12-.11,12.85-.62,25.73-1.52,38.49-3.16,3.71-.48,7.17,2.45,7.55,6.11.4,3.78-2.4,7.07-6.11,7.55-7.03.91-14.1,1.49-21.17,2.08-7.15.59-14.32,1.01-21.5,1.23-3.55.11-7.1.17-10.65.17-11.2,0-22.4-.57-33.52-1.77Z"/>
  <path class="cls-26" d="M363.53,269.12c-3.67-.55-6.35-4.13-5.76-7.82.23-1.42.85-2.72,1.45-4.02.64-1.4,1.29-2.8,1.93-4.2,1.08-2.35,2.16-4.71,3.24-7.07,2.33-5.04,4.67-10.08,7.11-15.07.82-1.68,2.09-3.02,3.87-3.7,1.66-.63,3.53-.58,5.17.12,3.31,1.43,5.21,5.67,3.57,9.03-2.18,4.46-4.29,8.95-6.37,13.46-2.2,4.79-4.53,9.54-6.59,14.39-.87,2.9-3.58,4.95-6.6,4.95-.34,0-.68-.03-1.02-.08Z"/>
  <path class="cls-27" d="M379.04,273.07c-5.04-.25-10.06-.98-15.11-.98-3.74,0-6.79-3.35-6.7-7.02.09-3.81,3.28-6.7,7.02-6.7,4.98,0,9.98.65,14.95.97,6.02.39,12.07.41,18.1.33,3.74-.05,6.79,3.38,6.71,7.02-.09,3.84-3.29,6.66-7.03,6.7-1.33.02-2.67.03-4,.03-4.65,0-9.29-.12-13.94-.35Z"/>
  <path class="cls-14" d="M377.98,315.74c-1.76-.76-2.92-2.15-3.69-3.87-2.89-6.41-5.62-12.9-8.31-19.4-1.44-3.46-2.84-6.93-4.23-10.42-1.08-2.72-1.93-5.54-3.01-8.26-1.38-3.48.53-7.55,3.99-8.86,3.53-1.34,7.48.51,8.86,3.99,1.08,2.72,1.93,5.54,3.01,8.27,1.38,3.48,2.79,6.96,4.23,10.42,2.7,6.5,5.43,12.98,8.31,19.4,1.53,3.41-.64,7.59-3.98,8.86-.78.29-1.61.44-2.43.44-.93,0-1.87-.19-2.73-.56Z"/>
  <path class="cls-17" d="M250.27,95.88c-1.76-.5-3.28-1.73-4.15-3.35-.87-1.63-.96-3.38-.55-5.15.62-2.64,1.49-5.2,2.67-7.65,1.21-2.49,2.65-4.74,4.28-6.97,1.26-1.72,2.79-3.29,4.32-4.77,2.33-2.26,5.1-3.86,8.04-5.18,3.09-1.38,6.64-1.96,10-2.15,2.9-.16,5.76.24,8.59.83,2.65.56,5.21,1.32,7.79,2.16,2.44.79,4.93,1.72,7.25,2.81,2.45,1.15,4.9,2.32,7.2,3.75,1.16.73,2.32,1.48,3.38,2.35,1.4,1.16,2.85,2.43,3.47,4.2,1.24,3.52-.42,7.5-3.99,8.86-2.76,1.05-6,.12-7.81-2.11-.44-.35-.89-.69-1.34-1.02-1.28-.8-2.57-1.53-3.9-2.25-2.71-1.27-5.43-2.4-8.23-3.44-1.85-.59-3.7-1.15-5.57-1.66-1.44-.3-2.87-.56-4.34-.74-.53-.03-1.07-.05-1.6-.04-.87.06-1.72.15-2.58.28-.56.11-1.12.24-1.67.39-.77.26-1.52.54-2.26.86-.38.19-.74.39-1.11.6-.4.27-.79.55-1.17.85-.68.62-1.34,1.24-1.98,1.9-.9,1.04-1.75,2.1-2.56,3.21-.51.81-.99,1.62-1.45,2.45-.49,1.04-.95,2.08-1.37,3.15-.32,1.04-.6,2.07-.85,3.13-.7,3.03-3.71,4.95-6.69,4.95-.61,0-1.22-.08-1.81-.25Z"/>
  <path class="cls-16" d="M480.99,180.88c-3.7-.58-6.31-4.11-5.75-7.83.56-3.68,4.13-6.33,7.83-5.75,1.02.16,2.04.28,3.07.38.88.04,1.76.06,2.64.06,1.71-.13,3.41-.33,5.11-.58,2.17-.41,4.3-.9,6.43-1.49,1.78-.64,3.52-1.33,5.25-2.07,1.26-.62,2.49-1.28,3.7-1.99,1.02-.67,2-1.38,2.96-2.14.61-.55,1.19-1.12,1.76-1.7.46-.54.88-1.09,1.3-1.66.32-.49.61-1,.87-1.52-.03.07-.05.14-.08.21.03-.08.06-.15.09-.23.07-.13.13-.26.19-.39-.06.11-.11.22-.17.32.05-.13.09-.26.13-.38-.05.14-.1.27-.15.41-.08.15-.15.3-.23.45.13-.32.27-.65.41-.97.13-.39.24-.78.34-1.18.07-.38.12-.76.16-1.14.02-.37.03-.74.03-1.11-.1-1.5-.29-2.98-.51-4.47-.25-1.67-.31-3.35.16-5,.61-2.11,2.08-3.39,3.89-4.48,1.87-1.12,4.18-.86,6.28-.65.41.02.82.03,1.24.02.66-.05,1.32-.13,1.97-.23,3.94-.71,7.87-1.47,11.72-2.56,1.52-.5,3-1.05,4.47-1.68,1.29-.63,2.55-1.29,3.79-2.02,1.2-.78,2.35-1.6,3.47-2.49,1.05-.91,2.06-1.86,3.02-2.87.73-.86,1.42-1.73,2.08-2.64.53-.81,1.01-1.63,1.48-2.48.58-1.2,1.1-2.41,1.58-3.65.61-1.81,1.13-3.64,1.58-5.5.55-2.65.94-5.32,1.21-8.01.18-2.49.26-4.97.22-7.46-.07-1.45-.19-2.88-.37-4.32-6.43,3.34-14.05,4.65-20.99,2.31-3.65-1.23-7.1-4.05-8.54-7.69-.69-1.74-1.29-3.71-1.14-5.62.09-1.01.17-1.97.37-2.97.26-1.3.74-2.5,1.3-3.7,3.53-7.37,12.36-12.6,20.54-11.65,4.09.47,7.62,2.17,10.79,4.74.78.63,1.52,1.33,2.22,2.06.56-.89,1.08-1.79,1.59-2.72.84-1.72,1.6-3.46,2.28-5.25.79-2.29,1.47-4.59,2.03-6.95.4-1.98.72-3.96.94-5.96.1-1.66.13-3.3.09-4.96-.1-1.3-.24-2.57-.44-3.85-.25-1.23-.54-2.44-.89-3.64-.4-1.15-.83-2.27-1.32-3.39-.42-.84-.86-1.65-1.33-2.46-.56-.84-1.14-1.65-1.77-2.44-.51-.57-1.03-1.1-1.57-1.63-.94-.79-1.9-1.54-2.88-2.26-2.11-1.39-4.29-2.65-6.52-3.85-1.74-.86-3.5-1.62-5.32-2.3-1.59-.52-3.19-.98-4.82-1.37-1.58-.31-3.16-.55-4.77-.73-1.58-.11-3.14-.15-4.72-.12-1.64.1-3.27.27-4.91.51-1.98.37-3.92.85-5.85,1.41-2.4.78-4.73,1.69-7.03,2.71-2.81,1.33-5.51,2.79-8.15,4.42-2.59,1.69-5.08,3.51-7.47,5.46-2.29,1.96-4.46,4.01-6.53,6.2-1.54,1.72-2.99,3.49-4.34,5.36-.68,1.02-1.32,2.06-1.91,3.14-.28.6-.54,1.19-.78,1.81-.03.11-.06.22-.09.33.18.63.27,1.3.25,1.98-.09,3.74-3.28,6.78-7.02,6.7-2.57-.05-4.72-1.52-6.01-3.68-2.01-3.35-.87-7.68.35-11.07.72-1.98,1.86-3.85,2.98-5.62,1.21-1.91,2.61-3.72,4.03-5.47,3.15-3.86,6.8-7.35,10.64-10.51,7.91-6.51,16.95-11.67,26.73-14.77,8.8-2.79,18.05-3.42,27.11-1.56,4.29.88,8.41,2.33,12.37,4.18,4.45,2.08,8.73,4.74,12.57,7.8,6.94,5.53,11.09,14.18,12.52,22.81,1.59,9.56-.02,19.23-3.23,28.29-1.57,4.41-3.64,8.7-6.37,12.51-.98,1.37-2.02,2.67-3.12,3.91,2.46,7.78,2.54,16.07,1.76,24.19-.45,4.64-1.42,9.24-2.82,13.68-1.48,4.69-3.74,8.99-6.7,12.9-2.52,3.31-5.74,6.1-9.11,8.5-4.02,2.85-8.55,4.92-13.24,6.41-4.01,1.27-8.18,2.07-12.32,2.81-1.02.18-2.03.35-3.05.48.05,1.11.03,2.22-.06,3.33-.4,4.87-2.4,9.21-5.4,13.03-3.21,4.1-7.74,7.13-12.33,9.48-2.16,1.11-4.43,2.02-6.72,2.84-4.04,1.45-8.22,2.26-12.46,2.87-1.81.26-3.63.38-5.44.38-2.4,0-4.79-.21-7.18-.58ZM551.24,79.87c.47-.04.93-.09,1.39-.16.57-.11,1.14-.24,1.71-.39.79-.26,1.56-.55,2.32-.86.78-.38,1.53-.78,2.28-1.2-.22-.25-.45-.49-.69-.72-.48-.42-.98-.82-1.5-1.21-.19-.12-.38-.23-.58-.34-.25-.11-.51-.21-.76-.32-.37-.11-.74-.21-1.12-.29.02,0,.03,0,.05,0h-.05c-.14-.03-.29-.06-.43-.08.13.03.25.06.38.08-.08,0-.17,0-.25.01,0,0,.02,0,.03,0,.08,0,.15,0,.23-.01.08.02.15.03.23.05.02,0,.04,0,.06,0-.01,0-.03,0-.04,0,.07.02.15.03.22.05-.15-.02-.3-.04-.45-.05-.22,0-.44-.01-.66-.01-.18.02-.37.04-.55.06-.28.07-.55.14-.83.2-.28.1-.55.2-.82.31-.33.17-.66.35-.98.54-.35.24-.7.49-1.04.75-.35.31-.69.64-1.01.97-.16.19-.31.38-.46.57-.13.21-.25.42-.37.63-.05.11-.1.21-.15.32l-.07.2c-.01.06-.03.13-.04.19,0,.02,0,.03,0,.05,0,0,0,0,.01.01.05.03.09.06.14.09.12.06.25.12.38.18.25.08.5.15.75.21.26.04.53.08.79.12.64.04,1.27.05,1.91.04Z"/>
  <path class="cls-18" d="M311.84,83.14c-1.43-1.14-2.36-2.83-2.55-4.65-.38-3.58,2.37-7.35,6.1-7.55,2.41-.13,4.8-.42,7.19-.75,2.23-.41,4.44-.85,6.65-1.34,2.14-.48,4.25-1.08,6.37-1.65,2.65-.86,5.29-1.72,7.9-2.71,2.53-.96,5.02-2.04,7.5-3.12,3.39-1.64,6.73-3.32,10.07-5.07,3.22-1.69,6.33-3.61,9.44-5.5,9.82-6.28,19.34-12.98,28.35-20.39.91-.77,1.82-1.55,2.7-2.35,1.57-1.42,3.02-2.95,5.18-3.46,3.7-.87,7.02,1.24,9.17,4.1,1.6,2.14,3.08,4.37,4.76,6.45,1.34,1.54,2.75,2.99,4.23,4.39,1.43,1.24,2.89,2.42,4.42,3.54,1.89,1.27,3.83,2.44,5.85,3.53,3.07,1.53,6.22,2.79,9.43,3.98,3.27,1,6.54,1.88,9.87,2.64,5.11,1.02,10.22,1.93,15.4,2.43,1.93.13,3.86.2,5.8.12,3.74-.14,6.78,3.45,6.7,7.02-.04,1.81-.82,3.56-2.12,4.81-1.37,1.3-3.05,1.82-4.9,1.9-4.74.18-9.49-.37-14.16-1.11-4.98-.79-9.95-1.73-14.83-3-2.49-.64-4.95-1.38-7.36-2.26-2.58-.94-5.08-1.98-7.61-3.08-3-1.31-5.86-3.05-8.59-4.83-3.02-1.96-5.76-4.28-8.39-6.73-2.48-2.31-4.68-4.94-6.69-7.67-8.72,7.42-18.14,14.08-27.78,20.21-6.39,4.08-12.97,7.85-19.8,11.14-3.3,1.59-6.64,3.19-10.07,4.49-3.68,1.39-7.38,2.82-11.19,3.84-7.24,1.94-14.55,3.67-22.05,4.06-.17,0-.33.01-.5.01-1.64,0-3.18-.42-4.5-1.47Z"/>
  <path class="cls-19" d="M273.9,218.08c-4.85-1.03-9.46-2.64-13.85-4.96-5.26-2.78-10.5-7.75-10.67-14.06-.1-3.74,3.42-6.79,7.02-6.7,1.81.04,3.56.81,4.81,2.12.97,1.01,1.52,2.21,1.76,3.52,0,.03.02.06.02.09.01.03.02.06.04.09,0,0,0,.02.01.02.04.06.08.12.12.17-.02-.02-.04-.05-.06-.07,0,.01.01.02.02.03.22.25.44.49.67.71.51.43,1.03.83,1.56,1.22.74.47,1.49.9,2.26,1.32,1.17.56,2.36,1.06,3.57,1.53,1.4.47,2.82.87,4.25,1.27,1.27.26,2.52.5,3.81.66.73.03,1.46.04,2.19.03.45-.03.91-.08,1.36-.14.63-.13,1.25-.27,1.88-.44,1.47-.49,2.92-1.01,4.35-1.62.45-.24.9-.48,1.34-.74.14-.09.28-.19.42-.28,3.11-2.08,7.33-1.57,9.58,1.54,2.13,2.95,1.57,7.51-1.54,9.59-2.62,1.75-5.42,3.1-8.43,4.07-2.55.83-5.05,1.45-7.73,1.68-.7.06-1.4.09-2.1.09-2.24,0-4.47-.29-6.66-.76Z"/>
  <path class="cls-29" d="M102.91,451.51c-1.81-.04-3.56-.81-4.81-2.12-1.29-1.35-1.86-3.06-1.9-4.9-.68-29.37-.37-58.76.12-88.13.51-30.14,2.07-60.23,4.24-90.3.78-10.86,1.73-21.71,2.64-32.56.54-6.46,1.06-12.91,1.55-19.37.2-2.7.34-5.41.5-8.12.09-1.47.14-2.94.21-4.42.06-1.32.05-2.71.27-4.03.6-3.69,4.1-6.32,7.82-5.75,3.65.55,6.32,4.09,5.76,7.76-.24,3.46-.34,6.93-.55,10.39-.24,4.05-.55,8.1-.86,12.14-.54,7.18-1.2,14.35-1.8,21.52-1.29,15.36-2.42,30.72-3.41,46.09-1.88,29.41-2.63,58.85-2.95,88.32-.24,22.25-.34,44.51.18,66.77.08,3.69-3.32,6.71-6.88,6.71-.05,0-.1,0-.15,0Z"/>
  <path class="cls-21" d="M102.74,449.23c-1.32-3.48.48-7.55,3.98-8.86,3.11-1.15,6.43-1.83,9.65-2.57,3.52-.81,7.05-1.57,10.57-2.35,7.5-1.66,14.96-3.45,22.42-5.26,14.5-3.52,28.98-7.08,43.58-10.15,9.49-1.99,19.01-3.81,28.52-5.72,4.83-.98,9.65-2.01,14.47-3.08,4.2-.93,8.41-1.83,12.57-2.96-.04-.35-.08-.71-.13-1.06-1.15-6.43-2.63-12.79-4.13-19.15-1.62-6.86-3.31-13.7-5.12-20.52-1.67-6.27-3.56-12.48-5.41-18.7-1.95-6.56-3.9-13.13-5.89-19.69-4.44-14.39-8.96-28.75-13.69-43.04-4.37-13.2-9.08-26.3-13.14-39.6-1.23-4.07-2.43-8.14-3.66-12.21-1.09-3.58,1.62-7.45,5.09-8.27,1.73-.41,3.59-.12,5.12.79,1.65.99,2.61,2.5,3.15,4.31,1.26,4.14,2.47,8.28,3.73,12.42-.09-.28-.17-.57-.26-.85,4.09,13.31,8.8,26.43,13.17,39.65,4.71,14.23,9.27,28.52,13.61,42.87,4.34,14.34,8.74,28.67,12.59,43.15,1.84,6.92,3.47,13.9,5.08,20.88.86,3.74,1.7,7.49,2.46,11.25.4,1.99.76,4,1.04,6,.25,1.8.16,3.58-.09,5.37-.27,2.02-1.35,3.91-2.61,5.47-2.03,2.51-5.06,3.55-8.06,4.39-1.65.46-3.32.83-4.98,1.22-3.36.79-6.72,1.54-10.08,2.27-7.14,1.55-14.29,2.99-21.46,4.41-14.26,2.81-28.51,5.7-42.65,9.12-10.08,2.44-20.14,5.03-30.25,7.36-5.09,1.17-10.19,2.32-15.29,3.45-4.88,1.09-9.77,2.12-14.59,3.48-.16.05-.32.1-.47.16-.78.29-1.59.43-2.38.43-2.78,0-5.44-1.68-6.47-4.41Z"/>
  <path class="cls-30" d="M566.78,378.44c-5.84-4.24-11.34-8.93-16.83-13.61-5.59-4.77-10.87-9.9-15.9-15.25-5.13-5.45-10.24-10.94-15.24-16.52-2.79-3.12-5.52-6.28-8.22-9.48-2.51-2.97-4.87-6.07-7.26-9.13-2.04-2.62-4-5.34-5.89-8.07-2.08-3-4.22-5.97-6.24-9.01-2.06-3.08-4.21-6.13-6.18-9.26-1.16-1.85-2.33-3.7-3.49-5.55-1.04-1.65-2.19-3.28-3.14-4.99-1.9-3.42-3.79-6.85-5.68-10.28-.72-1.32-1.27-2.78-1.9-4.15-.97-2.12-1.94-4.24-2.91-6.36-.6-1.31-1.09-2.67-1.6-4.02-.91-2.41-1.82-4.82-2.74-7.22-1.31-3.44-2.26-7.05-3.36-10.57-1.12-3.59-1.91-7.28-2.82-10.93-.39-1.57-.65-3.17-.96-4.75-.39-1.96-.81-3.92-1.13-5.89-.63-3.85-1.27-7.69-1.81-11.55-.5-3.58-1.15-7.24-1.15-10.86s3.35-6.79,7.03-6.7c3.79.09,6.68,3.26,6.7,6.98.2,3.28.71,6.55,1.16,9.8.49,3.45,1.07,6.88,1.63,10.32.31,1.57.62,3.15.93,4.72.28,1.44.5,2.92.86,4.35.8,3.21,1.61,6.42,2.41,9.63,1.03,3.29,2.06,6.58,3.09,9.87.58,1.85,1.39,3.66,2.08,5.48.69,1.82,1.38,3.64,2.07,5.47,1.5,3.27,3,6.55,4.5,9.82.82,1.77,1.91,3.46,2.85,5.16.94,1.71,1.88,3.42,2.83,5.13,4.22,6.72,8.46,13.42,12.99,19.94,2.72,3.91,5.44,7.81,8.25,11.65,2.59,3.56,5.29,7.01,7.99,10.48,2.4,2.86,4.8,5.71,7.28,8.49,2.96,3.3,5.95,6.57,8.94,9.84,5.5,5.99,11.06,11.91,16.9,17.57,7.2,6.56,14.63,12.96,22.51,18.69,3.03,2.2,3.35,6.82,1.09,9.65-1.36,1.71-3.3,2.54-5.28,2.54-1.52,0-3.05-.49-4.37-1.45Z"/>
  <path class="cls-28" d="M397.99,472.13c-5.85-1.04-11.2-3.74-15.84-7.4-4.3-3.39-7.74-7.78-10.49-12.48-.2-.34-.4-.69-.59-1.05-.65.65-1.31,1.3-1.98,1.94-1.78,1.71-3.58,3.39-5.49,4.95-4.02,3.28-8.58,5.93-13.58,7.41-4.77,1.42-9.62,1.5-14.56,1.25-5.44-.27-10.79-1.39-15.72-3.75-3.91-1.88-8.17-5.19-9.24-9.63-.49-2.03-.48-3.87.06-5.89.57-2.13,2.07-3.79,3.55-5.35,1.3-1.46,2.55-2.95,3.7-4.53.73-1.19,1.38-2.41,2.03-3.64,3.09-6.15,5.59-12.6,8-19.05,1.43-4.19,2.6-8.41,3.64-12.72,1.3-6.34,2.31-12.7,3.02-19.13.76-6.94,1.43-13.89,2.05-20.84,1.21-14.77,2.26-29.56,3.42-44.34,1.17-14.85,2.42-29.7,3.5-44.56.62-8.55,1.16-17.11,1.65-25.68.29-4.99.56-9.99.79-14.99.09-1.98.16-3.97.25-5.95.06-1.44.11-2.9.69-4.24.87-2,2.63-3.4,4.72-3.95,3.61-.95,7.42,1.51,8.27,5.09.22.92.24,1.84.09,2.71-.27,3.66-.32,7.36-.49,11.02-.17,3.63-.4,7.25-.6,10.87-.41,7.35-.91,14.69-1.39,22.03-.98,14.72-2.28,29.41-3.44,44.12-1.2,15.18-2.26,30.37-3.51,45.55-1.21,14.72-2.37,29.55-5.36,44.03-.88,4.24-1.92,8.48-3.33,12.58-1.51,4.38-3.18,8.69-4.91,12.98-1.63,4.05-3.44,8.02-5.46,11.9-.98,1.89-2.05,3.73-3.34,5.42-.93,1.21-1.91,2.38-2.92,3.52.09.05.18.1.27.15.8.37,1.59.72,2.4,1.04,1.05.34,2.09.63,3.16.88,1.24.23,2.48.41,3.74.54,2.1.14,4.2.23,6.31.19,1-.06,1.99-.14,2.98-.28.77-.17,1.51-.36,2.27-.57.83-.28,1.64-.59,2.45-.93,1.06-.52,2.09-1.07,3.12-1.67,1.22-.81,2.39-1.67,3.53-2.6,3.77-3.23,7.26-6.8,10.63-10.43.21-.24.41-.49.61-.75.59-.9,1.13-1.83,1.75-2.72,2.11-2.99,6.92-3.41,9.65-1.09.56.48,1.09.95,1.52,1.55.68.93.98,1.95,1.29,3.04.23.79.34,1.62.47,2.43.15.79.33,1.57.53,2.34.28.83.6,1.63.94,2.43.51,1.02,1.06,2.01,1.64,2.98.8,1.19,1.64,2.34,2.54,3.45.79.88,1.6,1.73,2.45,2.56.89.78,1.8,1.52,2.75,2.23.92.6,1.86,1.16,2.83,1.68.82.37,1.63.71,2.46,1.03.92.29,1.84.54,2.78.76,1.03.18,2.06.33,3.11.44,1.1.06,2.19.09,3.29.08,1.32-.08,2.63-.21,3.95-.4,1.31-.25,2.6-.56,3.88-.92,1.25-.42,2.47-.87,3.68-1.39,1.03-.5,2.03-1.02,3.02-1.59.85-.56,1.68-1.15,2.48-1.78.67-.6,1.31-1.22,1.93-1.87.87-1.02,1.68-2.07,2.46-3.16,2.1-3.24,4.11-6.52,6.04-9.87-.13.27-.27.53-.41.8.3-.58.6-1.16.9-1.74.6-1.16.99-2.47,1.7-3.57,1.52-2.34,3.61-4.38,6.52-4.69,1.45-.15,3.15.04,4.49.63,1.38.6,2.52,1.51,3.63,2.51,1.43,1.28,2.75,2.68,4.14,4.01,1.44,1.28,2.93,2.48,4.49,3.62,1.62,1.07,3.27,2.06,4.98,2.97,1.59.77,3.2,1.46,4.85,2.09,1.55.52,3.11.97,4.7,1.36,1.46.29,2.92.52,4.41.68,1.28.07,2.55.09,3.83.07.57-.03,1.13-.09,1.7-.16.69-.14,1.38-.29,2.06-.47.65-.22,1.28-.46,1.91-.73.78-.39,1.54-.81,2.3-1.25.8-.54,1.58-1.09,2.35-1.68.66-.58,1.29-1.16,1.91-1.78.76-.87,1.48-1.76,2.17-2.7.62-.95,1.21-1.92,1.76-2.92.55-1.12,1.04-2.24,1.49-3.4.48-1.45.87-2.91,1.21-4.39.25-1.34.52-2.68.71-4.03.35-2.41.43-5.08,1.49-7.31,1.42-2.97,3.65-5.5,6.82-6.67,2.98-1.09,6-1.44,9.14-1.67,3.38-.25,6.77-.44,10.15-.72,3.38-.27,6.72-.85,10.06-1.41-.29.05-.58.1-.87.14,1.46-.31,2.9-.65,4.33-1.06,1.49-.49,2.96-1.03,4.4-1.64,1.57-.75,3.09-1.57,4.58-2.47,1.07-.71,2.1-1.45,3.12-2.24,1.37-1.2,2.63-2.47,3.9-3.77,2.29-2.71,4.46-5.51,6.51-8.41,1.14-1.72,2.22-3.46,3.2-5.27.38-.81.74-1.61,1.06-2.44.12-.38.23-.77.33-1.15.03-.19.06-.37.09-.56,0-.1,0-.2.01-.3.1-3.74,3.28-6.79,7.02-6.7,3.74.09,6.8,3.28,6.7,7.02-.13,5.48-2.83,10.52-5.69,15.05-3.19,5.05-6.95,9.77-11.06,14.08-4.61,4.82-10.54,8.31-16.7,10.76-3.06,1.22-6.35,2.09-9.6,2.63-1.58.27-3.15.61-4.74.8-3.25.38-6.49.7-9.75.97-3.24.27-6.48.3-9.71.73-.25.05-.49.1-.73.16-.62,4.06-1.12,8.13-2.29,12.08-1.22,4.12-3.04,8-5.43,11.56-3.17,4.74-7.36,8.42-12.26,11.28-9.35,5.47-21.05,4.34-30.9.93-5.24-1.82-10.06-4.48-14.57-7.7-1.78-1.27-3.43-2.7-5.02-4.2-.29.53-.58,1.05-.89,1.57-1.15,1.95-2.31,3.89-3.55,5.79-2.56,3.94-5.31,7.75-9.02,10.7-4.46,3.55-9.58,5.82-15.02,7.42-3.53,1.04-7.24,1.51-10.95,1.51-2.71,0-5.41-.25-8.04-.72Z"/>
  <path class="cls-20" d="M175.27,581.64c-2.58-1.38-4.65-3.63-6.67-5.7-1.98-2.05-3.77-4.18-5.19-6.68-1.74-3.07-2.85-6.51-3.74-9.91-.83-3.16-1.46-6.39-1.72-9.65-.26-3.25,1.7-6.27,4.72-7.25-.07-.44-.14-.89-.2-1.34-.22-1.64-.43-3.29-.64-4.93-.91-7.18-1.8-14.37-2.74-21.55-1.9-14.63-3.79-29.27-5.7-43.89-1.19-9.05-2.34-18.1-3.74-27.12-.12-.65-.23-1.29-.38-1.94.08.26.16.52.23.77,0,0,.02,0,.03,0-.31-.8-.47-1.67-.47-2.56v-.03c.19-3.09,2.18-5.79,5.27-6.52,3.35-.79,6.76,1.07,8.01,4.25.64,1.61.8,3.5,1.07,5.21.28,1.84.56,3.67.82,5.52.57,4.06,1.12,8.13,1.66,12.19.97,7.26,1.91,14.52,2.86,21.79,1.88,14.34,3.74,28.68,5.55,43.04.63,4.95,1.2,9.92,1.9,14.87.06.29.12.57.19.86.22.43.47.85.76,1.24-.17-.26-.33-.51-.49-.77.31.46.62.9.94,1.34,2.63,1.17,5.3,2.25,7.8,3.72,3.05,1.8,5.93,3.81,8.71,6,1.37,1.08,2.65,2.25,3.94,3.43,2.19,2.02,4.2,4.32,5.44,7.06.62,1.38.93,2.76,1.18,4.25.29,1.79-.12,3.68-.58,5.4-1.02,3.83-4.1,7.04-7.36,9.1-1.39.87-2.87,1.57-4.45,2.02-2.06.59-4.08.79-6.21.81-.05,0-.11,0-.16,0-3.75,0-7.38-1.27-10.64-3.01ZM186.88,570.93c.3-.03.6-.06.91-.08-.14.02-.29.05-.43.07.03,0,.05,0,.08,0,.3-.05.59-.12.88-.19.2-.08.41-.16.61-.24.17-.09.35-.18.52-.27-.09.05-.18.11-.27.17.02,0,.03-.01.05-.02.26-.17.51-.34.76-.53.18-.16.35-.32.52-.48.08-.09.15-.19.23-.29.05-.1.11-.19.17-.29.02-.04.03-.07.05-.11-.06-.1-.12-.2-.17-.3-.13-.18-.26-.36-.39-.53-.83-.93-1.72-1.79-2.63-2.64-1.8-1.53-3.64-2.97-5.53-4.37-1.95-1.28-3.92-2.47-5.99-3.56-1.1-.49-2.2-.97-3.3-1.44.19.73.38,1.46.59,2.18.33.98.69,1.95,1.08,2.92.41.86.83,1.72,1.3,2.55.15.23.31.45.48.67,1.38,1.58,2.85,3.1,4.36,4.56.35.3.71.59,1.08.87.24.16.49.31.75.45.31.14.63.27.94.41.34.11.69.21,1.04.29.43.08.86.15,1.29.19.34.02.69.03,1.03.03Z"/>
  <path class="cls-31" d="M223.77,553.95c-2.08-.84-4.1-1.79-6.09-2.82-.83-.43-1.66-.86-2.48-1.3-1.7-.9-3.13-2.12-4.52-3.43-1.39-1.3-2.54-2.97-3.59-4.55-1.26-1.89-2.36-3.9-3.28-5.98-1.42-3.2-2.67-6.44-3.81-9.74-1.25-3.59-2.28-7.28-3.09-11-.34-1.55-.14-3.11.49-4.47-.32-1.94-.51-3.89-.76-5.71-.91-6.76-1.86-13.52-2.61-20.29-.83-7.42-1.55-14.84-1.82-22.3-.27-7.69-.36-15.37-.14-23.07.08-2.86.19-5.71.4-8.56.17-2.3.62-4.61,2.39-6.25,1.37-1.27,3.06-1.9,4.92-1.9,3.74,0,6.79,3.35,6.7,7.02-.02.66-.12,1.29-.31,1.88-.01.08-.02.16-.03.24-.73,10.52-.54,21.08-.18,31.6.5,7.71,1.15,15.39,2.1,23.05.92,7.41,1.81,14.85,2.95,22.23.1.52.21,1.03.34,1.54,1.11.34,2.22.63,3.35.92,1.95.5,3.81,1.21,5.67,1.94,1.68.66,3.29,1.57,4.86,2.46,1.61.91,3.19,1.95,4.66,3.08,3.03,2.36,5.77,4.95,8.32,7.83,2.98,3.38,6.08,6.96,7.84,11.14,1.37,3.25,1.01,7.04-.38,10.19-1.57,3.55-5.35,6.48-9.12,7.31-1.56.34-3.12.51-4.67.51-2.75,0-5.47-.54-8.1-1.6ZM232.1,541.88c.21-.02.42-.04.62-.07.06-.01.11-.02.17-.04-.04-.06-.07-.13-.11-.19-1.41-2.01-2.98-3.89-4.55-5.77.13.16.26.32.39.48-1.21-1.37-2.43-2.69-3.71-3.99-1.26-1.11-2.54-2.17-3.87-3.21-1.31-.86-2.61-1.67-3.97-2.45-.91-.42-1.81-.83-2.73-1.21.65,1.7,1.34,3.39,2.07,5.06.61,1.21,1.25,2.4,1.95,3.56.52.76,1.05,1.5,1.62,2.22.25.29.52.56.79.83.14.1.27.21.41.31.91.57,1.85,1.06,2.79,1.55,1.73.86,3.46,1.67,5.25,2.39-.27-.1-.55-.2-.83-.3.65.25,1.32.46,1.99.63.3.05.59.11.89.16-.3-.03-.58-.05-.88-.08.57.07,1.14.11,1.71.11Z"/>
  <path class="cls-23" d="M337.31,639.23c-1.95-.28-3.74-1.12-5.44-2.07-3.37-1.89-5.61-5.66-5.86-9.46-.24-3.5,1.3-6.77,3.7-9.25,1.46-1.5,3.04-2.87,4.62-4.24,3.4-2.96,7.11-5.45,11.01-7.7,5.84-3.35,12.5-4.63,19.15-4.91.65-.03,1.29-.05,1.94-.06-.04-2.41-.15-4.82-.2-7.23-.08-3.48-.16-6.96-.24-10.44-.15-7.1-.33-14.21-.37-21.32-.08-14.86.26-29.72.57-44.58.24-11.75.7-23.51,1.39-35.25.69-11.75,1.63-23.47,2.67-35.2.04-.54.09-1.08.09-1.62,0-3.74,3.35-6.79,7.02-6.7,3.8.09,6.7,3.28,6.7,7.02h0v.02c0,1.95-.29,3.93-.46,5.87-.17,1.91-.34,3.82-.52,5.73-1.18,14.47-2.12,28.97-2.64,43.48-.55,15.15-.82,30.3-1.01,45.46-.15,11.74,0,23.47.24,35.21.12,5.6.26,11.2.39,16.8.03,1.32.06,2.64.09,3.96.05,2.24.12,4.51-.65,6.65-.47,1.3-1.09,2.34-2.06,3.24-.09.32-.2.63-.34.94-2.64,5.79-6.44,11.05-11.39,15.09-2.62,2.15-5.43,4.04-8.37,5.74-4.27,2.46-8.71,4.18-13.61,4.93-.86.13-1.72.19-2.58.19-1.28,0-2.56-.12-3.82-.31ZM341.99,625.73c.25-.03.5-.06.75-.1.54-.1,1.07-.23,1.6-.37,1.27-.42,2.5-.9,3.72-1.42,1.39-.73,2.74-1.5,4.09-2.31,1.77-1.14,3.47-2.34,5.11-3.66.71-.61,1.4-1.24,2.06-1.91.02-.02.04-.05.06-.07-.94.2-1.87.42-2.79.67-.99.33-1.95.71-2.9,1.12-1.26.62-2.47,1.29-3.67,2.01-2.24,1.46-4.37,2.99-6.44,4.67-.53.46-1.05.92-1.57,1.38Z"/>
  <path class="cls-22" d="M522.39,549.45c-3.51-1.8-5.67-5.05-7.07-8.63-.79-2.02-1.12-4.23-1.4-6.37-.28-2.12-.34-4.39-.19-6.52.5-7.29,1.68-14.49,2.85-21.69.09-.59.19-1.17.29-1.76-1.96.94-3.95,1.81-5.96,2.62-3.35,1.35-6.76,2.52-10.23,3.51-3.55,1.02-7.26,1.52-10.92,1.87-3.74.36-7.51.21-11.19-.56-4.63-.97-8.72-3.22-12.48-6.03-7.42-5.55-12.25-14.2-15.07-22.88-1.23-3.8-2.04-7.72-2.79-11.63-.73-3.78-1.46-7.55-2.19-11.32-.84-4.32-1.59-8.72-2.8-12.96-.37-.72-.62-1.52-.73-2.36-.04-.31-.04-.63-.04-.94,0-2.75,1.88-5.3,4.43-6.26,2.65-1,5.4-.22,7.4,1.68,1.69,1.6,2.26,4.28,2.75,6.46.33,1.46.68,2.93.98,4.4.66,3.28,1.32,6.57,1.96,9.86.58,2.97,1.15,5.94,1.72,8.9.59,3.06,1.3,6.07,2.09,9.08.62,1.94,1.32,3.83,2.14,5.69.79,1.63,1.65,3.2,2.58,4.75.73,1.11,1.5,2.16,2.33,3.19.69.76,1.4,1.49,2.13,2.2.8.69,1.6,1.34,2.44,1.97.73.49,1.47.95,2.24,1.39.74.36,1.49.68,2.26.98.41.13.83.25,1.25.36.82.16,1.63.29,2.46.4,1.13.07,2.25.09,3.38.07,1.98-.12,3.93-.36,5.89-.64,2.08-.41,4.12-.89,6.16-1.47,3.51-1.17,6.96-2.47,10.35-3.97,3.56-1.68,7.03-3.54,10.4-5.59,1.15-.7,2.33-1.38,3.68-1.63,2.24-.41,4.33.06,6.13,1.49.85.68,1.45,1.47,1.86,2.32,1.03.62,1.92,1.5,2.57,2.6,1.88,3.16,3.53,6.44,5.06,9.79,1.72,3.79,3.34,7.56,4.29,11.63,1.11,4.75.85,9.7.21,14.49-.24,1.75-.68,3.49-1.05,5.22-.56,2.6-1.38,5.13-2.38,7.59-1.43,3.54-3.72,6.98-7.15,8.83-1.58.85-3.33,1.25-5.08,1.25-1.92,0-3.84-.47-5.55-1.35ZM527.83,534.61c.08-.21.17-.42.25-.63.38-1.18.71-2.37,1.04-3.56.47-2.22.88-4.43,1.19-6.68.07-1.3.1-2.58.09-3.88-.06-.88-.15-1.75-.26-2.63-.16-.81-.35-1.61-.56-2.41-.11-.31-.22-.62-.33-.93-.62,4-1.19,8.01-1.63,12.04-.11,1.68-.21,3.35-.19,5.04.07,1.07.17,2.12.31,3.18.03.15.06.3.09.45Z"/>
</svg>