<?xml version="1.0" encoding="UTF-8"?>
<svg id="Layer_1" data-name="Layer 1" xmlns="http://www.w3.org/2000/svg" xmlns:xlink="http://www.w3.org/1999/xlink" viewBox="0 0 566.07 607.42">
  <defs>
    <style>
      .cls-1 {
        fill: url(#linear-gradient-8);
      }

      .cls-2 {
        fill: url(#linear-gradient-7);
      }

      .cls-3 {
        fill: url(#linear-gradient-5);
      }

      .cls-4 {
        fill: url(#linear-gradient-6);
      }

      .cls-5 {
        fill: url(#linear-gradient-9);
      }

      .cls-6 {
        fill: url(#linear-gradient-4);
      }

      .cls-7 {
        fill: url(#linear-gradient-3);
      }

      .cls-8 {
        fill: url(#linear-gradient-2);
      }

      .cls-9 {
        fill: url(#linear-gradient);
      }

      .cls-10 {
        fill: url(#linear-gradient-10);
      }

      .cls-11 {
        fill: url(#linear-gradient-11);
      }

      .cls-12 {
        fill: url(#linear-gradient-12);
      }

      .cls-13 {
        fill: url(#linear-gradient-13);
      }

      .cls-14 {
        fill: url(#linear-gradient-19);
      }

      .cls-15 {
        fill: url(#linear-gradient-14);
      }

      .cls-16 {
        fill: url(#linear-gradient-20);
      }

      .cls-17 {
        fill: url(#linear-gradient-15);
      }

      .cls-18 {
        fill: url(#linear-gradient-16);
      }

      .cls-19 {
        fill: url(#linear-gradient-17);
      }

      .cls-20 {
        fill: url(#linear-gradient-18);
      }
    </style>
    <linearGradient id="linear-gradient" x1="147.75" y1="97.2" x2="384.59" y2="97.2" gradientUnits="userSpaceOnUse">
      <stop offset="1" stop-color="#fbc379"/>
      <stop offset="1" stop-color="#1e1e1c"/>
    </linearGradient>
    <linearGradient id="linear-gradient-2" x1="251.68" y1="75.6" x2="268.93" y2="75.6" xlink:href="#linear-gradient"/>
    <linearGradient id="linear-gradient-3" x1="282.5" y1="73.91" x2="300.35" y2="73.91" xlink:href="#linear-gradient"/>
    <linearGradient id="linear-gradient-4" x1="223.21" y1="121" x2="328.09" y2="121" xlink:href="#linear-gradient"/>
    <linearGradient id="linear-gradient-5" x1="184.07" y1="323.24" x2="372.57" y2="323.24" xlink:href="#linear-gradient"/>
    <linearGradient id="linear-gradient-6" x1="191.74" y1="361.93" x2="365.43" y2="361.93" xlink:href="#linear-gradient"/>
    <linearGradient id="linear-gradient-7" x1="273.04" y1="418.62" x2="290.03" y2="418.62" xlink:href="#linear-gradient"/>
    <linearGradient id="linear-gradient-8" x1="177.93" y1="540.65" x2="240.14" y2="540.65" xlink:href="#linear-gradient"/>
    <linearGradient id="linear-gradient-9" x1="311.73" y1="529.75" x2="382.46" y2="529.75" xlink:href="#linear-gradient"/>
    <linearGradient id="linear-gradient-10" x1="344.13" y1="107.23" x2="519.28" y2="107.23" xlink:href="#linear-gradient"/>
    <linearGradient id="linear-gradient-11" x1="493.23" y1="61.15" x2="541.49" y2="61.15" xlink:href="#linear-gradient"/>
    <linearGradient id="linear-gradient-12" x1="494.54" y1="78.2" x2="566.07" y2="78.2" xlink:href="#linear-gradient"/>
    <linearGradient id="linear-gradient-13" x1="497.96" y1="91.85" x2="536.6" y2="91.85" xlink:href="#linear-gradient"/>
    <linearGradient id="linear-gradient-14" x1="481" y1="66.13" x2="512.09" y2="66.13" xlink:href="#linear-gradient"/>
    <linearGradient id="linear-gradient-15" x1="46.85" y1="126.42" x2="205.01" y2="126.42" xlink:href="#linear-gradient"/>
    <linearGradient id="linear-gradient-16" x1="0" y1="55.99" x2="55.33" y2="55.99" xlink:href="#linear-gradient"/>
    <linearGradient id="linear-gradient-17" x1="11.44" y1="42.6" x2="53.17" y2="42.6" xlink:href="#linear-gradient"/>
    <linearGradient id="linear-gradient-18" x1="41.04" y1="37.2" x2="59.52" y2="37.2" xlink:href="#linear-gradient"/>
    <linearGradient id="linear-gradient-19" x1="52.4" y1="40.84" x2="77.45" y2="40.84" xlink:href="#linear-gradient"/>
    <linearGradient id="linear-gradient-20" x1="6.87" y1="74.74" x2="65.56" y2="74.74" xlink:href="#linear-gradient"/>
  </defs>
  <path class="cls-9" d="M271.73,194.35c-3.32-.03-6.65-.41-9.96-.63-10.4-.71-20.54-3.38-30.43-6.55-4.88-1.57-9.72-3.12-14.5-4.98-6.42-2.51-12.64-5.59-18.56-9.12-1.96-1.17-3.92-2.35-5.89-3.52-2.19-1.31-4.31-2.72-6.41-4.17-7.33-5.09-14.25-10.78-20.2-17.45-2.84-3.18-5.41-6.63-7.64-10.26-2.41-3.91-4.28-8.02-5.79-12.36-3.04-8.69-4.36-17.82-4.58-26.99-.23-9.37,1.51-18.75,4.25-27.69,2.71-8.87,6.75-17.37,11.56-25.29,4.63-7.61,10.22-14.54,16.66-20.7,3.16-3.03,6.62-5.77,10.2-8.29,3.92-2.76,8.1-5.2,12.47-7.16,4.1-1.84,8.32-3.32,12.63-4.57,2.22-.64,4.47-1.17,6.73-1.65,2.15-.46,4.35-.9,6.53-1.17,1.81-.22,3.61-.45,5.41-.67,1.47-.18,2.95-.45,4.43-.53,1.9-.1,3.8-.21,5.71-.31,1.81-.1,3.64-.3,5.45-.28,3.68.03,7.36.07,11.04.11,1.01,0,2.03.13,3.04.22,2.43.19,4.86.39,7.28.58,3.35.27,6.65.84,9.96,1.34,6.48.98,12.89,2.44,19.18,4.27,1.72.5,3.44,1,5.16,1.51,1.71.49,3.37,1.24,5.02,1.86,6.18,2.31,12.09,5.06,17.48,8.91,1.38.99,2.66,2.19,3.88,3.38.7.68,1.17,1.51,1.44,2.4,3.01,2.01,5.96,4.12,8.82,6.34,5.3,4.12,10.49,8.52,15.07,13.45,2.39,2.57,4.71,5.21,6.84,8,1.97,2.57,3.79,5.25,5.58,7.95,1.75,2.64,3.44,5.34,4.97,8.12,1.7,3.1,3.23,6.24,4.62,9.49,2.65,6.21,4.23,12.82,5.01,19.51.74,6.4.31,12.95-.75,19.29-1.12,6.65-2.69,13.16-4.91,19.54-.55,1.57-1.14,3.11-1.79,4.64-.72,1.7-1.54,3.31-2.37,4.96-1.51,2.98-3.3,5.79-5.11,8.6-1.85,2.87-4.12,5.45-6.35,8.02-2.39,2.76-5.1,5.26-7.91,7.6-1.88,1.56-3.85,2.99-5.81,4.43-1.09.81-2.21,1.53-3.36,2.26-2.1,1.33-4.18,2.68-6.35,3.89-1.98,1.1-4.03,2.1-6.1,3.04-1.63.74-3.28,1.5-4.97,2.12-1.99.72-3.99,1.44-5.98,2.17-1.26.46-2.55.8-3.85,1.16-1.67.46-3.35,1.05-5.05,1.39-3.19.65-6.37,1.39-9.59,1.85-2.06.29-4.13.59-6.2.88-1.48.21-2.99.29-4.48.42-3.63.31-7.23.49-10.87.65-1.56.07-3.11.09-4.66.09-2.01,0-4.02-.04-6.04-.05ZM275.12,182.09c1.67.01,3.35.03,5.02.05,3.76-.16,7.52-.31,11.28-.64,1.81-.16,3.62-.26,5.42-.52,2.21-.31,4.42-.63,6.63-.94,2.42-.49,4.84-.98,7.27-1.48,1.14-.23,2.26-.62,3.38-.93,1.13-.31,2.25-.63,3.38-.94,3.63-1.31,7.24-2.59,10.78-4.15,2.51-1.17,4.96-2.45,7.36-3.83,1.73-1.1,3.46-2.2,5.19-3.3,1.07-.68,2.06-1.52,3.08-2.27,1.17-.86,2.31-1.72,3.43-2.63,2.09-1.8,4.07-3.68,5.97-5.67,1.01-1.16,2.01-2.32,3.02-3.48.92-1.07,1.72-2.28,2.56-3.43.75-1.17,1.5-2.33,2.25-3.5.76-1.18,1.41-2.45,2.1-3.67.52-1.02,1.04-2.04,1.55-3.07.62-1.23,1.09-2.55,1.63-3.82.69-1.99,1.37-3.97,1.97-5.98.63-2.12,1.16-4.25,1.7-6.4.38-1.85.76-3.69,1.08-5.54.35-2.06.61-4.12.87-6.2.08-1,.16-2,.24-3,.09-1.18.05-2.39.07-3.58-.06-1.05-.11-2.09-.17-3.14-.07-1.25-.29-2.5-.44-3.75-.17-.95-.33-1.91-.5-2.86-.21-1.21-.58-2.41-.87-3.6-.52-1.67-1.05-3.33-1.64-4.97-.61-1.65-1.28-3.27-1.97-4.88-1.58-3.18-3.26-6.26-5.06-9.32-3.06-4.83-6.27-9.52-9.88-13.96-2.93-3.31-6-6.44-9.24-9.46-4.33-3.83-8.85-7.36-13.55-10.72-2.93-2.02-5.91-3.96-8.97-5.79-1.61-.97-2.62-2.6-2.9-4.36-.85-.5-1.71-.97-2.59-1.43-4.09-1.99-8.31-3.54-12.56-5.13-1.48-.43-2.97-.86-4.45-1.3-1.55-.45-3.1-1.01-4.67-1.36-3.24-.72-6.49-1.45-9.74-2.17-3.74-.56-7.48-1.13-11.23-1.7-3.64-.29-7.27-.58-10.9-.87-1.14-.09-2.3-.08-3.45-.06-.56,0-1.12.01-1.68.01-2.04-.02-4.07-.04-6.11-.06-3.31.18-6.62.35-9.94.53-1.63.09-3.28.4-4.9.61-1.87.23-3.75.43-5.61.73-4.23.74-8.4,1.68-12.52,2.9-3.06.98-6.06,2.11-8.99,3.4-2.54,1.2-4.98,2.55-7.37,4.02-2.85,1.84-5.59,3.82-8.22,5.96-2.74,2.34-5.32,4.83-7.78,7.46-2.52,2.79-4.87,5.71-7.05,8.77-2.59,3.8-4.95,7.72-7.1,11.79-2.06,4.08-3.88,8.26-5.44,12.55-1.17,3.41-2.16,6.86-2.97,10.37-.71,3.36-1.28,6.73-1.61,10.15-.2,2.94-.24,5.88-.14,8.82.17,3.27.49,6.51,1.01,9.75.55,3.02,1.23,6.01,2.11,8.96.8,2.48,1.69,4.91,2.73,7.29.86,1.78,1.8,3.51,2.83,5.2,1.48,2.27,3.06,4.46,4.76,6.57,2.19,2.59,4.53,5.03,7,7.35,3.88,3.49,8,6.7,12.26,9.71,2.88,1.97,5.81,3.77,8.8,5.55,3.04,1.81,6.05,3.6,9.19,5.24,5.11,2.58,10.36,4.78,15.73,6.75,7.53,2.42,15.05,4.98,22.77,6.74,4.29.9,8.61,1.53,12.96,1.99,2.97.2,5.95.41,8.92.61.88.06,1.77.05,2.66.04.3,0,.6,0,.91,0,.12,0,.25,0,.38,0Z"/>
  <path class="cls-8" d="M251.82,97.67c-.22-3.96-.18-7.88.07-11.84.24-3.86.79-7.69,1.36-11.51.54-3.58,1.2-7.14,1.78-10.71.36-2.19.71-4.39,1.05-6.59.36-2.28.5-4.79,1.93-6.69,2.01-2.67,6.07-3.03,8.64-.98,1.84,1.46,2.56,3.73,2.18,5.87.02-.04.03-.07.05-.11-.51,2.49-.84,5.02-1.24,7.53-.47,2.91-.95,5.81-1.44,8.71-.79,4.76-1.53,9.51-2,14.31-.21,3.33-.31,6.64-.2,9.97.01.25.03.51.04.76.09,1.63-.26,3.17-1.3,4.47-1.02,1.28-2.54,2.11-4.17,2.29-.2.02-.39.03-.59.03-3.01,0-5.99-2.36-6.17-5.5Z"/>
  <path class="cls-7" d="M287.71,101.45c-3.38-.51-5.56-3.68-5.15-7,.88-7.08,1.83-14.16,2.79-21.23.92-6.84,2-13.67,2.7-20.55,0-.12,0-.23.01-.35.11-3.05,2.43-5.65,5.5-5.97,3.24-.34,6.52,2.13,6.76,5.47,0,.01,0,.03,0,.04,0,.25.01.5,0,.75,0,0,.02,0,.02,0-.13,3.66-.78,7.32-1.28,10.94-.5,3.61-.99,7.21-1.48,10.81-.98,7.31-1.97,14.62-2.88,21.93-.38,3.03-3.18,5.22-6.12,5.22-.29,0-.59-.02-.88-.07Z"/>
  <path class="cls-6" d="M266.85,153.14c-8.25-.95-16.02-4.79-22.47-9.88-6.75-5.32-12.1-12.49-15.69-20.26-3.43-7.43-5.11-15.53-5.37-23.69-.05-1.6-.1-3.2-.1-4.8,0-3.35,3-6.08,6.29-6,3.4.08,6,2.94,6,6.29,0,1.54.04,3.08.09,4.62.15,2.41.4,4.79.76,7.17.37,1.95.83,3.88,1.38,5.79.58,1.78,1.25,3.52,1.99,5.24.83,1.76,1.75,3.47,2.75,5.15,1.17,1.82,2.43,3.55,3.79,5.22,1.2,1.38,2.46,2.69,3.78,3.95,1.32,1.17,2.69,2.27,4.12,3.31,1.43.95,2.88,1.81,4.4,2.62,1.11.53,2.24,1.01,3.38,1.46,1.34.45,2.69.85,4.07,1.19,1.19.23,2.37.42,3.58.57,1.55.11,3.08.15,4.64.11,1.25-.09,2.47-.23,3.71-.42,1.53-.3,3.04-.66,4.54-1.1,1.69-.58,3.34-1.23,4.98-1.96,1.57-.76,3.09-1.59,4.58-2.48,1.45-.94,2.85-1.95,4.21-3.02,1.5-1.29,2.9-2.65,4.24-4.09,2.78-3.22,5.26-6.67,7.69-10.15,0,0-.01.02-.02.02,1.96-3.01,3.83-6.04,5.52-9.22.77-1.6,1.49-3.21,2.12-4.86.07-.2.13-.4.2-.59,1.06-3.17,4.28-5.16,7.61-4.21,3.12.89,5.27,4.43,4.21,7.61-2.18,6.53-5.64,12.63-9.58,18.27-1.96,2.82-3.94,5.64-6.08,8.33-5.3,6.66-11.92,12.06-19.68,15.6-3.82,1.74-7.73,3.04-11.86,3.85-2.59.5-5.2.73-7.81.73-1.99,0-3.97-.13-5.96-.36Z"/>
  <path class="cls-3" d="M204.4,480.19c-3.76-.07-7.53-.25-11.07-1.61-1.41-.54-2.76-1.63-3.66-2.82-1.05-1.39-1.61-2.86-1.89-4.57-.52-3.21-.73-6.49-.99-9.73-.24-3.02-.48-6.04-.71-9.07-.53-6.84-1.03-13.69-1.39-20.55-1.39-26.85-.15-53.74.95-80.58,1.09-26.58,2.14-53.17,3.18-79.76,1.09-27.67,2.12-55.35,4.25-82.97.24-3.16.61-6.31.94-9.46.15-1.46.37-2.93.56-4.39.08-.58.16-1.16.25-1.74.15-.99.25-2.11.72-3.02.77-1.5,1.85-2.69,3.46-3.3,1.55-.59,3.1-.45,4.62.11,2.88,1.05,4.23,4.48,3.47,7.3-.71,4.61-1.18,9.25-1.66,13.88-.52,6.73-1.01,13.46-1.42,20.2-.42,6.93-.77,13.86-1.12,20.79-.67,13.09-1.13,26.19-1.64,39.28-1.05,26.7-2.09,53.41-3.19,80.11-.56,13.51-1.24,27.03-1.48,40.55-.25,13.71-.23,27.41.3,41.11.35,6.71.83,13.42,1.34,20.12.25,3.31.51,6.63.78,9.94.2,2.52.37,5.07.68,7.6.44.06.88.11,1.32.16,6.23.43,12.52.14,18.76-.03,3.09-.19,6.2-.3,9.29-.58,3.4-.3,6.8-.62,10.2-.93,6.97-.62,13.93-1.48,20.89-2.23,12.96-1.4,25.9-2.89,38.84-4.51,9.14-1.14,18.26-2.31,27.35-3.81,4.85-.91,9.66-1.91,14.44-3.12,2.5-.63,5-1.28,7.5-1.93,2.43-.63,4.89-1.21,7.31-1.92.27-.09.54-.19.8-.29.1-.05.2-.11.3-.16l.21-.14s.08-.08.12-.12c.07-.09.14-.17.21-.26.12-.19.23-.38.34-.57.16-.33.3-.67.44-1.01.34-1.08.64-2.17.9-3.28.46-2.32.78-4.66,1.01-7.02.33-4.22.33-8.43.38-12.66.02-1.48-.09-2.98-.13-4.46-.05-1.49-.09-2.98-.14-4.48-.87-13.05-1.96-26.08-2.98-39.13-1.08-13.78-2.08-27.57-3.12-41.36-1-13.31-2.15-26.59-3.4-39.88-1.22-12.99-2.8-25.96-4.23-38.93-1.44-13.15-2.54-26.33-4-39.48-1.34-11.95-2.71-23.91-4.46-35.81-.09-.6-.18-1.21-.27-1.81-.52-3.31,2.26-6.42,5.47-6.76,1.59-.17,3.22.3,4.47,1.31,1.33,1.06,2.03,2.52,2.29,4.16,1.83,11.77,3.13,23.64,4.48,35.47,1.51,13.26,2.68,26.55,4.06,39.82,1.37,13.19,2.96,26.36,4.29,39.56,1.35,13.38,2.4,26.8,3.45,40.21,1.01,12.88,1.89,25.79,2.9,38.68,1.09,13.85,2.28,27.69,3.19,41.55.23,3.46.27,6.94.37,10.41.1,3.23-.04,6.46-.09,9.69-.05,3.73-.51,7.5-1.1,11.17-.64,3.98-1.72,7.99-3.91,11.41-1.94,3.04-5.04,4.92-8.43,5.95-1.75.52-3.52.96-5.29,1.42-6.06,1.56-12.1,3.21-18.22,4.49-6.62,1.38-13.31,2.42-20.01,3.35-13.39,1.84-26.81,3.45-40.24,4.96-13.27,1.48-26.54,3-39.84,4.21-6.91.63-13.83,1.05-20.76,1.23-2.08.06-4.16.08-6.24.08-1.34,0-2.67-.01-4.01-.04Z"/>
  <path class="cls-4" d="M191.77,370.35c-.36-3.39,2.15-6.32,5.47-6.76.75-.1,1.54-.1,2.31-.1.3,0,.6,0,.89,0,1.29-.03,2.57-.07,3.85-.11,12.91-.76,25.77-2.01,38.61-3.52,13.63-1.59,27.27-3.11,40.95-4.26,6.54-.55,13.08-1.03,19.61-1.61,6.61-.59,13.2-1.28,19.8-1.96,6.29-.65,12.58-1.33,18.87-2.03,5.25-.58,10.49-1.27,15.73-1.89.26-.03.52-.06.78-.09,3.32-.41,6.41,2.18,6.76,5.47.36,3.37-2.14,6.35-5.47,6.76-11.47,1.4-22.94,2.71-34.43,3.91-6.35.67-12.7,1.34-19.06,1.91-6.52.58-13.04,1.07-19.56,1.61-13.69,1.15-27.33,2.61-40.97,4.21-13.33,1.56-26.67,2.92-40.07,3.7-2.43.14-4.87.15-7.3.22,0,0,0,0,0,0-.24.03-.49.05-.72.05-3.03,0-5.72-2.49-6.03-5.52Z"/>
  <path class="cls-2" d="M277.78,467.43c-.61-6.1-.94-12.24-1.26-18.36-.08-1.51-.16-3.03-.23-4.54-.04-.82-.08-1.64-.11-2.46,0-.06,0-.11,0-.17,0-.07-.01-.14-.01-.21-.03-.85-.12-1.71-.12-2.57-.05-.7-.04-1.41-.07-2.11-.13-3.33-.25-6.66-.37-9.99-.18-4.94-.37-9.88-.57-14.82,0,.26.02.52.03.78-.31-7.25-.63-14.51-.97-21.76-.16-3.38-.31-6.75-.48-10.13-.09-1.84-.18-3.69-.28-5.53-.05-.93-.1-1.85-.15-2.78-.06-1.04-.25-2.2-.03-3.22.36-1.64,1.09-3.05,2.48-4.06,1.24-.9,2.99-1.41,4.53-1.09,1.64.34,3.06,1.09,4.06,2.47.82,1.13,1.23,2.54,1.16,3.93.75,13.2,1.31,26.42,1.87,39.63.29,6.72.53,13.44.77,20.16.05,1.45.11,2.9.16,4.35.03.75.05,1.5.08,2.25,0,.02,0,.04,0,.05.03.81.07,1.62.1,2.43,0,.02,0,.04,0,.05.02.37.04.75.05,1.13.38,8.42.77,16.88,1.6,25.27.33,3.33-2.12,6.41-5.47,6.76-.21.02-.41.03-.62.03-3.07,0-5.83-2.38-6.14-5.5Z"/>
  <path class="cls-1" d="M212.76,607.4c-3.47-.08-6.89-.4-10.3-1.06-3.04-.59-6-1.44-8.85-2.66-3.54-1.51-6.67-3.88-9.24-6.72-2.25-2.49-3.98-5.41-5.22-8.53-1.33-3.38-1.77-7.69-.3-11.1,1.36-3.17,3.52-5.79,6.17-7.97,1.33-1.09,3.09-1.89,4.73-2.36,1.98-.57,4.18-.85,6.22-.48,1.94.35,3.72.9,5.51,1.74,1.05.49,2.05,1.09,3.05,1.67,1.26.73,2.52,1.48,3.77,2.24,2.95,1.8,5.86,3.64,8.73,5.58,2.87,1.93,5.56,4.18,8.17,6.44.07.06.15.12.22.19.07-2.6.13-5.19.2-7.78.19-6.28.34-12.55.44-18.82.22-13.15.17-26.31.29-39.47.07-7.37.19-14.74.36-22.11.07-3.18.2-6.36.38-9.54.16-2.79.28-5.57.89-8.29.68-3.02,4.02-4.86,6.93-4.44,3.31.48,5.65,3.72,5.15,7.01-.07.44-.18.86-.33,1.26-.03.22-.06.43-.08.65-.57,7.01-.66,14.06-.82,21.08-.14,6.24-.17,12.49-.22,18.74-.09,13.49-.08,26.99-.35,40.48-.16,7.69-.38,15.37-.65,23.05-.06,1.75-.13,3.51-.21,5.25-.08,1.73-.08,3.55-.4,5.28.04.14.09.28.12.43.37,1.55.11,3.21-.71,4.58-.88,1.47-2.24,2.35-3.85,2.82-5.99,1.77-12.31,2.86-18.57,2.86-.41,0-.82,0-1.23-.01ZM215.58,595.08c1.04-.07,2.07-.15,3.1-.26-2.71-2.34-5.49-4.6-8.35-6.77-4.6-3.09-9.3-6.11-14.18-8.72-.27-.13-.55-.25-.83-.36-.24-.07-.48-.13-.71-.2-.16-.03-.32-.06-.48-.08.08,0,.16.01.25.02-.01,0-.02,0-.04,0,.02,0,.03,0,.05.01.09,0,.17.01.26.02.08.03.16.06.24.09,0,0,.02,0,.03,0-.09-.03-.17-.06-.26-.09.08,0,.17.01.25.02-.1-.01-.19-.02-.29-.03,0,0-.02,0-.03,0,0,0,.02,0,.02,0-.56-.06-1.12-.06-1.68,0,.26,0,.52-.02.79-.03-.09.01-.18.03-.27.04-.07.02-.14.04-.21.06-.12.05-.23.09-.35.14-.15.08-.3.16-.45.25-.1.07-.2.15-.31.22-.14.13-.27.26-.41.4-.36.44-.7.89-1.04,1.35-.11.17-.21.35-.32.52-.02.05-.04.1-.07.16,0,.03-.02.06-.02.08,0,.03,0,.05-.01.08,0,.11,0,.22,0,.32.01.14.02.28.03.41-.01-.07-.02-.15-.04-.22,0,.02,0,.03,0,.05.06.34.14.69.23,1.02.18.51.37,1,.58,1.49.28.54.57,1.06.87,1.58.38.56.78,1.11,1.19,1.66.5.57,1.02,1.12,1.57,1.65.48.4.97.79,1.47,1.16.56.35,1.12.68,1.7,1,.69.32,1.38.62,2.09.9,1.26.42,2.53.78,3.82,1.09,1.7.32,3.38.59,5.09.82,2.25.15,4.47.21,6.72.17Z"/>
  <path class="cls-5" d="M347.21,592.96c-3.66-.8-7.18-2.68-10.32-4.66-.02-.01-.05-.03-.07-.04-3.04.47-6.12-1.13-7.63-3.79-1.08-1.9-1.47-3.89-1.82-6.01-.47-2.83-.86-5.68-1.31-8.51-.99-6.24-2.09-12.46-3-18.71-.97-6.69-1.92-13.39-2.83-20.1-2.39-17.63-4.67-35.27-7.35-52.86-.24-1.45-.45-2.92-.8-4.36-.23-.66-.36-1.37-.36-2.11v-.1c.23-2.77,1.92-5.17,4.73-5.84,2.57-.61,5.68.59,6.84,3.07.86,1.85,1.1,3.87,1.44,5.87.29,1.63.54,3.26.79,4.89.53,3.48,1.04,6.95,1.54,10.43.97,6.74,1.88,13.48,2.78,20.23,1.73,12.86,3.42,25.72,5.29,38.56.73,5.03,1.54,10.04,2.38,15.05.45,2.65.85,5.3,1.26,7.96,1.4-1.36,2.78-2.74,4.17-4.1,2.14-2.06,4.37-4.03,6.69-5.9,3-2.42,6.07-4.81,9.53-6.54,3.1-1.55,6.47-2.06,9.88-1.55,3.56.52,7.03,2.85,9.21,5.66,4.54,5.86,5.76,14.4,1.89,20.96-3.3,5.58-8.63,9.42-14.71,11.53-3.41,1.18-7.05,1.75-10.68,1.75-2.54,0-5.08-.28-7.54-.81ZM355.46,581.45c1.13-.07,2.25-.19,3.37-.36.61-.12,1.21-.27,1.8-.44.85-.28,1.67-.58,2.5-.92.7-.34,1.37-.7,2.04-1.09.65-.44,1.29-.89,1.9-1.38.4-.36.78-.74,1.15-1.12.25-.29.49-.59.72-.9.21-.32.41-.66.6-1,.16-.34.3-.68.43-1.04,0-.01,0-.03,0-.04-.05.13-.09.26-.14.39.07-.25.13-.49.2-.73.04-.21.07-.43.11-.64-.01.11-.02.23-.03.34,0-.01,0-.03.01-.04.03-.37.05-.75.05-1.13-.03-.29-.05-.57-.08-.86.02.13.04.25.07.38,0-.02,0-.04,0-.06-.07-.4-.16-.79-.26-1.18-.11-.32-.22-.63-.35-.94-.16-.31-.32-.61-.48-.92.07.12.15.24.22.35.08.17.15.33.23.5-.07-.16-.14-.32-.22-.48.07.11.13.21.2.32-.08-.14-.16-.28-.24-.41,0-.02-.02-.04-.03-.05,0,.01.01.03.02.04-.18-.28-.37-.56-.57-.82-.18-.19-.35-.37-.53-.56-.33-.27-.68-.53-1.05-.76.15.11.31.21.46.32,0,0,.02,0,.03.01,0,0-.01,0-.02,0,.07.05.13.09.2.14-.13-.07-.25-.14-.38-.21-.11-.04-.21-.09-.32-.13-.08-.02-.16-.04-.24-.07-.07-.01-.15-.02-.22-.03-.08,0-.16,0-.24,0-.12.01-.24.03-.36.04-.19.04-.37.08-.55.12.1-.03.2-.06.31-.09,0,0-.02,0-.03,0-.35.11-.7.24-1.04.38-.48.23-.94.48-1.4.75-2.4,1.56-4.64,3.32-6.87,5.1-2.41,2.09-4.74,4.25-7.03,6.47-.52.51-1.05,1.02-1.57,1.52.31.13.62.26.94.39.68.22,1.35.41,2.04.58.43.08.87.14,1.31.19,1.11.07,2.2.08,3.31.08Z"/>
  <path class="cls-10" d="M348.63,192.92c-3.09-.88-5.31-4.44-4.21-7.61.86-2.48,2.9-4.14,4.87-5.77,1.28-1.06,2.54-2.13,3.85-3.17,2.55-2.03,5.1-4.07,7.66-6.09,5.68-4.48,11.36-8.95,17.04-13.43,10.47-8.25,21.15-16.21,31.87-24.14,10.58-7.83,21.03-15.84,31.69-23.56,11.02-7.99,22.17-15.78,33.15-23.81,6.17-4.52,12.19-9.22,18.08-14.1-.1.08-.2.16-.29.25.21-.18.42-.35.64-.53,0,0,0,0,0,0,0,0,0,0,0,0,1.05-.88,2.11-1.76,3.07-2.73.1-.12.19-.24.29-.36.25-.39.47-.8.66-1.22-.12.24-.24.48-.37.72.13-.29.25-.58.36-.87,2.08-6.7,3.6-13.56,5.16-20.39,1.55-6.81,3.14-13.63,5.08-20.35.93-3.22,4.38-5.13,7.61-4.21,3.22.92,5.14,4.39,4.21,7.61-3.61,12.51-5.89,25.35-9.36,37.9-.49,1.77-1.06,3.52-1.76,5.21-1.04,2.49-2.88,4.53-4.9,6.27-2.45,2.1-4.95,4.14-7.45,6.17-4.84,3.9-9.78,7.66-14.8,11.32-11.2,8.18-22.56,16.13-33.79,24.27-10.77,7.81-21.33,15.92-32.02,23.83-5.2,3.85-10.37,7.71-15.55,11.58-4.78,3.56-9.45,7.28-14.15,10.94-4.57,3.56-9.1,7.17-13.65,10.76-4.94,3.89-9.88,7.79-14.74,11.79-.59.51-1.17,1.03-1.71,1.59-.5.66-1.13,1.22-1.92,1.64-.9.48-1.91.73-2.92.73-.57,0-1.14-.08-1.69-.24Z"/>
  <path class="cls-11" d="M494.9,82.63c-2.35-2.46-2.17-6.32.2-8.69,5.83-5.83,11.79-11.52,17.8-17.18,3.37-3.17,6.73-6.36,10.08-9.56,1.31-1.25,2.6-2.52,3.91-3.77.76-.73,1.51-1.46,2.28-2.18.84-.78,1.66-1.66,2.6-2.31,2.74-1.93,6.6-1.36,8.59,1.38,1.9,2.63,1.39,6.5-1.22,8.46-2.84,2.55-5.52,5.27-8.28,7.91-3.23,3.09-6.48,6.16-9.73,9.23-5.92,5.56-11.79,11.17-17.53,16.91-1.13,1.14-2.66,1.68-4.18,1.68-1.66,0-3.32-.65-4.5-1.89Z"/>
  <path class="cls-12" d="M559.77,85.13c-8.53-.46-17.07-.72-25.61-1-8.44-.28-16.88-.62-25.32-.54-.99.12-2.04.09-3.02.12-1.76.09-3.52.25-5.28.25-3.35,0-6.08-3-6-6.29.08-3.4,2.94-6,6.29-6,.13,0,.25,0,.38,0,1.04-.06,2.07-.11,3.11-.17.42-.02.84-.05,1.25-.05.79-.09,1.59-.1,2.38-.11.11,0,.22,0,.33,0,.15,0,.3,0,.44-.01-.12,0-.24,0-.36.01,0,0,.02,0,.03,0,4.25-.15,8.51-.02,12.75.1,4.2.12,8.4.25,12.61.39,8.76.28,17.54.55,26.3,1.02,3.34.18,6.08,2.86,6,6.29-.07,3.17-2.78,6.01-5.99,6.01-.1,0-.2,0-.3,0Z"/>
  <path class="cls-13" d="M526.64,107.65c-4.3-3.56-8.6-7.13-12.89-10.7-1.98-1.65-3.96-3.3-5.93-4.97-2.19-1.85-4.28-3.81-6.52-5.6-3.41-1.63-4.45-6.4-2.04-9.33h0c1.73-2.11,4.72-2.95,7.26-1.82,1.86.83,3.37,2.28,4.89,3.61,1.11.97,2.23,1.94,3.35,2.91,1.95,1.7,3.97,3.35,5.96,5.01,4.52,3.76,9.04,7.51,13.57,11.27,2.57,2.13,3.1,5.98.98,8.63-1.19,1.5-3.04,2.31-4.88,2.31-1.34,0-2.67-.43-3.76-1.32Z"/>
  <path class="cls-15" d="M501.53,86.12c-2.06-2.33-3.64-5.07-5.19-7.75-1.59-2.76-3.18-5.51-4.78-8.27-3.26-5.6-6.51-11.21-9.81-16.79-1.7-2.89-.36-6.79,2.5-8.33,3.04-1.63,6.63-.38,8.33,2.5,5.47,9.25,10.75,18.61,16.25,27.83.54.82,1.08,1.62,1.67,2.4,2.14,2.51,2.19,6.25-.28,8.6-1.16,1.11-2.75,1.68-4.33,1.68s-3.24-.61-4.36-1.89Z"/>
  <path class="cls-17" d="M197.18,198.31c-5.5-1.44-10.01-5.18-14.42-8.59-2.78-2.15-5.43-4.45-8.13-6.7-5.17-4.32-10.08-8.95-14.96-13.59-9.97-9.48-19.67-19.24-29.44-28.92-7.57-7.5-15.02-15.13-22.55-22.67-7.9-7.92-15.97-15.67-24.16-23.29-5.62-5.1-11.31-10.12-17.15-14.96-2.89-2.4-5.82-4.75-8.75-7.09-3.13-2.5-6.27-4.93-9.08-7.79-2.35-2.39-2.2-6.4.2-8.69,2.44-2.34,6.34-2.19,8.69.2.67.67,1.34,1.33,2.03,1.97,2.32,1.98,4.74,3.84,7.13,5.74,2.5,1.99,4.98,4,7.44,6.04,5.02,4.17,9.96,8.43,14.8,12.82,10.31,9.36,20.27,19.06,30.1,28.91,8.95,8.98,17.84,18.02,26.86,26.92,4.6,4.54,9.21,9.09,13.81,13.62,4.59,4.52,9.26,8.96,13.92,13.41,3.11,2.78,6.2,5.6,9.4,8.28,3.91,3.27,7.79,6.61,11.95,9.58,1.2.81,2.42,1.57,3.69,2.26.3.15.61.28.92.41.36.12.71.23,1.08.32,3.25.85,5.12,4.44,4.22,7.61-.78,2.73-3.29,4.42-5.98,4.42-.54,0-1.08-.07-1.62-.21Z"/>
  <path class="cls-18" d="M36.6,63.18c-3.55-.14-7.09-.39-10.64-.63-6.92-.47-13.85-.98-20.75-1.69-3.33-.34-5.63-3.81-5.15-7,.24-1.62,1.15-3.1,2.47-4.06,1.34-.97,2.9-1.26,4.53-1.09,1.45.15,2.91.29,4.36.41,4.86.41,9.72.77,14.59,1.12,5.48.39,11.01.86,16.51.75.99-.06,1.98-.15,2.97-.28.5-.1,1-.21,1.5-.33,3.09-1.3,6.77.52,7.93,3.57,1.22,3.21-.48,6.63-3.57,7.93-1.63.69-3.51.91-5.24,1.15-1.59.22-3.19.29-4.8.29s-3.16-.07-4.73-.14Z"/>
  <path class="cls-19" d="M42.59,63.78c-5.51-5.38-10.78-11-16.01-16.64-5.15-5.56-9.68-11.64-13.99-17.86-1.56-2.25-1.55-5.27.17-7.43,1.89-2.37,5.36-3.02,7.97-1.45.27.16.53.36.79.54.82.57,1.41,1.34,1.79,2.21,2.34,3.33,4.76,6.6,7.24,9.83,3.17,3.75,6.47,7.37,9.85,10.93,3.64,3.84,7.3,7.67,11.09,11.37,2.4,2.34,2.16,6.44-.2,8.69-1.19,1.13-2.67,1.67-4.17,1.67-1.63,0-3.27-.65-4.53-1.87Z"/>
  <path class="cls-20" d="M47.42,54.69c-1.16-5.7-2.28-11.4-3.39-17.11-.56-2.82-1.12-5.65-1.69-8.47-.37-1.87-.8-3.75-1.09-5.63-.22-1.37-.35-2.69.02-4.04.37-1.35,1.23-2.44,2.31-3.29,2.64-2.07,6.68-1.25,8.59,1.38.78,1.08,1.15,2.31,1.15,3.52.01.15.03.31.05.46,1.92,10.13,3.96,20.24,6.02,30.35.67,3.28-1.22,6.61-4.56,7.4-.45.11-.9.16-1.36.16-2.77,0-5.47-1.9-6.05-4.72Z"/>
  <path class="cls-14" d="M56.09,63.35c-3.09-1.34-4.51-5.01-3.2-8.09,3.38-7.94,6.81-15.87,9.77-23.97.94-2.79,1.88-5.59,2.6-8.45.66-3.19,3.68-5.43,6.96-4.93,3.27.49,5.71,3.7,5.15,7-.48,2.79-1.46,5.53-2.36,8.2-1.03,3.05-2.12,6.09-3.33,9.08-2.43,6.02-4.97,11.99-7.51,17.96-.98,2.3-3.31,3.69-5.7,3.69-.81,0-1.62-.16-2.39-.49Z"/>
  <path class="cls-16" d="M7.27,86.75c-.57-1.48-.52-3.16.11-4.62.68-1.57,1.93-2.63,3.46-3.3,7.74-3.41,15.46-6.86,23.18-10.32,4.14-1.86,8.29-3.72,12.47-5.51,1.71-.73,3.44-1.46,5.2-2.1,2.06-.75,4.15-1.61,6.31-2.05,3.28-.66,6.61,1.21,7.4,4.56.75,3.17-1.27,6.75-4.56,7.4-.58.12-1.14.28-1.7.45-7.34,2.67-14.42,5.9-21.54,9.08-7.46,3.33-14.93,6.67-22.41,9.97-.69.3-1.4.44-2.12.44-2.48,0-4.93-1.68-5.81-4.01Z"/>
</svg>