<?xml version="1.0" encoding="UTF-8"?>
<svg id="Layer_1" data-name="Layer 1" xmlns="http://www.w3.org/2000/svg" xmlns:xlink="http://www.w3.org/1999/xlink" viewBox="0 0 537.77 725.65">
  <defs>
    <style>
      .cls-1 {
        fill: url(#linear-gradient-8);
      }

      .cls-2 {
        fill: url(#linear-gradient-7);
      }

      .cls-3 {
        fill: url(#linear-gradient-5);
      }

      .cls-4 {
        fill: url(#linear-gradient-6);
      }

      .cls-5 {
        fill: url(#linear-gradient-9);
      }

      .cls-6 {
        fill: url(#linear-gradient-4);
      }

      .cls-7 {
        fill: url(#linear-gradient-3);
      }

      .cls-8 {
        fill: url(#linear-gradient-2);
      }

      .cls-9 {
        fill: url(#linear-gradient);
      }

      .cls-10 {
        fill: url(#linear-gradient-10);
      }

      .cls-11 {
        fill: url(#linear-gradient-11);
      }

      .cls-12 {
        fill: url(#linear-gradient-12);
      }

      .cls-13 {
        fill: url(#linear-gradient-13);
      }

      .cls-14 {
        fill: url(#linear-gradient-19);
      }

      .cls-15 {
        fill: url(#linear-gradient-14);
      }

      .cls-16 {
        fill: url(#linear-gradient-20);
      }

      .cls-17 {
        fill: url(#linear-gradient-15);
      }

      .cls-18 {
        fill: url(#linear-gradient-16);
      }

      .cls-19 {
        fill: url(#linear-gradient-17);
      }

      .cls-20 {
        fill: url(#linear-gradient-18);
      }
    </style>
    <linearGradient id="linear-gradient" x1="116.25" y1="114.62" x2="406" y2="114.62" gradientUnits="userSpaceOnUse">
      <stop offset="1" stop-color="#fbc379"/>
      <stop offset="1" stop-color="#1e1e1c"/>
    </linearGradient>
    <linearGradient id="linear-gradient-2" x1="222.07" y1="94.43" x2="243.55" y2="94.43" xlink:href="#linear-gradient"/>
    <linearGradient id="linear-gradient-3" x1="259.24" y1="77.34" x2="279.89" y2="77.34" xlink:href="#linear-gradient"/>
    <linearGradient id="linear-gradient-4" x1="213.48" y1="152.09" x2="308.95" y2="152.09" xlink:href="#linear-gradient"/>
    <linearGradient id="linear-gradient-5" x1="47.01" y1="183.77" x2="134.64" y2="183.77" xlink:href="#linear-gradient"/>
    <linearGradient id="linear-gradient-6" x1="388.14" y1="187.43" x2="478.88" y2="187.43" xlink:href="#linear-gradient"/>
    <linearGradient id="linear-gradient-7" x1="159.9" y1="361.47" x2="430.41" y2="361.47" xlink:href="#linear-gradient"/>
    <linearGradient id="linear-gradient-8" x1="121.99" y1="614.44" x2="214.94" y2="614.44" xlink:href="#linear-gradient"/>
    <linearGradient id="linear-gradient-9" x1="317.85" y1="607.65" x2="406.96" y2="607.65" xlink:href="#linear-gradient"/>
    <linearGradient id="linear-gradient-10" x1="0" y1="350.68" x2="211.97" y2="350.68" xlink:href="#linear-gradient"/>
    <linearGradient id="linear-gradient-11" x1="28.92" y1="493.02" x2="72.48" y2="493.02" xlink:href="#linear-gradient"/>
    <linearGradient id="linear-gradient-12" x1="56.88" y1="500.54" x2="84.22" y2="500.54" xlink:href="#linear-gradient"/>
    <linearGradient id="linear-gradient-13" x1="55.95" y1="483.08" x2="98.09" y2="483.08" xlink:href="#linear-gradient"/>
    <linearGradient id="linear-gradient-14" x1="10.16" y1="460.67" x2="54.73" y2="460.67" xlink:href="#linear-gradient"/>
    <linearGradient id="linear-gradient-15" x1="302.21" y1="300.2" x2="479.41" y2="300.2" xlink:href="#linear-gradient"/>
    <linearGradient id="linear-gradient-16" x1="453.83" y1="417.68" x2="482.32" y2="417.68" xlink:href="#linear-gradient"/>
    <linearGradient id="linear-gradient-17" x1="464.09" y1="419.31" x2="516.19" y2="419.31" xlink:href="#linear-gradient"/>
    <linearGradient id="linear-gradient-18" x1="469.46" y1="408.09" x2="534.67" y2="408.09" xlink:href="#linear-gradient"/>
    <linearGradient id="linear-gradient-19" x1="466.61" y1="383.36" x2="537.77" y2="383.36" xlink:href="#linear-gradient"/>
    <linearGradient id="linear-gradient-20" x1="441.04" y1="403.31" x2="483.79" y2="403.31" xlink:href="#linear-gradient"/>
  </defs>
  <path class="cls-9" d="M235.64,229.11c-13.2-.42-26.28-2.76-38.95-6.4-11.78-3.39-23.1-8.62-33.2-15.57-10.15-6.98-18.66-15.97-26.1-25.73-7.28-9.56-13.29-20.38-16.35-32.04-1.21-4.59-2.29-9.22-3.13-13.89-.43-2.36-.77-4.72-1.06-7.11-.29-2.42-.43-4.8-.54-7.23-.22-4.54.21-9.17.7-13.68,1-9.19,3.32-18.12,6.14-26.89,1.45-4.51,3.63-8.8,5.74-13.02,1.92-3.83,4.24-7.49,6.69-11,1.36-1.96,2.75-3.86,4.23-5.73,1.54-1.96,3.17-3.77,4.84-5.62,4.99-5.51,10.63-10.38,16.71-14.64,4.45-3.12,9.2-5.84,13.86-8.63,1.94-1.17,3.93-2.23,5.91-3.32,3.16-1.72,6.29-3.48,9.52-5.06,12.94-6.34,26.82-10.68,41.13-12.5C238.65.16,245.5-.06,252.42.01c3.65.04,7.29.29,10.92.74,1.64.21,3.26.46,4.88.77.96.18,2.07.47,2.96.92,5.91-.28,11.83-.35,17.75-.03,9.43.52,18.78,2.06,27.88,4.57,8.86,2.44,17.33,5.95,25.62,9.88,4.03,1.92,7.95,4,11.83,6.19,3.98,2.23,7.7,4.83,11.38,7.52,7.4,5.4,14.05,12.02,19.46,19.41,5.43,7.43,10.06,15.45,13.99,23.76,3.84,8.16,6.2,16.99,6.65,26.02.23,4.79.36,9.57.15,14.36-.17,3.84-.48,7.64-1,11.47-.65,4.84-1.96,9.63-3.56,14.23-1.57,4.49-3.28,8.93-5.42,13.19-1.55,3.07-3.12,6.06-4.89,9.01-3.32,5.54-7.38,10.64-11.81,15.33-4.19,4.46-8.85,8.36-13.71,12.06-2.06,1.57-4.27,2.97-6.4,4.45-1.63,1.13-3.36,2.12-5.04,3.16-1.91,1.18-3.81,2.37-5.77,3.44-2.47,1.34-4.95,2.68-7.42,4.02-2,1.08-4.1,2.01-6.15,3.01-4.3,2.09-8.69,3.96-13.08,5.87-1.72.75-3.48,1.39-5.24,2.05-2.23.85-4.45,1.81-6.71,2.56-4.22,1.39-8.42,2.89-12.7,4.1-2.75.77-5.5,1.55-8.24,2.32-2.11.59-4.27.99-6.41,1.44-1.95.41-3.9.94-5.88,1.21-2.91.39-5.82.79-8.73,1.18-1.83.24-3.64.38-5.48.5-2.44.15-4.92.44-7.37.46-3.37.03-6.73.07-10.09.07-3.05,0-6.1-.03-9.15-.13ZM242.96,212.39c3.62-.03,7.24-.06,10.85-.09,1.63-.01,3.29-.21,4.92-.31,1.86-.12,3.72-.23,5.58-.35,3.08-.42,6.15-.83,9.24-1.25,1.59-.22,3.18-.67,4.74-1,1.76-.36,3.52-.73,5.28-1.1,4.95-1.39,9.88-2.76,14.76-4.38,2.39-.79,4.8-1.52,7.15-2.42,2.89-1.11,5.79-2.21,8.68-3.31,4.42-1.92,8.83-3.8,13.16-5.9,2.17-1.05,4.38-2.05,6.5-3.2,2.54-1.38,5.09-2.76,7.63-4.14,5.26-3.24,10.49-6.48,15.44-10.19,3.04-2.39,5.93-4.91,8.69-7.62,2.34-2.42,4.56-4.93,6.64-7.57,2.16-2.92,4.13-5.93,5.96-9.06,2.17-3.96,3.99-8.05,5.75-12.21,1.07-3.07,2.14-6.11,3-9.24.6-2.51,1.08-5.02,1.45-7.57.39-3.57.54-7.14.71-10.74-.03-4.65-.11-9.28-.62-13.91-.32-2.23-.74-4.44-1.27-6.64-.61-2.19-1.34-4.32-2.17-6.44-1.58-3.69-3.42-7.23-5.3-10.77-2.88-4.89-5.87-9.65-9.2-14.25-1.71-2.09-3.45-4.11-5.27-6.11-1.33-1.31-2.66-2.61-4.07-3.84-1.69-1.48-3.43-2.89-5.18-4.3-3.2-2.32-6.45-4.51-9.83-6.58-6.55-3.64-13.27-6.86-20.14-9.87-5.16-2.05-10.38-3.81-15.73-5.3-4.88-1.17-9.78-2.09-14.75-2.77-5.17-.54-10.31-.83-15.51-.88-5.62.1-11.23.39-16.84.81-2.63.2-5.1-.93-6.78-2.78-2.2-.13-4.4-.2-6.62-.23-5.42.03-10.8.29-16.18.94-4.56.65-9.07,1.54-13.55,2.65-4.78,1.31-9.46,2.85-14.06,4.66-4.54,1.91-8.99,4.02-13.31,6.38-2.53,1.38-5.05,2.77-7.58,4.15-6.18,3.71-12.41,7.37-18.18,11.7-1.95,1.57-3.82,3.22-5.65,4.93-1.62,1.63-3.24,3.26-4.79,4.96-1.8,1.98-3.47,4.03-5.13,6.12-1.8,2.59-3.55,5.2-5.26,7.86-2,3.6-3.83,7.24-5.55,10.98-.72,1.88-1.43,3.75-2.05,5.67-.72,2.24-1.38,4.49-2.02,6.75-1.01,4.43-1.86,8.86-2.59,13.35-.42,4.09-.67,8.13-.76,12.23.07,1.45.14,2.91.21,4.36.08,1.62.37,3.25.59,4.87-.02-.17-.04-.33-.06-.5.96,5.34,2.09,10.61,3.38,15.87.64,2.36,1.37,4.67,2.24,6.96,1.34,3.16,2.89,6.2,4.57,9.19,2.37,4.01,4.95,7.85,7.75,11.57,3.04,3.87,6.26,7.55,9.71,11.06,2.85,2.77,5.83,5.36,8.97,7.79,3.01,2.2,6.11,4.23,9.33,6.1,3.63,1.99,7.34,3.77,11.15,5.37,4.83,1.9,9.76,3.49,14.77,4.85,5.99,1.52,12.03,2.68,18.15,3.51,6.32.75,12.65,1.05,19.02,1.17Z"/>
  <path class="cls-8" d="M229.52,132.82c-1.77-1.53-2.64-3.57-2.9-5.85-1.28-10.91-2.06-21.88-2.79-32.83-.36-5.43-.67-10.87-.98-16.3-.14-2.47-.28-4.94-.41-7.41-.15-2.81-.49-5.71-.32-8.52.27-4.61,4.4-8.19,8.98-7.89,4.28.28,7.65,3.82,7.89,8.01h0s0,0,0,0c.02.29.02.58,0,.87.05,4.87.49,9.77.77,14.63.31,5.44.63,10.89.99,16.32.72,10.7,1.49,21.41,2.74,32.05.54,4.58-3.49,8.7-7.91,8.98-.17.01-.35.02-.52.02-2.02,0-4.01-.73-5.55-2.06Z"/>
  <path class="cls-7" d="M262.97,100.87c-.89-8.55-1.74-17.12-2.41-25.69-.34-4.32-.65-8.63-.96-12.96-.2-2.8-.46-5.63-.32-8.44.21-4.61,4.45-8.19,8.98-7.89,4.66.3,8.1,4.38,7.89,8.98,0,.12,0,.23-.01.35.06,3.1.36,6.2.58,9.29.28,3.95.57,7.89.9,11.84.66,7.82,1.42,15.63,2.23,23.44.48,4.58-3.44,8.69-7.9,8.98-.18.01-.36.02-.54.02-4.48,0-7.98-3.52-8.44-7.93Z"/>
  <path class="cls-6" d="M238.12,181.24c-7.56-3.05-13.64-8.6-18.15-15.31-2.01-2.99-3.7-6.32-4.93-9.7-.54-1.48-1.08-2.95-1.39-4.5-.92-4.51,2.2-9.04,6.69-9.92,4.51-.87,8.91,2.12,9.89,6.57.26.83.55,1.64.85,2.46.59,1.36,1.23,2.68,1.92,4,.74,1.23,1.52,2.43,2.36,3.59.72.88,1.46,1.72,2.24,2.55.72.66,1.44,1.29,2.19,1.91.89.63,1.79,1.21,2.72,1.77.56.3,1.13.57,1.71.83,1.05.4,2.11.76,3.19,1.09,1.18.27,2.36.51,3.56.71.53.06,1.07.09,1.61.12,1.13-.03,2.24-.11,3.36-.24.69-.11,1.37-.24,2.04-.39,1.79-.5,3.53-1.09,5.27-1.76,1.99-.87,3.93-1.83,5.83-2.87,1.37-.83,2.69-1.7,3.99-2.63,1.09-.87,2.13-1.77,3.15-2.73,1.46-1.52,2.79-3.12,4.09-4.78,1.63-2.28,3.2-4.58,4.72-6.93,1.42-2.61,2.75-5.23,3.96-7.95.91-2.31,1.73-4.63,2.43-7.02.28-1.11.53-2.22.76-3.34.9-4.52,5.38-7.56,9.92-6.68,4.51.87,7.58,5.4,6.68,9.92-1.34,6.71-3.73,13.05-6.76,19.18-1.45,2.94-3.18,5.7-4.96,8.45-3.16,4.9-6.97,9.49-11.32,13.38-3,2.69-6.48,4.8-9.98,6.75-3.72,2.08-7.73,3.67-11.79,4.9-3.52,1.07-7.13,1.58-10.72,1.58-5.15,0-10.28-1.05-15.14-3.01Z"/>
  <path class="cls-3" d="M79.61,235.02c-2.07-.13-4.27-.71-6.02-1.86-2.4-1.59-4.15-3.57-5.88-5.85-1.59-2.11-2.87-4.5-4.22-6.77-1.24-2.1-2.47-4.21-3.7-6.32-2.4-4.14-4.73-8.35-6.81-12.67-2.48-5.14-4.49-10.52-5.53-16.15-.46-2.46-.61-5.21-.22-7.68.44-2.83,1.38-5.28,3.01-7.63,2.21-3.18,5.93-5.02,9.32-6.65,2.02-.97,4.04-1.94,6.07-2.89,3.83-1.81,7.66-3.59,11.5-5.39,7.83-3.67,15.62-7.41,23.35-11.29,3.95-1.99,7.89-3.99,11.85-5.97,1.98-.99,3.95-2,5.95-2.93,2.67-1.26,5.44-2.58,8.46-2.45,4.6.19,8.19,4.47,7.89,8.99-.13,1.93-.9,3.64-2.08,4.98.54,1.93.42,4.04-.49,5.96-7.6,16.05-15.14,32.13-23.34,47.88-2.08,4.01-4.21,7.99-6.37,11.95-3.22,5.91-6.51,12.06-11.04,17.07-2.8,3.08-6.73,5.72-11.03,5.72-.22,0-.44,0-.67-.02ZM80.42,215.9c2.22-3.17,4.14-6.51,6.07-9.86,5.41-9.95,10.62-20.01,15.64-30.17,3-6.08,5.91-12.21,8.81-18.34-4.67,2.35-9.33,4.7-14.04,6.96-5.51,2.64-11.03,5.25-16.56,7.84-5.25,2.45-10.53,4.86-15.7,7.47-.23.14-.45.28-.68.42,0,.13,0,.27,0,.4.03.88.12,1.75.24,2.63-.05-.36-.09-.72-.13-1.08.12.75.27,1.5.45,2.25.56,2.02,1.24,3.99,2,5.95,2.2,5.16,4.91,10.06,7.65,14.94,2.04,3.53,4.01,7.17,6.27,10.59Z"/>
  <path class="cls-4" d="M429.67,244.7c-6.24-5.28-9.9-12.88-13.78-19.94-4.46-8.13-8.11-16.76-11.65-25.32-3.47-8.38-6.36-17.02-9.01-25.69-2.53-8.29-4.89-16.64-6.89-25.07-.75-3.19.73-6.42,3.22-8.33-.46-.65-.83-1.39-1.07-2.19-.25-.82-.35-1.31-.42-2.17-.38-4.79,4.04-9.59,8.99-8.97.81.1,1.57.18,2.35.44,1.08.36,2.01.97,2.97,1.57.84.52,1.63,1.17,2.43,1.74,1.65,1.19,3.3,2.38,4.97,3.55,3.68,2.58,7.39,5.13,11.03,7.77,7.52,5.45,14.99,10.97,22.28,16.71,7.3,5.77,14.53,11.62,21.72,17.53,1.74,1.42,3.45,2.86,5.16,4.32,1.56,1.33,3.35,2.95,4.37,4.74.56.98,1.24,1.95,1.57,3.04.48,1.54.74,2.96.92,4.56.24,2.17-.45,4.45-1.04,6.5-.78,2.67-2.21,5.23-3.6,7.62-1.7,2.94-3.56,5.76-5.42,8.59-4.77,7.29-9.98,14.33-15.06,21.41-2.81,3.9-5.89,7.81-10.4,9.79-1.56.69-3.23,1.01-4.9,1.01-3.15,0-6.31-1.16-8.74-3.22ZM438.35,229.41c.13-.16.26-.32.39-.48,3.49-4.66,6.8-9.46,10.15-14.23,3.73-5.29,7.48-10.61,10.77-16.2.66-1.23,1.28-2.47,1.87-3.74.07-.19.14-.39.2-.58-2.82-2.57-5.81-4.94-8.76-7.36-2.85-2.34-5.71-4.66-8.57-6.98-5.78-4.7-11.66-9.26-17.55-13.81-5.11-3.83-10.22-7.64-15.43-11.31-1.67-1.18-3.35-2.36-5.03-3.54,1.72,6.44,3.57,12.84,5.51,19.22,2.22,7.28,4.8,14.42,7.51,21.52,2.12,5.08,4.27,10.14,6.62,15.12,2.57,5.47,5.36,10.79,8.26,16.09,1.28,2.15,2.61,4.25,4.06,6.28Z"/>
  <path class="cls-2" d="M199.02,512.1c-4.43-.31-8.9-.63-13.3-1.26-2.64-.36-5.28-.67-7.89-1.16-5.14-.95-11.25-2.4-14.85-6.51-2.12-2.42-3.41-6.09-3.02-9.32.29-2.5.93-4.88,1.53-7.32.91-3.71,1.79-7.43,2.6-11.17,1.65-7.55,2.76-15.18,3.84-22.83,2.26-17.71,4.39-35.44,6.7-53.14,2.38-18.24,4.62-36.51,7.26-54.72,4.93-34.03,10.73-67.94,15.26-102.02.38-3.36.82-6.72,1.09-10.1.26-3.12.4-6.22.53-9.34,0-.08,0-.17,0-.25,0-.02,0-.04,0-.06.19-4.6,4.47-8.19,8.99-7.89,4.68.3,8.08,4.39,7.89,8.98v.06c0,.06,0,.13-.01.19-.15,3.78-.26,7.54-.69,11.31-.54,4.75-1.09,9.49-1.72,14.22-1.28,9.65-2.72,19.26-4.18,28.88-2.77,18.34-5.73,36.65-8.51,54.99-4.13,27.27-7.46,54.66-11.03,82.01-1.69,13.35-3.12,26.74-5,40.06-.95,6.78-1.96,13.54-3.3,20.27-.57,2.9-1.24,5.78-1.9,8.66-.59,2.54-1.28,5.05-1.88,7.59.36.11.73.21,1.09.31,3.32.75,6.66,1.19,10.02,1.65,5.93.58,11.88,1.2,17.83,1.46,3.16.14,6.33.4,9.49.41,3.09.02,6.18.04,9.27.06,18.61-.52,37.2-1.46,55.76-2.85,8.77-.66,17.54-1.47,26.31-2.16,9.32-.74,18.66-1.32,28-1.91,9.44-.6,18.9-1.21,28.32-2.11,9.84-.94,19.63-2.21,29.45-3.46-.36.05-.72.09-1.08.14,4.27-.55,8.55-1.1,12.82-1.7,2.77-.39,5.56-.75,8.34-1.21-.08-.38-.17-.77-.26-1.15-2.5-8.89-5.74-17.56-9.05-26.19-3.32-8.64-6.82-17.21-10.15-25.85-3.4-8.77-6.59-17.62-9.75-26.48-2.96-8.27-6.11-16.44-9.31-24.62-7.07-17.98-13.84-36.07-21.07-53.98-6.79-16.61-13.96-33.02-22.28-48.92-4.16-7.94-8.28-15.88-11.96-24.06-3.5-7.79-6.99-15.57-10.72-23.26-.7-1.45-1.41-2.89-2.13-4.33-2.05-4.12-.19-9.3,3.92-11.3,4.18-2.02,9.25-.21,11.3,3.92,3.67,7.36,7.17,14.8,10.5,22.31,3.67,8.3,7.57,16.44,11.77,24.48,4.08,7.82,8.14,15.65,11.84,23.66,3.84,8.34,7.54,16.75,11,25.25,6.98,17.12,13.59,34.39,20.28,51.63,3.19,8.24,6.45,16.46,9.6,24.71,3.11,8.15,5.86,16.42,8.9,24.6,3.26,8.75,6.69,17.42,10.13,26.1,3.27,8.24,6.56,16.53,9.43,24.93.71,2.09,1.44,4.18,2.09,6.3.34,1.1.69,2.21,1.03,3.31.96,3.1,1.98,6.42,2.19,9.67.28,4.29-.44,9.02-3.86,12.03-2.92,2.57-6.55,3.2-10.25,3.78-8.73,1.38-17.49,2.5-26.25,3.61-8.65,1.1-17.31,2.29-26,3.01-8.96.74-17.92,1.43-26.9,2.01-9.07.57-18.14,1.12-27.21,1.83-9.1.72-18.19,1.55-27.3,2.24-18.73,1.41-37.47,2.37-56.26,2.89-1.62.05-3.25.07-4.87.07-7.48,0-14.98-.44-22.44-.96Z"/>
  <path class="cls-1" d="M187.29,725.63c-8.77-.58-17.69-2.23-26.06-4.88-5.38-1.7-10.7-3.8-15.58-6.67-5.17-3.04-9.69-6.76-13.83-11.09-4.12-4.33-7.56-9.63-9.16-15.41-1.28-4.61-.69-9.39,1.47-13.63,2.31-4.53,6.57-7.23,11.2-8.91,2.31-.83,4.8-1.12,7.23-1.39,2.67-.3,5.52-.14,8.16.27,4.86.76,9.82,2.13,14.22,4.38,3.43,1.75,6.78,3.55,9.98,5.71,4.42,2.99,8.34,6.61,11.97,10.51-.01-1.06-.03-2.12-.04-3.18-.09-9.1.03-18.21.23-27.31.39-18.33,1.73-36.67,3.08-54.94,1.1-14.84,2.57-29.65,4.04-44.46.77-7.72,1.5-15.45,2.2-23.19.32-3.51.61-7.04.85-10.56.11-1.67.22-3.34.34-5,.14-1.9.12-3.96.55-5.82,1.05-4.49,5.27-7.58,9.92-6.68,4.35.84,7.66,5.34,6.72,9.78-.4,3.83-.54,7.67-.85,11.51-.41,4.97-.84,9.95-1.29,14.92-.79,8.75-1.7,17.5-2.56,26.25-1.78,18.15-3.36,36.33-4.45,54.54-.54,9.02-1.14,18.06-1.43,27.09-.29,8.79-.46,17.57-.51,26.36.02,5.75.08,11.49.18,17.24.06,3.29.11,6.57.17,9.86.03,1.42.05,2.84.07,4.27.01,2.49.01,4.89-1.1,7.18-1.32,2.71-3.85,4.32-6.71,4.68,0,.22,0,.45-.02.68-.29,4.41-4.07,7.91-8.44,7.91-.18,0-.36,0-.54-.02ZM184.1,708.35c-1.53-2.17-3.11-4.31-4.69-6.44-2.16-2.65-4.3-5.26-6.66-7.74-1.73-1.68-3.52-3.27-5.41-4.77-1.76-1.29-3.57-2.49-5.45-3.62-2.06-1.14-4.16-2.2-6.33-3.14-1.3-.49-2.61-.91-3.95-1.3-1.27-.31-2.53-.56-3.82-.77-.63-.06-1.26-.11-1.89-.13-1.05.02-2.08.08-3.13.18-.53.08-1.05.19-1.57.31-.42.12-.83.26-1.23.41-.17.08-.35.16-.52.25-.08.06-.17.12-.25.18-.03.02-.05.05-.08.07,0,0-.02.02-.02.03-.02.03-.04.05-.05.08-.02.05-.05.09-.07.14-.01.03-.02.07-.04.1-.01.05-.02.1-.04.15,0,.04,0,.08-.01.12,0,.1,0,.2.01.3.03.18.06.37.09.55-.03-.1-.05-.2-.08-.3,0,0,0,.01,0,.02,0-.01,0-.02,0-.03-.06-.25-.13-.49-.19-.74.16.71.37,1.4.62,2.08.24.55.5,1.09.78,1.62.61,1.02,1.26,1.99,1.95,2.96,1.06,1.33,2.17,2.6,3.35,3.85,1.5,1.43,3.04,2.78,4.67,4.06,1.43,1.01,2.87,1.95,4.37,2.85,2.19,1.17,4.41,2.18,6.68,3.16,3.1,1.12,6.21,2.13,9.38,3.02,4.46,1.05,8.95,1.87,13.49,2.49.03,0,.06,0,.09.01Z"/>
  <path class="cls-5" d="M346.04,712.71c-2.26-.03-4.26-1.12-5.69-2.75-1.22.14-2.47.03-3.73-.38-2.17-.72-4.14-1.95-5.44-3.85-1.23-1.77-2.03-3.55-2.53-5.65-.55-2.31-.89-4.68-1.26-7.03-1.41-8.83-2.43-17.71-3.25-26.61-.82-8.87-1.59-17.76-2.09-26.66-.55-9.8-.93-19.61-1.2-29.43-.44-16.6-.61-33.2-1.24-49.8-.33-8.66-.76-17.32-1.18-25.98-.17-3.59-.34-7.19-.42-10.78-.1-4.42-.31-8.88-.01-13.3.32-4.59,4.38-8.19,8.99-7.89,4.59.29,8.21,4.39,7.89,8.98-.12,1.76-.12,3.52-.12,5.28.41,17.89,1.6,35.75,2.1,53.64.54,18.91.7,37.84,1.47,56.74.74,18.26,2.25,36.52,4.49,54.66.23,1.7.45,3.41.69,5.12,5.2-5,10.66-9.73,16.79-13.58,2.03-1.27,4.04-2.52,6.15-3.67,1.99-1.08,4-2.05,6.06-3.01,2.15-1,4.44-1.79,6.69-2.57,4.26-1.47,9.03-2.49,13.54-1.72,4.13.71,7.78,2.59,10.44,5.87,3.1,3.83,4.1,8.89,3.71,13.7-.42,5-2.83,9.5-5.85,13.39-3.22,4.15-7.95,7.04-12.6,9.3-5.06,2.46-10.59,3.97-16.05,5.24-4.23.98-8.54,1.61-12.85,2.13-3.81.46-7.63.63-11.46.63-.68,0-1.36,0-2.03-.02ZM359.81,695.04c3.76-.55,7.48-1.25,11.19-2.11,2.73-.76,5.42-1.56,8.07-2.56,1.41-.61,2.79-1.25,4.16-1.96.8-.48,1.57-.98,2.34-1.51.56-.45,1.1-.92,1.64-1.41.44-.48.86-.96,1.28-1.47.21-.3.41-.6.6-.91.19-.39.37-.78.56-1.17.14-.39.26-.78.37-1.17,0-.02,0-.03,0-.05-.04.15-.08.3-.12.45.05-.27.1-.54.15-.82.01-.17.03-.34.04-.52,0-.16-.02-.32-.03-.48v-.04s0,.1,0,.15c-.02-.1-.04-.2-.07-.29,0,0,0,0,0,0-.13-.01-.27-.02-.4-.03-.22,0-.45.02-.67.04-.86.14-1.7.3-2.55.5-2.23.67-4.39,1.49-6.55,2.35-2.39,1.12-4.7,2.29-7.01,3.54-2.58,1.64-5.09,3.31-7.59,5.07-1.84,1.44-3.64,2.9-5.4,4.4Z"/>
  <path class="cls-10" d="M.15,480.6c-.42-2.15.03-4.43,1.24-6.26,1.29-1.96,3.22-3.09,5.46-3.66,6.68-1.68,13.43-3.12,20.16-4.53,7.22-1.51,14.47-2.87,21.64-4.6.95-.28,1.89-.58,2.82-.91.2-.09.4-.19.6-.29.02-.01.04-.03.06-.04.02-.03.04-.06.05-.08,3.97-7.19,7.67-14.52,11.57-21.75,4.29-7.96,8.62-15.92,13-23.84,4.51-8.15,9.1-16.25,13.57-24.42,4.58-8.37,9.12-16.75,13.7-25.12,9.03-16.53,18.6-32.75,28.15-48.97,9.08-15.41,18.66-30.52,28.18-45.65,6.12-9.73,12.28-19.42,18.55-29.04,2.67-4.1,5.34-8.19,8.13-12.21,1.66-2.41,3.31-4.86,5.16-7.12,2-2.45,4.06-5.09,6.69-6.88,3.81-2.59,9.2-1.42,11.72,2.39,2.48,3.73,1.5,8.77-1.99,11.44-.43.37-.84.78-1.23,1.2.27-.27.54-.55.81-.82-1.06,1.14-2.04,2.3-3.02,3.5-5.34,7.23-10.19,14.8-15.1,22.32-4.99,7.64-9.84,15.37-14.7,23.1-9.67,15.37-19.42,30.69-28.64,46.34-7.05,11.98-14.06,23.98-20.97,36.04-9.08,16.37-17.94,32.85-27.04,49.2-8.54,15.32-17.03,30.66-25.18,46.18-1.23,2.33-2.45,4.66-3.69,6.99-1.68,3.16-3.22,6.8-5.83,9.29-3.92,3.76-9.2,5.05-14.32,6.31-2.56.62-5.13,1.17-7.71,1.68-10.67,2.11-21.36,4.26-31.91,6.92-.58.14-1.15.21-1.73.21-3.87,0-7.46-3.12-8.19-6.91Z"/>
  <path class="cls-11" d="M33.73,522.8c-4-1.93-6.13-7.25-3.93-11.3,4.62-8.5,9.5-16.88,14.39-25.24,2.4-4.11,4.86-8.19,7.4-12.21,1.22-1.93,2.46-3.84,3.76-5.7.9-1.29,1.78-2.79,3.02-3.79,1.53-1.24,3.14-1.94,5.11-2.13,4.58-.45,8.69,3.42,8.98,7.9.14,2.28-.64,4.36-2,5.94-.05.07-.11.15-.16.22.01-.01.03-.03.04-.04-.03.04-.06.08-.1.12-4.23,5.83-7.84,12.13-11.52,18.31-3.57,6.01-7.02,12.09-10.46,18.17.03-.06.07-.12.1-.19-1.12,1.99-2.24,3.99-3.33,5.99-1.1,2.02-2.72,3.61-4.94,4.35-.86.28-1.76.43-2.65.43-1.27,0-2.55-.28-3.7-.84ZM69.43,477.3s.1-.04.15-.06c.23-.23.45-.46.68-.69.05-.07.1-.14.16-.21-.3.34-.63.67-.99.96Z"/>
  <path class="cls-12" d="M67.43,528.08c-2.19-9.72-4.32-19.46-6.34-29.21-1.06-5.15-2.11-10.3-3.08-15.47-.22-1.17-.4-2.35-.6-3.51-.37-2.17-.77-4.53-.34-6.72.84-4.31,4.67-7.16,8.98-7.02,4.61.15,8.19,4.49,7.89,8.99-.01.21-.04.43-.06.63,1.25,8.18,3.06,16.29,4.78,24.38,1.75,8.24,3.53,16.48,5.38,24.7,1.01,4.49-2.27,9.06-6.69,9.91-.54.11-1.08.16-1.6.16-3.97,0-7.42-2.88-8.31-6.84Z"/>
  <path class="cls-13" d="M83.28,503.03c-3.57-4.62-7.31-9.12-11.04-13.6-3.6-4.33-7.27-8.61-11.22-12.61-.19-.17-.37-.34-.56-.52-1.89-.96-3.42-2.6-4.04-4.72.03.08.07.16.1.24-.29-.8-.46-1.61-.55-2.49-.48-5.27,4.83-10.11,10.06-8.84,1.13.28,2.32.58,3.27,1.29,1.67,1.25,3.14,2.58,4.61,4.05.96.96,1.92,1.96,2.83,2.97,2.24,2.5,4.47,5,6.62,7.57,4.29,5.1,8.56,10.22,12.63,15.49,1.39,1.81,2.23,3.8,2.08,6.13-.15,2.23-1.18,4.33-2.85,5.81-1.55,1.36-3.66,2.08-5.75,2.08-2.36,0-4.7-.91-6.19-2.85Z"/>
  <path class="cls-15" d="M44.66,474.43c-5.52-.97-10.7-3.27-15.82-5.46-4.67-1.99-9.33-4.02-13.93-6.16-4.18-1.95-5.91-7.19-3.94-11.3,2.03-4.19,7.13-5.88,11.3-3.94,5.42,2.52,10.91,4.87,16.4,7.22,2.56,1.02,5.12,1.97,7.77,2.75.48.1.97.19,1.45.28,4.54.79,7.55,5.46,6.68,9.92-.79,4.08-4.43,6.82-8.41,6.82-.5,0-1-.04-1.5-.13Z"/>
  <path class="cls-17" d="M464.65,394.76c-10.67-13.24-21.5-26.33-32.6-39.21-12.43-14.44-24.49-29.21-36.73-43.81-7.54-8.99-15.29-17.82-23.26-26.44-8.63-9.33-17.44-18.46-26.38-27.5-7.3-7.24-14.68-14.38-22.1-21.51-3.54-3.41-7.08-6.82-10.6-10.25-2.03-1.98-4-3.99-5.97-6.04-1.2-1.25-2.44-2.66-3.42-4.09-2.6-3.81-1.41-9.2,2.39-11.72,3.61-2.39,8.39-1.56,11.13,1.62-.04-.05-.08-.1-.11-.15,1.74,2.12,3.59,4.09,5.48,6.06,12.83,12.47,25.84,24.76,38.43,37.48,6.43,6.5,12.83,13.03,19.03,19.74,6.19,6.69,12.45,13.35,18.37,20.28,12.04,14.09,23.78,28.42,35.72,42.59,5.87,6.97,11.88,13.83,17.76,20.78,5.79,6.84,11.49,13.75,17.16,20.69,2.8,3.43,5.6,6.86,8.38,10.31,2.89,3.59,2.8,8.8-.77,11.94-1.56,1.37-3.63,2.07-5.68,2.07-2.36,0-4.7-.93-6.25-2.85Z"/>
  <path class="cls-18" d="M460.69,447.84c-4.46-.87-7.64-5.42-6.68-9.92,1.62-7.63,3.51-15.2,5.4-22.76,1.09-4.34,2.21-8.67,3.41-12.98.52-1.86,1.07-3.7,1.63-5.54.54-1.78,1.18-3.68,2.21-5.25.9-1.37,2.11-2.32,3.52-3.12,4-2.29,9.39-.02,11.3,3.92.95,1.97,1.1,4.28.42,6.36-.21.63-.48,1.2-.81,1.72-1.21,3.37-2.11,6.85-3.06,10.3-2.65,10.15-5.23,20.32-7.42,30.58-.85,3.98-4.36,6.83-8.33,6.83-.52,0-1.06-.05-1.59-.15Z"/>
  <path class="cls-19" d="M500.69,447.14c-6.58-9.45-13.22-18.87-20-28.18-2.42-3.08-4.88-6.09-7.43-9.06-1.1-1.29-2.25-2.53-3.36-3.81-1.22-1.43-2.38-3.01-3.71-4.34-3.26-3.26-2.52-9.04.77-11.94,1.68-1.47,3.9-2.23,6.13-2.08,2.33.15,4.19,1.24,5.81,2.85,1.39,1.39,2.6,3.05,3.87,4.53,1.57,1.82,3.18,3.61,4.75,5.43,3.61,4.22,6.94,8.63,10.21,13.11,5.8,7.96,11.44,16.06,17.07,24.15,2.63,3.79,1.39,9.22-2.39,11.72-1.42.94-3,1.38-4.57,1.38-2.76,0-5.47-1.36-7.15-3.77Z"/>
  <path class="cls-20" d="M522.54,429.1c-6.86-3.6-13.57-7.48-20.28-11.35-6.88-3.96-13.5-8.37-20.38-12.33-1.31-.71-2.63-1.37-3.99-1.98-.76-.28-1.54-.51-2.33-.68.35.09.7.18,1.05.28-.11-.02-.22-.05-.32-.07-4.52-.91-7.56-5.37-6.68-9.92.87-4.5,5.4-7.6,9.92-6.69,5.79,1.17,10.8,4.37,15.77,7.39,2.5,1.52,4.96,3.09,7.46,4.62,5.31,3.24,10.69,6.34,16.1,9.42,3.66,2.07,7.33,4.12,11.05,6.08,4.08,2.15,5.99,7.05,3.94,11.3-1.41,2.93-4.56,4.8-7.74,4.8-1.21,0-2.43-.27-3.56-.86Z"/>
  <path class="cls-14" d="M467.48,393.05l.02.05c-1.83-3.28-.67-7.74,2.06-10.13,1.72-1.51,3.99-2.29,6.12-3.03,2.08-.72,4.25-1.31,6.4-1.8,4.9-1.13,9.8-2.23,14.75-3.19,10.29-2,20.58-4,30.88-5.93,4.53-.84,9.04,2.15,9.92,6.69.86,4.5-2.16,9.07-6.69,9.92-15.32,2.86-30.66,5.67-45.85,9.17-1.75.48-3.47,1-5.19,1.59-.64.44-1.35.81-2.11,1.06-.86.29-1.74.42-2.6.42-3.21,0-6.27-1.86-7.7-4.81Z"/>
  <path class="cls-16" d="M442.42,417.22c-2.58-3.9-1.4-9.1,2.39-11.72,4.36-3.02,8.67-6.1,12.96-9.21,2.34-1.69,4.67-3.39,7-5.1,1.94-1.43,3.86-2.94,5.94-4.17,1.94-1.14,4.04-1.68,6.28-1.25,2.21.43,4.19,1.76,5.44,3.63,2.44,3.69,1.59,9.38-2.39,11.72-1.92,1.14-3.69,2.52-5.49,3.84-2.26,1.66-4.52,3.32-6.79,4.95-4.51,3.26-9.04,6.51-13.62,9.69-1.37.95-2.96,1.4-4.55,1.4-2.79,0-5.57-1.37-7.17-3.78Z"/>
</svg>