<svg id="Layer_1" data-name="Layer 1" xmlns="http://www.w3.org/2000/svg" viewBox="0 0 792.37 197.84"><defs><style>.cls-1{fill:#e7eef1;}.cls-2{fill:#233754;}.cls-3{fill:#fff;}</style></defs><title>lasera-logo</title><circle class="cls-1" cx="98.92" cy="98.92" r="98.92"/><path class="cls-2" d="M146.72,169.9l-2-3-17.51-26.7,1.61-1h0a6,6,0,0,0,2.09-8.28h0a6.05,6.05,0,0,0-8.25-2.09l-2.08,1.22-4.16-6.34,5.37-3.18a6,6,0,0,0,2.11-8.22l-.68-1.15a6.17,6.17,0,0,0-1.57-1.8,6,6,0,0,0-4.24-1.2l-7.49-59L56.26,26.49,79.85,66.35A1.25,1.25,0,0,0,81,67h0a11.62,11.62,0,0,1,9.8,4.69,11.31,11.31,0,0,1-6.26,17.51,11,11,0,0,1-9.11-1.45,11.35,11.35,0,0,1-3.54-15.18h0a1.82,1.82,0,0,0,0-1.83L48.43,31.12l-5.93,58,47.89,34.81a5.84,5.84,0,0,0-1.18,5.63,6.27,6.27,0,0,0,.64,1.45l.57,1a6.19,6.19,0,0,0,3.13,2.69,6,6,0,0,0,5.17-.45l6.3-3.73,4,6.41-1.09.64a6.32,6.32,0,0,0-2.83,3.42,6,6,0,0,0,.54,4.92l0,.05A6,6,0,0,0,114,148l1.57-.93,13.15,20.82a5.64,5.64,0,0,1-3,8.37,76.1,76.1,0,0,1-51.16-1.44,72.59,72.59,0,0,1-26.2-17.24,75.86,75.86,0,0,1-8.78-95.85c1.31-1.92,2.7-3.78,4.19-5.58L44.35,50l.56-5.44.58-5.68q-2.09,1.94-4,4a91,91,0,0,0,100.8,146.54c1.12-.46,2.23-1,3.33-1.46q3.3-1.53,6.49-3.33c1-.59,2.08-1.2,3.11-1.83l-2-3.05ZM50.9,42.37l17.34,29.3a15,15,0,0,0,4.59,18.64,14.65,14.65,0,0,0,12.79,2.3,14.9,14.9,0,0,0-1.52-29,4.27,4.27,0,0,1-2.93-2.06L64.93,34.07l41.71,17.65L114,109.55l-8.44,5a21.4,21.4,0,0,1-23.47-1.11l-35.78-26Zm52.82,84.71-6.83,4a2.41,2.41,0,0,1-1.82.26,2.36,2.36,0,0,1-1.47-1.11L92.87,129a2.37,2.37,0,0,1-.26-1.82,2.4,2.4,0,0,1,1.1-1.47l23.1-13.66a2.33,2.33,0,0,1,1.67-.3l.15,0a2.4,2.4,0,0,1,1.47,1.1l.73,1.23a2.41,2.41,0,0,1-.85,3.29l-6.18,3.66-5,3-1.33.79Zm4.4,1.58,5.23-3.09,4.16,6.34-1,.6a5.16,5.16,0,0,1-7-1.68Zm5.47,15.4-1.48.88a2.41,2.41,0,0,1-3.29-.84l0,0a2.4,2.4,0,0,1,.85-3.3L111,140l3.1-1.83,5.4-3.2,3.1-1.83,2-1.16a2.39,2.39,0,0,1,1.67-.29l.15,0a2.41,2.41,0,0,1,1.48,1.11l0,.05a2.36,2.36,0,0,1,.26,1.82,2.4,2.4,0,0,1-1.1,1.47l-1.76,1L122.15,139l-5.46,3.23Zm30,40.79c-1.1.51-2.22,1-3.35,1.44a87,87,0,0,1-57.56,2.82c-40.07-11.77-66.45-51.26-62-92.79A87,87,0,0,1,40.83,49.08h0a20.45,20.45,0,0,1-3.59,9.66A80.07,80.07,0,0,0,22.8,104.23a76.08,76.08,0,0,0,6.63,31.87c11,24.52,32.29,41.23,57.8,46.11a78.67,78.67,0,0,0,47.06-5.38c1.11-.49,2.2-1,3.28-1.56l-1.93-3.06-17-26.94,5.51-3.26,17.59,26.83,2,3,2.52,3.85a6.25,6.25,0,0,1-2.53,9.12Z" transform="translate(-8.63 -6.46)"/><path class="cls-2" d="M196.43,86.12v0a36.32,36.32,0,0,0-3.59-12.24c0,.06.06.11.08.16a92.35,92.35,0,0,0-16.44-28A90.89,90.89,0,0,0,67.25,23.87q-2.06,1-4.08,2.15l4.26,1.85,8,3.45,2.28,1a6.68,6.68,0,0,0,4.86.15c.86-.3,1.73-.58,2.6-.85a77.11,77.11,0,0,1,14.78-3l7.2,5,4,2.81a6.8,6.8,0,0,0,3.16,1.15q3,.28,6,.87h0A67.85,67.85,0,0,1,129.77,41l3.11,5.9,2,3.69a6.61,6.61,0,0,0,2.57,2.62c1.49.86,2.94,1.77,4.34,2.75q.94.66,1.86,1.35l.17-.08a38.13,38.13,0,0,0-4.4,2.56,36.42,36.42,0,0,0-8.19,7.6c-.3.37-.59.75-.86,1.13a37,37,0,0,0-7,20.29,11.85,11.85,0,0,1-2.93,7.46L118,98.92l3.73,1.89A11.84,11.84,0,0,1,127,106.2a39.22,39.22,0,0,0,2.64,4.55,36.77,36.77,0,0,0,34.15,15.89h0c-.2.55-.42,1.1-.64,1.64s-.37.88-.56,1.32a6.52,6.52,0,0,0,.21,5.7l.52,1,2.41,4.54c-1,1.71-2.16,3.37-3.35,5l-.74,1a6.55,6.55,0,0,0-1.13,5.75l.26,1,1.68,6.06c-1.66,1.67-3.4,3.27-5.2,4.78l-.16.14a6.58,6.58,0,0,0-2.22,6.33h0l1.41,7,.77,3.85c.54-.34,1.07-.69,1.6-1l1.64-1.14a91.1,91.1,0,0,0,36.2-93.35Zm.19,3c0-.17,0-.34,0-.52C196.61,88.77,196.62,88.94,196.62,89.11Zm-.27,5.49c0-.19.05-.38.07-.58C196.4,94.22,196.38,94.41,196.35,94.6Zm.26-3v0Zm-4.77-19.53c-.09-.16-.18-.33-.28-.49C191.66,71.72,191.75,71.89,191.84,72.05ZM95.48,25.53a75.8,75.8,0,0,0-7.77,1.57,23.92,23.92,0,0,1-15.4-1l-.6-.27A87.16,87.16,0,0,1,183.06,61.65l.05.05a36.38,36.38,0,0,0-12.52-6.64l.08,0a80.15,80.15,0,0,0-48-29,81.55,81.55,0,0,0-21.83-1.2C99.06,25.05,97.27,25.26,95.48,25.53Zm93.39,42.08-.37-.47ZM187,65.35l0,0Zm-1.71-1.75-.41-.38Zm-16.17-9-.35-.1ZM127.37,36.49c-2.09-.59-4.21-1.11-6.36-1.52h-.08a35,35,0,0,1-13.64-5.57l-1.59-1.11A77.64,77.64,0,0,1,122,29.64q3.06.59,6,1.4l.62.18a76.78,76.78,0,0,1,36.16,22.59h.06a36.46,36.46,0,0,0-8.08-.2l.32,0a70.92,70.92,0,0,0-24.83-15.49Q129.88,37.21,127.37,36.49ZM144,53.13A28.85,28.85,0,0,1,134.9,43h0a67.84,67.84,0,0,1,17.56,11.22h0a35.75,35.75,0,0,0-5.07,1.45h0C146.3,54.8,145.17,54,144,53.13Zm11.11.67-.51.07Zm-9.55,2.62-.41.19Zm20.61,1.26A33.2,33.2,0,0,1,191,78.77c3.45,9.36-4.65,19.31-14.47,17.55l-.17,0h0c-6-1.14-12.44-5.87-12.52-13.56a19.31,19.31,0,0,0-9.34-16.87,26.29,26.29,0,0,0-9.06-3.54h0a15.87,15.87,0,0,0-2.9-.26A32.87,32.87,0,0,1,166.18,57.68ZM132.3,72.35h0a4.47,4.47,0,1,0,1.76-2.76,11.58,11.58,0,0,1,2.21-2,11.54,11.54,0,1,1-4,4.72Zm-9,25.77.53-.43a8.27,8.27,0,0,0,3.05-6.63v0a32.67,32.67,0,0,1,.59-7.08c.19-1,.42-2,.7-2.92a15,15,0,1,0,28.95-8,16,16,0,0,1,3.1,9.73c.09,8.33,6.43,15.35,15.44,17.07h0c6.69,1.27,10.66,12.37,2.82,17.69a33.09,33.09,0,0,1-45.93-8.79c-.5-.75-1-1.52-1.42-2.3a33.62,33.62,0,0,1-1.66-3.35,7.7,7.7,0,0,0-4-4Zm44.46,39a11.39,11.39,0,0,1-.61-9.33c.21-.59.43-1.19.63-1.78l-.13,0a37.22,37.22,0,0,0,5.46-1.63l-.25.1a67.73,67.73,0,0,1-5.1,12.62Zm-2-10.73.19,0Zm-.48,30.08a13.7,13.7,0,0,1,1.9-11.24l.47-.7c.76-1.17,1.48-2.36,2.17-3.57a71.75,71.75,0,0,0,7.32-18.39l-.23.12a40.09,40.09,0,0,0,3.66-2.18c1.07-.73,2.09-1.51,3.07-2.33l-.06,0c-.09.55-.19,1.11-.3,1.66a76.55,76.55,0,0,1-18,36.58Zm9.51-32.76.49-.22Zm-15.34,51.84h0a12.77,12.77,0,0,1,3.85-11.77l.21-.2c1-1,2-1.94,2.92-2.95a80.09,80.09,0,0,0,20.39-40.07c.41-2.16.74-4.32,1-6.48l-.11.12a36.14,36.14,0,0,0,7.19-12.8c0,.1-.05.21-.09.31a87.21,87.21,0,0,1-35.33,73.84Zm26.15-59.15.27-.27ZM195.5,99.2l-.15.55Z" transform="translate(-8.63 -6.46)"/><path class="cls-2" d="M57,118.06a6.8,6.8,0,0,1,2.63,6.58,6.66,6.66,0,0,1-1.22,2.93l-.11.15a6.73,6.73,0,0,1-4,2.51,13.86,13.86,0,0,1-1.46.17l-10.2.66a1.58,1.58,0,0,1-.75-.2l-.5-.38a1.67,1.67,0,0,1-.47-.94,1.89,1.89,0,0,1,.34-1.35,2,2,0,0,1,1.82-.71L53.38,127a3.52,3.52,0,0,0,2.31-1.38,3.49,3.49,0,0,0-.66-4.85l-.11-.09a3.44,3.44,0,0,0-2.77-.59,3.66,3.66,0,0,0-2.21,1.49,2.28,2.28,0,0,1-.5.36A1.69,1.69,0,0,1,47.09,120a2.32,2.32,0,0,1,.29-.61,11,11,0,0,1,1.18-1.19,8.6,8.6,0,0,1,1.16-.77,8.88,8.88,0,0,1,1.42-.53,7.7,7.7,0,0,1,1.61-.23A6.83,6.83,0,0,1,57,118.06Zm-5.42,15.65a1.84,1.84,0,0,1,.7,1.68,1.76,1.76,0,0,1-.32.77l-.07.1a1.7,1.7,0,0,1-1.39.66,1.51,1.51,0,0,1-.82-.2l-.5-.38a1.69,1.69,0,0,1-.47-1,1.76,1.76,0,0,1,.31-1.22l.09-.12a1.72,1.72,0,0,1,1.32-.66A1.81,1.81,0,0,1,51.57,133.71Z" transform="translate(-8.63 -6.46)"/><path class="cls-2" d="M71.87,129.29l1.24.93a8.06,8.06,0,0,1,1.73,2.07,9,9,0,0,1,.74,1.63,6.3,6.3,0,0,1-.92,6l-3.16,4.21a1.46,1.46,0,0,1-2,.41,1.52,1.52,0,0,1-.28-.19,1.65,1.65,0,0,1-.71-1.65,1.19,1.19,0,0,1,.22-.47l3-4a1.72,1.72,0,0,0,.13-.18s0,0,.1-.12l.06-.07a3.65,3.65,0,0,0,.41-3.5,5,5,0,0,0-1.68-2.22l0,0a4.76,4.76,0,0,0-3.89-.92,3.52,3.52,0,0,0-2,1.26q-.1.13-.09.15l-.37.46-3.11,4.15c-.1.14-.22.3-.36.51,0,0-.06,0-.14.15a3.68,3.68,0,0,0-.45,3.32,1.76,1.76,0,0,1,.22,1.4,1.26,1.26,0,0,1-.19.36,1.4,1.4,0,0,1-1.45.5,1.83,1.83,0,0,1-.75-.34l-.05,0c-.66-.5-1-1.61-1.19-3.36a6.36,6.36,0,0,1,.6-2.85,4.42,4.42,0,0,1,.39-.66l4.45-5.93A6,6,0,0,1,66.23,128a7.54,7.54,0,0,1,2.24,0,6.66,6.66,0,0,1,1.43.33A8.12,8.12,0,0,1,71.87,129.29Z" transform="translate(-8.63 -6.46)"/><path class="cls-2" d="M86.33,140.07a37.87,37.87,0,0,1,3.06,2.4,1.73,1.73,0,0,1,.34.92,1.46,1.46,0,0,1-.28,1l-9.7,12.93a1.53,1.53,0,0,1-1.34.6,1.25,1.25,0,0,1-.68-.19l-.5-.37a1.51,1.51,0,0,1-.43-.81,1.59,1.59,0,0,1,.29-1.29l8.63-11.5-1.37-1a1.66,1.66,0,0,1-.62-1.62,2,2,0,0,1,.31-.71,1.71,1.71,0,0,1,1.68-.64A2,2,0,0,1,86.33,140.07Z" transform="translate(-8.63 -6.46)"/><path class="cls-2" d="M107.08,155.74a1.72,1.72,0,0,1,.66,1.71,1.79,1.79,0,0,1-.31.76,1.83,1.83,0,0,1-1.71.69c-4.56.11-7,.17-7.39.16h0l4.15,3.06a1.74,1.74,0,0,1,.6,1.09,1.76,1.76,0,0,1-.32,1.23,1.65,1.65,0,0,1-1.5.65,1.67,1.67,0,0,1-.79-.26l-8.41-6.22a1.69,1.69,0,0,1-.58-1.25,1.81,1.81,0,0,1,.32-1l0-.05a1.62,1.62,0,0,1,1.12-.66c3.82-.11,8.19-.19,13.1-.27A2,2,0,0,1,107.08,155.74Zm-9.35,12a2,2,0,0,1,.79,1.91,2.06,2.06,0,0,1-.38.93,2,2,0,0,1-1.9.79,1.66,1.66,0,0,1-.64-.21l-.54-.4a1.84,1.84,0,0,1-.55-1.07,2.06,2.06,0,0,1,.36-1.52l0-.05a2,2,0,0,1,1.86-.76A2,2,0,0,1,97.73,167.75Z" transform="translate(-8.63 -6.46)"/><path class="cls-3" d="M311.37,164.41h9.51a11.87,11.87,0,0,1,3.94.58,6.69,6.69,0,0,1,2.61,1.61,6.2,6.2,0,0,1,1.78,4.68v.06a6.32,6.32,0,0,1-1.12,3.85,7.13,7.13,0,0,1-3,2.33l4.79,7h-6.43l-4.05-6.09H317v6.09h-5.58Zm9.25,9.66a3.4,3.4,0,0,0,2.22-.65,2.13,2.13,0,0,0,.77-1.74v-.05a2.07,2.07,0,0,0-.8-1.8,3.71,3.71,0,0,0-2.21-.59H317v4.83Z" transform="translate(-8.63 -6.46)"/><path class="cls-3" d="M344.34,164.41h16.18v4.75H349.86v3h9.65v4.4h-9.65v3.18h10.8v4.74H344.34Z" transform="translate(-8.63 -6.46)"/><path class="cls-3" d="M375.81,164.41h5.58v8.16l6.92-8.16h6.6l-7.61,8.65,7.87,11.46h-6.69l-5.06-7.46-2,2.26v5.2h-5.58Z" transform="translate(-8.63 -6.46)"/><path class="cls-3" d="M409.09,164.41h5.58v15.23h9.74v4.88H409.09Z" transform="translate(-8.63 -6.46)"/><path class="cls-3" d="M446.05,164.27h5.37L460,184.52h-6l-1.47-3.59h-7.75l-1.44,3.59h-5.86Zm4.89,12.33-2.24-5.72-2.27,5.72Z" transform="translate(-8.63 -6.46)"/><path class="cls-3" d="M474.25,164.41h5.89l4.8,7.79,4.8-7.79h5.89v20.11h-5.55V173l-5.14,7.87h-.12L479.71,173v11.49h-5.46Z" transform="translate(-8.63 -6.46)"/><path class="cls-3" d="M549.39,164.27h5.37l8.56,20.25h-6l-1.47-3.59h-7.75l-1.44,3.59h-5.86Zm4.88,12.33L552,170.88l-2.27,5.72Z" transform="translate(-8.63 -6.46)"/><path class="cls-3" d="M583,184.87a10.29,10.29,0,0,1-2.39-.26,7.8,7.8,0,0,1-1.92-.72,7.55,7.55,0,0,1-1.56-1.07,8.36,8.36,0,0,1-1.2-1.34l3.59-3.39a7.44,7.44,0,0,0,1.48,1.38,3,3,0,0,0,1.65.49,2.12,2.12,0,0,0,1.68-.71,3.13,3.13,0,0,0,.62-2.11V164.41h5.54v12.76a9.93,9.93,0,0,1-.48,3.27,6.31,6.31,0,0,1-1.5,2.39,6.51,6.51,0,0,1-2.4,1.52A8.79,8.79,0,0,1,583,184.87Z" transform="translate(-8.63 -6.46)"/><path class="cls-3" d="M613.05,164.27h5.37L627,184.52h-6l-1.47-3.59h-7.76l-1.43,3.59h-5.86Zm4.88,12.33-2.24-5.72-2.27,5.72Z" transform="translate(-8.63 -6.46)"/><path class="cls-3" d="M641.25,164.41h5.2L654.72,175V164.41h5.52v20.11h-4.89l-8.59-11v11h-5.51Z" transform="translate(-8.63 -6.46)"/><path class="cls-3" d="M684,184.87a15.85,15.85,0,0,1-5.13-.83,12.45,12.45,0,0,1-4.29-2.5l3.1-3.71a10.21,10.21,0,0,0,6.52,2.41,3.3,3.3,0,0,0,1.71-.36,1.11,1.11,0,0,0,.59-1v-.06a1,1,0,0,0-.15-.56,1.49,1.49,0,0,0-.53-.48,5.46,5.46,0,0,0-1-.44q-.64-.21-1.68-.45c-1.07-.25-2.07-.52-3-.82a8.91,8.91,0,0,1-2.4-1.15,5.08,5.08,0,0,1-1.61-1.75,5.26,5.26,0,0,1-.59-2.6v-.06a6.3,6.3,0,0,1,.53-2.58,5.83,5.83,0,0,1,1.56-2,7.51,7.51,0,0,1,2.45-1.34,10.53,10.53,0,0,1,3.25-.47,14.56,14.56,0,0,1,4.61.68,11.62,11.62,0,0,1,3.66,2l-2.78,3.94A11.3,11.3,0,0,0,686,169.2a8.46,8.46,0,0,0-2.8-.5,2.49,2.49,0,0,0-1.51.37,1.1,1.1,0,0,0-.51.92v.06a1.17,1.17,0,0,0,.16.6,1.46,1.46,0,0,0,.55.47,5.35,5.35,0,0,0,1.06.43,16.91,16.91,0,0,0,1.71.45,23.92,23.92,0,0,1,3.12.88,9.08,9.08,0,0,1,2.37,1.22,4.82,4.82,0,0,1,1.49,1.73,5.28,5.28,0,0,1,.52,2.43v.06a6.29,6.29,0,0,1-.59,2.76,5.85,5.85,0,0,1-1.65,2,7.26,7.26,0,0,1-2.56,1.29A11.56,11.56,0,0,1,684,184.87Z" transform="translate(-8.63 -6.46)"/><path class="cls-3" d="M707.27,164.41h5.6v20.11h-5.6Z" transform="translate(-8.63 -6.46)"/><path class="cls-3" d="M223.24,149V60.88a12.26,12.26,0,0,1,1.13-5.26,12.07,12.07,0,0,1,3-4.06,15.18,15.18,0,0,1,4.21-2.64,12.15,12.15,0,0,1,4.74-1h11.73a3.21,3.21,0,0,1,2.56,1,3.68,3.68,0,0,1,1,2.71v72.94a5.49,5.49,0,0,0,1.2,2.94,4,4,0,0,0,3.46,1.73h40.31a4.1,4.1,0,0,1,2.78,1,3.51,3.51,0,0,1,1.13,2.79V149a3.49,3.49,0,0,1-1.13,2.78,4.1,4.1,0,0,1-2.78,1H227a4.18,4.18,0,0,1-3.76-3.76Z" transform="translate(-8.63 -6.46)"/><path class="cls-3" d="M334.37,149.92a5.06,5.06,0,0,1-5.12,3.31h-19.4a3.08,3.08,0,0,1-3.16-3.16,3.73,3.73,0,0,1,.15-1.35l34.9-96q1.65-4.36,6-4.36h23.32c2.9,0,4.91,1.45,6,4.36l34.9,96a3.73,3.73,0,0,1,.15,1.35,3.37,3.37,0,0,1-3.16,3.16h-19.4a5,5,0,0,1-5.12-3.31l-25.11-75.2Z" transform="translate(-8.63 -6.46)"/><path class="cls-3" d="M723.24,149.92a5,5,0,0,1-5.11,3.31H698.72a3.83,3.83,0,0,1-2.25-.9,3.87,3.87,0,0,1-.91-2.26,3.73,3.73,0,0,1,.15-1.35l34.9-96c1.1-2.91,3.11-4.36,6-4.36h23.32c2.91,0,4.91,1.45,6,4.36l34.89,96a3.73,3.73,0,0,1,.15,1.35,3.37,3.37,0,0,1-3.16,3.16h-19.4a5,5,0,0,1-5.11-3.31l-25.12-75.2Z" transform="translate(-8.63 -6.46)"/><path class="cls-3" d="M505.36,121.34q0,9.18-4.29,15.5a33.72,33.72,0,0,1-10.9,10.22,48.55,48.55,0,0,1-14.74,5.64,75.34,75.34,0,0,1-15.8,1.73,81.7,81.7,0,0,1-15.26-1.5,50.47,50.47,0,0,1-14.51-5,33.58,33.58,0,0,1-11.06-9.33,25.12,25.12,0,0,1-4.89-14.36,2.91,2.91,0,0,1,1-2.25,3.29,3.29,0,0,1,2.33-.91h20a7.23,7.23,0,0,1,1.57.16,5.12,5.12,0,0,1,1.28.45,13.15,13.15,0,0,1,2.56,2.1,12.63,12.63,0,0,0,7.14,6.54,28.38,28.38,0,0,0,9.85,1.73,48.72,48.72,0,0,0,5.19-.3,20.47,20.47,0,0,0,5.42-1.27,12.19,12.19,0,0,0,4.29-2.86,6.78,6.78,0,0,0,1.8-4.89,6.32,6.32,0,0,0-3-5.87A30.43,30.43,0,0,0,467,114a60.76,60.76,0,0,0-6.09-1.73c-2.35-.54-5.09-1.12-8.2-1.72A106.74,106.74,0,0,1,439.33,107a43.29,43.29,0,0,1-11.51-5.79,27.85,27.85,0,0,1-8.12-9.1,27.2,27.2,0,0,1-3.08-13.46,27.18,27.18,0,0,1,5.49-17.07,35,35,0,0,1,14.36-10.91,58.54,58.54,0,0,1,22.11-3.91,67.69,67.69,0,0,1,10.31.83,52.24,52.24,0,0,1,10.37,2.71,41,41,0,0,1,9.4,5,32,32,0,0,1,7.52,7.45q5.11,6.61,5.57,13.38a3.27,3.27,0,0,1-1,2.26,2.93,2.93,0,0,1-2.18,1H477.53a5.65,5.65,0,0,1-5-2.71,9.57,9.57,0,0,0-4.66-5.41,20,20,0,0,0-9.33-2.11,36.08,36.08,0,0,0-4.59.3,12.49,12.49,0,0,0-4.28,1.36,8.88,8.88,0,0,0-3.16,2.78A7.61,7.61,0,0,0,445.34,78q0,4.2,4.52,6.77,4.51,2.4,16.84,5c4.72.9,9.4,2,14.07,3.23a44.55,44.55,0,0,1,12.4,5.34,27.76,27.76,0,0,1,8.8,9Q505.36,112.77,505.36,121.34Z" transform="translate(-8.63 -6.46)"/><path class="cls-3" d="M512.86,149.17v-88a12.34,12.34,0,0,1,3.91-9.4,13,13,0,0,1,9.17-3.68h61.37A3.84,3.84,0,0,1,591.22,52V66.9a3.18,3.18,0,0,1-1.05,2.55,3.84,3.84,0,0,1-2.86,1.06h-55.5a7.68,7.68,0,0,1,5.94,2.55,8.14,8.14,0,0,1,2.33,5.57V85a5.23,5.23,0,0,0,1.13,3.16,4,4,0,0,0,3.39,1.5h32.78a3.84,3.84,0,0,1,3.91,3.91v13.54a3.84,3.84,0,0,1-3.91,3.91H531.81a8,8,0,0,1,5.87,2.4,7.5,7.5,0,0,1,2.4,5.42v7.07a5,5,0,0,0,1.21,3.16,4,4,0,0,0,3.31,1.5h43.91q3.91,0,3.92,3.91v14.74A3.49,3.49,0,0,1,591.3,152a4.15,4.15,0,0,1-2.79,1H516.62a3.86,3.86,0,0,1-3.76-3.76Z" transform="translate(-8.63 -6.46)"/><path class="cls-3" d="M685.06,152.93h-21.2a6.18,6.18,0,0,1-6-3.91L642.5,118.94a4.39,4.39,0,0,0-4.06-2.41h-19.7a7.33,7.33,0,0,1,5.94,2.63,8.39,8.39,0,0,1,2.18,5.34v24.82a3.19,3.19,0,0,1-1.06,2.56,3.65,3.65,0,0,1-2.7,1.05H602.49a3.61,3.61,0,0,1-2.63-1.13,3.46,3.46,0,0,1-1.13-2.48V61.18a12.17,12.17,0,0,1,3.91-9.25,13,13,0,0,1,9.18-3.68H643.7a69.23,69.23,0,0,1,16,1.8,38.8,38.8,0,0,1,13.39,5.87,29.7,29.7,0,0,1,9.25,10.6q3.45,6.54,3.46,16a32.6,32.6,0,0,1-4.06,16.24,30.8,30.8,0,0,1-12,11.74,2.36,2.36,0,0,0-1.28,1.8,2.38,2.38,0,0,0,.38,1.65l18.95,34.3a3.73,3.73,0,0,1,.45,1.65,2.81,2.81,0,0,1-1,2.11A3.18,3.18,0,0,1,685.06,152.93ZM656.79,82.39q0-6.17-3.69-9.4a14,14,0,0,0-9.55-3.23H617.68a7.65,7.65,0,0,1,6,2.55A8.12,8.12,0,0,1,626,77.73V89.91a4.46,4.46,0,0,0,1.27,3.16,4.28,4.28,0,0,0,3.24,1.35h13.08a14.89,14.89,0,0,0,9.55-2.93Q656.79,88.55,656.79,82.39Z" transform="translate(-8.63 -6.46)"/></svg>