<?xml version="1.0" encoding="UTF-8"?>
<svg id="katman_1" data-name="katman 1" xmlns="http://www.w3.org/2000/svg" viewBox="0 0 207.3 82.69">
  <defs>
    <style>
      .cls-1 {
        fill: #fff;
      }
    </style>
  </defs>
  <path class="cls-1" d="M166.78,52.58c-1.7,1.9-3.6,3.4-5.7,4.6-2.1,1.2-4.3,1.9-6.6,1.9s-3.7-.4-4.8-1.1c-1.2-.7-2-1.7-2.6-2.8-.6-1.2-1-2.6-1.1-4.2-.2-1.6-.2-3.3-.2-5.2v-3.8c-1-.7-1.5-1.6-1.5-2.8s.2-1.2.5-1.8.7-1.2,1.3-1.7c.2-2.8.5-5.8.8-8.8l.9-8.5.9-7.9c.1-1.2.6-2.1,1.5-2.8.9-.6,1.8-.9,2.7-.9s2,.3,2.8,1c.8.7,1.3,1.6,1.4,2.8v1.8c-.1.6-.4,1.4-.9,2.4-.3,2.4-.5,4.9-.7,7.8-.2,2.8-.4,5.6-.7,8.3,1.1-.4,2.2-.8,3.3-1.1s2-.6,2.6-.7c.7-.2,1.4-.3,2-.4h1.8c3.2,0,5.5.8,7.2,2.4,1.6,1.6,2.4,3.7,2.4,6.2s0,.9,0,1.4-.2,1-.3,1.6c-.5,1.9-1.3,3.9-2.4,6.1-1.2,2.2-2.6,4.2-4.3,6.1M164.88,38.88c.2-.6.2-1.2.2-1.6s-.3-.7-.9-.7-1.3,0-2,.2-1.5.4-2.2.6c-.8.2-1.5.5-2.2.7-.7.3-1.3.5-1.8.6l-.6.3c-.3.1-.4.2-.6.2l-.7.5v2.5l-.2,2v2.1c0,.7,0,1.9.1,2.7,0,.8.3,1.4.7,1.9.8-.3,1.5-.7,2.5-1.3s2-1.4,3-2.4,1.9-2.2,2.8-3.6c.9-1.4,1.5-2.9,2-4.7M140.18,29.08c.7,1.2,1.2,2.5,1.5,3.9s.3,2.8.2,4.2c-.2,2.2-.8,4.6-1.8,7.1s-2.3,4.8-3.8,7c-1.6,2.1-3.3,3.9-5.3,5.3s-4.1,2.1-6.3,2c-2,0-3.7-.5-5.2-1.4-1.4-.9-2.6-2.2-3.6-3.7-.9-1.5-1.7-3.2-2.1-5.1-.5-1.9-.7-3.8-.7-5.6s0-1.1,0-1.5,0-.8.1-1.3c.3-2.2.9-4.3,1.9-6.3s2.3-3.5,3.9-4.5c1-.6,2-1,3-1.1,1-.2,1.9-.3,2.5-.3,1.6-.9,3.1-1.6,4.5-2.1s2.7-.7,3.8-.7c1.7,0,3.2.4,4.4,1.1s2.1,1.7,2.9,2.8M133.48,37.58c.1-.9,0-1.9-.2-2.8-.3-.9-.9-1.4-1.9-1.5-.6,0-1.2,0-1.8.3-.6.2-1.2.4-1.8.7s-1.2.6-1.7.9-1,.6-1.3.9l-.5,1-.3.6-.4.4c-.2.2-.5.4-.8.6s-.7.4-1.2.5l-.4,2.4c-.1,1.2,0,2.3,0,3.3.1,1.1.4,2,.7,2.8s.7,1.5,1.1,1.9c.4.5,1,.7,1.5.7,1.2,0,2.2-.4,3.2-1.2,1-.8,1.9-1.9,2.7-3.1.8-1.3,1.4-2.7,2-4.2.5-1.5.9-3,1.1-4.3M104.78,42.28c1.7.7,3.1,1.6,4.3,2.7s1.8,2.5,1.8,4.3-.7,4.1-2.1,5.8c-1.4,1.6-3.1,3-5.1,4.1s-4,2-6.2,2.6c-2.2.7-3.9,1.1-5.4,1.4-1.2.4-2.1.5-2.9.2s-1.4-.8-1.8-1.5-.6-1.4-.7-2.3c0-.8.1-1.6.5-2.4.3-.7.9-1.3,1.5-1.7.7-.4,1.6-.5,2.6-.2,0,0,.3,0,.7.2.6-.1,1.5-.3,2.6-.7,1.2-.3,2.4-.8,3.6-1.3s2.3-1.1,3.2-1.7c.9-.7,1.3-1.4,1.3-2.1s-.2-.4-.6-.6-.8-.4-1.3-.6-.9-.3-1.4-.4l-1-.2-4.5-1.2c-1.6-.4-3.1-1-4.5-1.8-1.4-.7-2.5-1.7-3.5-2.8-.9-1.2-1.4-2.6-1.4-4.3s.6-3.6,1.7-5.2c1.1-1.6,2.5-2.9,4.2-4s3.5-2,5.4-2.6,3.8-1,5.5-1.1c1.7,0,3.1.2,4.3.7,1.2.5,1.8,1.4,1.8,2.6v1.5c0,.5-.2,1-.5,1.5-.2.4-.5.7-.9,1-.4.3-.9.6-1.4.7-.5.2-1,.2-1.5.2s-1-.3-1.4-.6c-1.3,0-2.5.2-3.7.6-1.1.4-2.1.8-3,1.3-.8.5-1.5,1-2,1.5s-.7.9-.7,1.2.2.5.5.8,1,.6,1.8.9c1.3.5,2.8.9,4.6,1.4,1.8.5,3.5,1.1,5.2,1.8M189.28,37.88c-.7,1.1-1.2,2.2-1.7,3.3,1-.3,2-.6,3-1.1s1.9-1.1,2.7-1.7c.8-.7,1.5-1.4,2-2.2.6-.8.9-1.7.9-2.6,0-.4,0-.7.2-.9-.8-.3-1.6,0-2.4.5-.8.5-1.7,1.2-2.5,2s-1.6,1.8-2.2,2.8M207.18,48.68c.3.9,0,1.9-.6,2.9-.8,1.3-1.9,2.5-3.2,3.5s-2.6,1.8-4,2.5-2.9,1.2-4.4,1.5-2.9.5-4.2.5c-1.9,0-3.6-.4-5.1-1.1s-2.8-1.7-3.9-3c-1.1-1.3-1.9-2.9-2.4-4.8s-.7-4.1-.6-6.6c.1-2.3.6-4.5,1.6-6.8s2.3-4.4,3.9-6.2c1.6-1.9,3.5-3.4,5.6-4.6s4.3-1.8,6.7-1.8,2.7.3,3.7.9,1.7,1.4,2.3,2.3.9,1.9,1.1,2.9c.2,1,.3,2,.2,3-.2,2.2-.8,4.1-1.9,5.9-1.1,1.7-2.5,3.2-4.1,4.4-1.6,1.3-3.3,2.3-5.2,3.1s-3.6,1.4-5.2,1.8c.4,1.2,1,2,1.6,2.4.7.4,1.4.6,2.1.6,1.2,0,2.2-.1,3.1-.4.9-.3,1.7-.6,2.4-1.1.7-.4,1.4-1,2.1-1.5l2.2-1.9c.7-.6,1.5-1.1,2.2-1.3.8-.2,1.6,0,2.6.6.7.6,1.2,1.3,1.5,2.3"/>
  <path class="cls-1" d="M201.18,74.38h-.5c-.1,0-.2,0-.2-.2v-2.7h-.5c-.1,0-.2,0-.2-.2v-.4h.6v-.2c0-.8.4-1.2,1.1-1.2s.8.2.8.4v.3h-.6c-.4,0-.6.1-.6.6v.2h1c.1,0,.2,0,.2.2v.4h-1.1v2.8h0ZM196.68,74.38c-.1,0-.2,0-.2-.2v-4.5h.5c.13,0,.2.07.2.2v2.7c.6-.3,1.3-1,1.7-1.6.4.1.5.2.5.4v.2c-.2.3-.6.7-1.2,1.1.2.4.6.8.9,1.1.2.2.3.2.4.2h.1v.2c0,.1-.2.3-.5.3s-.5-.1-.8-.5c-.3-.3-.5-.7-.7-1l-.4.2v1.2h-.5ZM195.78,73.88v.2c0,.1-.2.3-.5.3s-.5-.2-.6-.5c-.2.4-.6.6-1.1.6-.7,0-1.2-.4-1.2-1.1s.5-1.1,1.4-1.1.6,0,.8.2v-.2c0-.5-.3-.7-1-.7s-.6,0-.9.2v-.3c0-.2.5-.5,1.1-.5s1.5.5,1.5,1.4v1.3c0,.2.07.3.2.3h.1s.2-.1.2-.1ZM194.68,73.28v-.4h-.7c-.5,0-.8.2-.8.5s.3.5.6.5.7-.2.9-.5M190.28,74.38h-.7l-1.6-4.3c.2-.1.4-.2.6-.2s.2,0,.2.1l1.3,3.5c.5-.9,1-2.3,1.3-3.6h.6c.13,0,.2.07.2.2-.3,1.4-.8,2.9-1.5,4.1,0,.1-.1.2-.3.2M185.28,73.48c0,.2,0,.3.2.3h.2v.2c0,.1-.2.3-.5.3s-.6-.2-.6-.8v-1.5c0-.4-.2-.6-.6-.6s-.6.1-.8.3v2.5h-.5c-.1,0-.2,0-.2-.2v-2.1c0-.4-.2-.6-.6-.6s-.6.1-.8.4v2.6h-.5c-.1,0-.2,0-.2-.2v-3.2h.5c.13,0,.2.07.2.2v.3c.2-.3.6-.4,1-.4s.7.2.9.5c.3-.3.7-.5,1.1-.5.6,0,1.1.4,1.1,1.2v1.4l.1-.1h0ZM178.58,70.08c0-.3.2-.4.4-.4s.4.2.4.4-.2.4-.4.4-.4-.2-.4-.4M178.68,70.98h.5c.13,0,.2.07.2.2v2.4c0,.2,0,.3.2.3h.2v.2c0,.1-.2.3-.5.3s-.6-.2-.6-.8v-2.6h0ZM175.98,73.18v-1.7h-.4c-.1,0-.2,0-.2-.2v-.4h.5v-1h.5c.13,0,.2.07.2.2v.9h1c.1,0,.2,0,.2.2v.4h-1.2v1.7c0,.4.2.6.6.6h.5v.3c0,.2-.3.4-.8.4s-1.1-.4-1.1-1.2M173.78,70.08c0-.3.2-.4.4-.4s.4.2.4.4-.2.4-.4.4-.4-.2-.4-.4M173.88,70.98h.5c.13,0,.2.07.2.2v2.4c0,.2,0,.3.2.3h.2v.2c0,.1-.2.3-.5.3s-.6-.2-.6-.8v-2.6h0ZM169.68,75.08c0-.3.2-.6.6-.8-.4-.3-.7-.8-.7-1.5,0-1.2.8-1.9,1.7-1.9s.6.1.9.3v-.3h.5c.1,0,.2,0,.2.2v3.2c0,.8-.6,1.6-1.9,1.6s-1.3-.4-1.3-.9M172.18,72.98v-1.3c-.2-.2-.5-.3-.8-.3-.6,0-1.1.5-1.1,1.3s.3,1.1.9,1.1.8-.3,1-.8M170.68,74.38c-.2.2-.3.3-.3.6s.2.4.6.4,1.1-.4,1.1-1v-.5c-.2.4-.7.6-1.1.6s-.2,0-.4,0M171.38,70.08c.2,0,.3-.2.4-.5h.4c.1,0,.2,0,.2.1,0,.4-.3.8-.9.8s-.9-.3-.9-.8c.1,0,.3-.1.4-.1s.2,0,.2.1c0,.2.2.3.3.3M167.28,74.38c-.7,0-1.1-.3-1.1-1.2v-3.3h2.6c.1,0,.2,0,.2.2v.4h-1.9v1.3h1.5c.1,0,.2,0,.2.2v.4h-1.7v.7c0,.5,0,.6.4.6h1.5c.1,0,.2,0,.2.2v.4h-1.7s-.2.1-.2.1ZM163.68,71.18v.1c0,.1-.2.2-.3.3-.2-.1-.4-.2-.6-.2-.4,0-.7.2-.8.7v2.2h-.5c-.1,0-.2,0-.2-.2v-3.2h.5c.13,0,.2.07.2.2v.4c.2-.3.5-.6,1-.6s.4,0,.5.1c.1,0,.2.1.2.2M160.08,73.98c0,.2-.4.5-1,.5-1,0-1.7-.7-1.7-1.8s.8-1.8,1.7-1.8,1.4.5,1.4,1.2,0,.4-.1.5c0,.2-.2.3-.5.3h-1.8c0,.6.5.9,1.1.9s.6,0,.8-.2v.3M158.08,72.38h1.6v-.2c0-.4-.3-.7-.7-.7s-.9.3-1,.9M155.48,73.38v-3.7h.5c.13,0,.2.07.2.2v3.6c0,.3.1.4.4.4h.4v.3c0,.1-.2.4-.7.4s-.9-.4-.9-1M151.48,75.08c0-.3.2-.6.5-.8-.4-.2-.6-.7-.6-1.3v-2h.5c.13,0,.2.07.2.2v1.9c0,.6.2.9.7.9s.7-.1.9-.3v-2.6h.5c.1,0,.2,0,.2.2v3.3c0,.8-.6,1.6-1.7,1.6s-1.2-.4-1.2-.9M152.48,74.38c-.2.2-.3.3-.3.6s.2.4.6.4,1-.3,1-.9v-.5c-.3.3-.7.5-1.1.5h-.2v-.1ZM150.28,73.98c0,.2-.4.5-1,.5-1,0-1.7-.7-1.7-1.8s.8-1.8,1.7-1.8,1.4.5,1.4,1.2,0,.4-.1.5c0,.2-.2.3-.5.3h-1.8c0,.6.5.9,1.1.9s.6,0,.8-.2v.3M148.28,72.38h1.6v-.2c0-.4-.3-.7-.7-.7s-.9.3-1,.9M147.28,71.18v.1c0,.1-.2.2-.3.3-.2-.1-.4-.2-.6-.2-.4,0-.7.2-.8.7v2.2h-.5c-.1,0-.2,0-.2-.2v-3.2h.5c.13,0,.2.07.2.2v.4c.2-.3.5-.6,1-.6s.4,0,.5.1c.1,0,.2.1.2.2M142.88,70.08c0-.3.2-.4.4-.4s.4.2.4.4-.2.4-.4.4-.4-.2-.4-.4M142.98,70.98h.5c.13,0,.2.07.2.2v2.4c0,.2,0,.3.2.3h.2v.2c0,.1-.2.3-.5.3s-.6-.2-.6-.8v-2.6h0ZM140.38,69.88c1,0,1.5.5,1.5,1.2s-.3.8-.6,1c.5.1.8.5.8,1,0,.8-.6,1.3-1.6,1.3h-.6c-.7,0-1.1-.3-1.1-1.2v-3.3h1.6ZM139.48,70.48v1.3h.8c.6,0,.8-.2.8-.6s-.3-.6-.8-.6h-.8v-.1ZM140.48,73.78c.6,0,.8-.2.8-.7s-.3-.7-.9-.7h-.9v.7c0,.5,0,.6.4.6h.6v.1h0ZM134.88,70.08c0-.3.2-.4.4-.4s.4.2.4.4-.2.4-.4.4-.4-.2-.4-.4M134.98,70.98h.5c.13,0,.2.07.2.2v2.4c0,.2,0,.3.2.3h.2v.2c0,.1-.2.3-.5.3s-.6-.2-.6-.8v-2.6h0ZM132.88,73.38v-3.7h.5c.13,0,.2.07.2.2v3.6c0,.3.1.4.4.4h.4v.3c0,.1-.2.4-.7.4s-.9-.4-.9-1M131.78,73.48c0,.2,0,.3.2.3h.2v.2c0,.1-.2.3-.5.3s-.6-.2-.6-.8v-1.5c0-.4-.2-.6-.6-.6s-.6.1-.8.3v2.5h-.5c-.1,0-.2,0-.2-.2v-2.1c0-.4-.2-.6-.6-.6s-.6.1-.8.4v2.6h-.5c-.1,0-.2,0-.2-.2v-3.2h.5c.13,0,.2.07.2.2v.3c.2-.3.6-.4,1-.4s.7.2.9.5c.3-.3.7-.5,1.1-.5.6,0,1.1.4,1.1,1.2v1.4l.1-.1h0ZM123.98,74.38c-.1,0-.2,0-.3-.1,0,0-.1-.2-.1-.4l1.7-2.4h-1.5c-.1,0-.2,0-.2-.2v-.4h2.1c.1,0,.2,0,.3.1,0,0,.1.2.1.3l-1.7,2.4h1.6c.1,0,.2,0,.2.2v.4h-2.3s.1.1.1.1ZM121.88,70.08c0-.3.2-.4.4-.4s.4.2.4.4-.2.4-.4.4-.4-.2-.4-.4M121.98,70.98h.5c.13,0,.2.07.2.2v2.4c0,.2,0,.3.2.3h.2v.2c0,.1-.2.3-.5.3s-.6-.2-.6-.8v-2.6h0ZM119.28,73.18v-1.7h-.4c-.1,0-.2,0-.2-.2v-.4h.5v-1h.5c.13,0,.2.07.2.2v.9h1c.1,0,.2,0,.2.2v.4h-1.2v1.7c0,.4.2.6.6.6h.5v.3c0,.2-.3.4-.8.4s-1.1-.4-1.1-1.2M116.08,69.78c1.2,0,2.1.8,2.1,2.3s-1,2.3-2.1,2.3-2.1-.8-2.1-2.3,1-2.3,2.1-2.3M116.08,70.38c-.7,0-1.3.5-1.3,1.6s.6,1.7,1.4,1.7,1.3-.5,1.3-1.6-.6-1.7-1.4-1.7M111.18,72.88c0,.9-.6,1.5-1.5,1.5s-1.5-.6-1.5-1.5v-2h.5c.13,0,.2.07.2.2v1.9c0,.6.4.9.8.9s.8-.3.8-.9v-2h.5c.1,0,.2,0,.2.2v1.8-.1ZM106.28,73.38v-3.7h.5c.13,0,.2.07.2.2v3.6c0,.3.1.4.4.4h.4v.3c0,.1-.2.4-.6.4s-.9-.4-.9-1M102.68,74.38c-.1,0-.2,0-.2-.2v-4.5h.5c.13,0,.2.07.2.2v2.7c.6-.3,1.3-1,1.7-1.6.4.1.5.2.5.4s0,0,0,.2c-.1.3-.6.7-1.1,1.1.2.4.6.8.9,1.1.2.2.3.2.4.2h.1v.2c0,.1-.2.3-.5.3s-.5-.1-.8-.5c-.3-.3-.5-.7-.7-1l-.4.2v1.2h-.6ZM101.58,72.88c0,.9-.6,1.5-1.5,1.5s-1.5-.6-1.5-1.5v-2h.5c.13,0,.2.07.2.2v1.9c0,.6.4.9.8.9s.8-.3.8-.9v-2h.5c.1,0,.2,0,.2.2v1.8-.1ZM96.08,74.88l.2-.5c-.8-.2-1.5-.8-1.5-1.8s.7-1.7,1.7-1.7,1.1.3,1.3.7v.2c0,.07-.03.13-.1.2-.1,0-.3.1-.5.1,0-.3-.4-.6-.8-.6s-.9.4-.9,1.1.6,1.3,1.3,1.3.6,0,.8-.2v.3c0,.2-.3.4-.8.5l-.2.3c.3,0,.5.2.5.5s-.3.6-.8.6h-.5v-.3s0-.1.1-.1h.3c.2,0,.3,0,.3-.2s-.1-.3-.5-.3h0M92.98,73.38v-3.7h.5c.13,0,.2.07.2.2v3.6c0,.3.1.4.4.4h.4v.3c0,.1-.2.4-.7.4s-.9-.4-.9-1M91.88,73.98c0,.2-.4.5-1,.5-1,0-1.7-.7-1.7-1.8s.8-1.8,1.7-1.8,1.4.5,1.4,1.2,0,.4-.1.5c-.1.2-.2.3-.5.3h-1.8c0,.6.5.9,1.1.9s.6,0,.8-.2v.3M89.88,72.38h1.6v-.2c0-.4-.3-.7-.7-.7s-.9.3-1,.9M88.28,70.48v.2s0,.1-.1.2c-.1,0-.3.1-.5.1-.1-.4-.4-.6-.9-.6s-.8.2-.8.6.3.6,1.1.8c.9.2,1.3.7,1.3,1.3s-.6,1.2-1.6,1.2-1.3-.3-1.3-.5v-.3c.3.1.7.2,1.1.2.6,0,.9-.2.9-.6s-.2-.5-.8-.7c-.9-.3-1.5-.7-1.5-1.5s.6-1.3,1.5-1.3,1.2.4,1.4.7M202.98,70.98h.5c.13,0,.2.07.2.2v2.4c0,.2,0,.3.2.3h.2v.2c0,.1-.2.3-.5.3s-.6-.2-.6-.8v-2.6h0Z"/>
  <path class="cls-1" d="M72.08,19.88c1.8.2,3.5.9,4.8,2.2,1.9,1.9,2.5,4.3,2.1,6.9-.7,4-1.5,7.9-2.3,11.8l-3.4,17.1c-.8,4-2.2,7.7-4.3,11.2-4.1,6.9-10,11.4-17.9,13-4.2.9-8.4.7-12.6.1-5.3-.8-10.1-2.5-14.6-5.4-6-3.9-10.5-9.3-14.2-15.4-2.7-4.5-5.1-9.2-7.3-14-.7-1.6-1.7-3.1-2.1-4.9-.4-1.6-.4-3.2.2-4.8.9-2.4,2.7-4,5-5,2.3-1.1,4.7-.9,7,.1,1.6.7,2.9,1.8,4.1,2.9.9.8,1.7,1.8,2.3,2.8.9,1.3,1.6,2.6,2.4,4,.4.7.7,1.5,1.1,2.2.7,1.2,2,2.3,3.5,1.7.3-.1.8,0,1.2,0,1,.3,1.5,1.1,1.5,2.1,0,.9-.6,1.6-1.5,2-1.9.7-2.8.3-4.6-.4-2.4-1-4-2.9-4.9-5.3-1.2-3-3.1-5.5-5.8-7.3-.7-.5-1.6-.8-2.5-1-1.6-.3-2.8.6-3.9,1.6-.9.8-1.2,1.9-1,3.1.2.7.4,1.5.7,2.2,2.1,4.2,4.2,8.4,6.4,12.6,2.2,4.3,4.9,8.3,8.2,11.9,4.2,4.5,9.2,7.8,15.3,9.4,3.8,1,7.8,1.5,11.7,1.2,7-.5,12.7-3.4,16.9-9.1,2.7-3.7,4.5-7.9,5.4-12.4,1.7-8.7,3.5-17.4,5.2-26.1.2-1,.4-2,.5-2.9.1-1.5-.5-2.7-1.8-3.3-.6-.2-1.2-.4-1.8-.5-2-.3-3.3,1-3.6,2.5l-.3,1.3-.2,1.3v.7c-.7,2.9-1.3,5.8-1.9,8.7-.3,1.6-1.8,2.4-3.2,1.6-.9-.5-1.3-1.4-1.1-2.6l4.4-22.1c0-.2,0-.4.1-.6.3-1.7-.4-3.1-1.7-3.7-.5-.2-1-.4-1.6-.5-1.7-.3-2.9.3-3.6,1.8-.2.4-.3.8-.4,1.3-1.6,8.1-1.9,9.7-3.5,17.8,0,.4-.1.7-.2,1.1-.2,1-1.3,1.7-2.4,1.6-1-.1-1.9-1.1-1.9-2.1,0-.3,0-.6.1-.9l4.3-21.8c0-.4.1-.9.2-1.3.1-1.5-.6-2.9-1.9-3.4-.6-.2-1.2-.4-1.8-.5-1.3-.2-2.4.3-3,1.5-.3.6-.6,1.3-.7,1.9-1.7,8.4-2,10.2-3.7,18.6-.2,1.2-.5,2.5-.8,3.7-.2.9-1.1,1.4-2,1.4-1.4,0-2.4-1.2-2.1-2.7l3.1-15.7c.4-2.2-.4-3.7-2.5-4.3-2.2-.6-3.5,0-4.4,1.8-.2.4-.3.9-.4,1.3l-6.1,30.7c-.2,1.1-1.1,1.9-2.3,1.8-.8,0-2-.9-2-1.9s0-.7.1-1.1c2-10.1,4-20.2,6-30.4.2-.8.4-1.6.7-2.3,1.5-3.4,4.7-5.1,8.3-4.4,1.4.3,2.8.7,4,1.6.2-.4.3-.8.4-1.1,1.1-2.5,2.9-4.2,5.6-4.7,1.4-.2,2.8,0,4.1.3,2.9.9,4.8,2.7,5.5,5.7v.6c1.9-.5,3.7-.4,5.4.2,1.9.6,3.4,1.6,4.4,3.3,1.1,1.9,1.3,4,.9,6.2l-.7,3.4c1.1,0,2.2,0,3.2.1M50.58,53.58c-.5-.9-1.1-1.7-1.6-2.6-.6-1.1-.9-2.2-.7-3.5.1-.9.5-1.7,1.2-2.3,1.8-1.6,4.7-1.1,5.7,1.1,0,.2.1.3.2.5,1.3-.9,2.4-1.1,3.6-.7,1.1.4,1.9,1.1,2.2,2.2.4,1,.2,2-.2,2.9-.5,1-1.2,1.8-2.2,2.3-.8.4-1.6.8-2.4,1.2-.9.4-1.7.8-2.5,1.3-.5.3-1,.7-1.6,1.1-.1-.3-.2-.7-.4-1-.4-1-.9-1.8-1.4-2.7M36.98,50.28c-.5-.8-1.1-1.6-1.6-2.4-.5-.7-1.1-1.4-1.5-2.2-.6-.9-.9-1.9-.8-3.1,0-1,.4-2,1.2-2.7.9-.8,1.9-1.1,3-.9,1.2.2,2.1.9,2.7,2h.5c1.9-1.6,4.8-.7,5.6,1.5.3.9.3,1.7,0,2.6-.4,1.2-1.2,2.1-2.2,2.7-.9.6-1.7,1.1-2.6,1.6s-1.7,1.1-2.5,1.8l-.8.8c-.3-.6-.6-1.2-.9-1.7M30.38,65.48l1.4.7c.9.4,1.9.9,2.9,1.2.5.2,1.1.4,1.7.5h.4c0,.1.4.2.4.2l.9.2c1.1.3,2.3.5,3.5.7,1.2.1,2.2.3,3.5.4h3.4c.5,0,1.1,0,1.6-.2.5,0,1-.2,1.5-.3l1.4-.4c.5-.1.9-.3,1.3-.5.2,0,.4-.1.6-.2l.6-.3c.4-.2.7-.3,1.1-.5.6-.4,1.2-.7,1.7-1,.9-.7,1.5-1,1.5-1,0,0-.3.6-.9,1.6-.3.5-.8,1-1.3,1.7l-.9.9-.5.5c-.2.2-.4.3-.6.5-.4.3-.9.6-1.4.9s-1,.5-1.6.8c-.6.2-1.1.4-1.7.6s-1.2.3-1.9.5c-.6.2-1.3.2-2,.3h-2c-1.2,0-2.7-.1-4.1-.3-1.3-.3-2.7-.5-3.9-1l-.9-.3h-.4c0-.1-.6-.4-.6-.4-.6-.3-1.1-.4-1.7-.8-1.2-.6-2.2-1.3-3.2-2-.5-.4-.9-.7-1.3-1.1l-1.1-1.1c-.7-.7-1.3-1.4-1.8-2.1s-.9-1.2-1.2-1.7c-.6-1-.9-1.6-.9-1.6,0,0,.6.4,1.5,1,.4.3,1,.7,1.7,1.1.3.2.7.4,1,.6.4.2.7.5,1.1.7l1.2.7v.5h0Z"/>
</svg>