<?xml version="1.0" encoding="UTF-8"?>
<svg id="katman_1" data-name="katman 1" xmlns="http://www.w3.org/2000/svg" viewBox="0 0 132.2 138.21">
  <defs>
    <style>
      .cls-1 {
        fill: #009596;
        stroke-width: 0px;
      }
    </style>
  </defs>
  <path class="cls-1" d="m120.47,33.23c3.01.33,5.85,1.5,8.02,3.68,3.18,3.18,4.18,7.19,3.51,11.53-1.17,6.69-2.51,13.2-3.84,19.72l-5.68,28.58c-1.34,6.69-3.68,12.87-7.19,18.72-6.85,11.53-16.71,19.05-29.92,21.73-7.02,1.5-14.04,1.17-21.06.17-8.86-1.34-16.88-4.18-24.4-9.03-10.03-6.52-17.55-15.54-23.73-25.74-4.51-7.52-8.52-15.38-12.2-23.4-1.17-2.67-2.84-5.18-3.51-8.19-.67-2.67-.67-5.35.33-8.02,1.5-4.01,4.51-6.69,8.36-8.36,3.84-1.84,7.86-1.5,11.7.17,2.67,1.17,4.85,3.01,6.85,4.85,1.5,1.34,2.84,3.01,3.84,4.68,1.5,2.17,2.67,4.35,4.01,6.69.67,1.17,1.17,2.51,1.84,3.68,1.17,2.01,3.34,3.84,5.85,2.84.5-.17,1.34,0,2.01,0,1.67.5,2.51,1.84,2.51,3.51,0,1.5-1,2.67-2.51,3.34-3.18,1.17-4.68.5-7.69-.67-4.01-1.67-6.69-4.85-8.19-8.86-2.01-5.01-5.18-9.19-9.69-12.2-1.17-.84-2.67-1.34-4.18-1.67-2.67-.5-4.68,1-6.52,2.67-1.5,1.34-2.01,3.18-1.67,5.18.33,1.17.67,2.51,1.17,3.68,3.51,7.02,7.02,14.04,10.7,21.06,3.68,7.19,8.19,13.87,13.71,19.89,7.02,7.52,15.38,13.04,25.57,15.71,6.35,1.67,13.04,2.51,19.55,2.01,11.7-.84,21.23-5.68,28.25-15.21,4.51-6.18,7.52-13.2,9.03-20.72,2.84-14.54,5.85-29.08,8.69-43.62.33-1.67.67-3.34.84-4.85.17-2.51-.84-4.51-3.01-5.52-1-.33-2.01-.67-3.01-.84-3.34-.5-5.52,1.67-6.02,4.18l-.5,2.17-.33,2.17v1.17c-1.17,4.85-2.17,9.69-3.18,14.54-.5,2.67-3.01,4.01-5.35,2.67-1.5-.84-2.17-2.34-1.84-4.35l7.35-36.94c0-.33,0-.67.17-1,.5-2.84-.67-5.18-2.84-6.18-.84-.33-1.67-.67-2.67-.84-2.84-.5-4.85.5-6.02,3.01-.33.67-.5,1.34-.67,2.17-2.67,13.54-3.18,16.21-5.85,29.75,0,.67-.17,1.17-.33,1.84-.33,1.67-2.17,2.84-4.01,2.67-1.67-.17-3.18-1.84-3.18-3.51,0-.5,0-1,.17-1.5l7.19-36.44c0-.67.17-1.5.33-2.17.17-2.51-1-4.85-3.18-5.68-1-.33-2.01-.67-3.01-.84-2.17-.33-4.01.5-5.01,2.51-.5,1-1,2.17-1.17,3.18-2.84,14.04-3.34,17.05-6.18,31.09-.33,2.01-.84,4.18-1.34,6.18-.33,1.5-1.84,2.34-3.34,2.34-2.34,0-4.01-2.01-3.51-4.51l5.18-26.24c.67-3.68-.67-6.18-4.18-7.19-3.68-1-5.85,0-7.35,3.01-.33.67-.5,1.5-.67,2.17l-10.2,51.31c-.33,1.84-1.84,3.18-3.84,3.01-1.34,0-3.34-1.5-3.34-3.18s0-1.17.17-1.84c3.34-16.88,6.69-33.76,10.03-50.81.33-1.34.67-2.67,1.17-3.84,2.51-5.68,7.86-8.52,13.87-7.35,2.34.5,4.68,1.17,6.69,2.67.33-.67.5-1.34.67-1.84,1.84-4.18,4.85-7.02,9.36-7.86,2.34-.33,4.68,0,6.85.5,4.85,1.5,8.02,4.51,9.19,9.53v1c3.18-.84,6.18-.67,9.03.33,3.18,1,5.68,2.67,7.35,5.52,1.84,3.18,2.17,6.69,1.5,10.36l-1.17,5.68c1.84,0,3.68,0,5.35.17m-35.6,56.32c-.84-1.5-1.84-2.84-2.67-4.35-1-1.84-1.5-3.68-1.17-5.85.17-1.5.84-2.84,2.01-3.84,3.01-2.67,7.86-1.84,9.53,1.84,0,.33.17.5.33.84,2.17-1.5,4.01-1.84,6.02-1.17,1.84.67,3.18,1.84,3.68,3.68.67,1.67.33,3.34-.33,4.85-.84,1.67-2.01,3.01-3.68,3.84-1.34.67-2.67,1.34-4.01,2.01-1.5.67-2.84,1.34-4.18,2.17-.84.5-1.67,1.17-2.67,1.84-.17-.5-.33-1.17-.67-1.67-.67-1.67-1.5-3.01-2.34-4.51m-22.56-5.18c-.84-1.34-1.84-2.67-2.67-4.01-.84-1.17-1.84-2.34-2.51-3.68-1-1.5-1.5-3.18-1.34-5.18,0-1.67.67-3.34,2.01-4.51,1.5-1.34,3.18-1.84,5.01-1.5,2.01.33,3.51,1.5,4.51,3.34h.84c3.18-2.67,8.02-1.17,9.36,2.51.5,1.5.5,2.84,0,4.35-.67,2.01-2.01,3.51-3.68,4.51-1.5,1-2.84,1.84-4.35,2.67s-2.84,1.84-4.18,3.01l-1.34,1.34c-.5-1-1-2.01-1.5-2.84m-11.2,25.4l2.34,1.17c1.5.67,3.18,1.5,4.85,2.01.84.33,1.84.67,2.84.84h.67c0,.17.67.33.67.33l1.5.33c1.84.5,3.84.84,5.85,1.17,2.01.17,3.68.5,5.85.67h5.68c.84,0,1.84,0,2.67-.33.84,0,1.67-.33,2.51-.5l2.34-.67c.84-.17,1.5-.5,2.17-.84.33,0,.67-.17,1-.33l1-.5c.67-.33,1.17-.5,1.84-.84,1-.67,2.01-1.17,2.84-1.67,1.5-1.17,2.51-1.67,2.51-1.67,0,0-.5,1-1.5,2.67-.5.84-1.34,1.67-2.17,2.84l-1.5,1.5-.84.84c-.33.33-.67.5-1,.84-.67.5-1.5,1-2.34,1.5s-1.67.84-2.67,1.34c-1,.33-1.84.67-2.84,1s-2.01.5-3.18.84c-1,.33-2.17.33-3.34.5h-3.34c-2.01,0-4.51-.17-6.85-.5-2.17-.5-4.51-.84-6.52-1.67l-1.5-.5h-.67c0-.17-1-.67-1-.67-1-.5-1.84-.67-2.84-1.34-2.01-1-3.68-2.17-5.35-3.34-.84-.67-1.5-1.17-2.17-1.84l-1.84-1.84c-1.17-1.17-2.17-2.34-3.01-3.51s-1.5-2.01-2.01-2.84c-1-1.67-1.5-2.67-1.5-2.67,0,0,1,.67,2.51,1.67.67.5,1.67,1.17,2.84,1.84.5.33,1.17.67,1.67,1,.67.33,1.17.84,1.84,1.17l2.01,1.17v.84Z"/>
</svg>