<?xml version="1.0" encoding="UTF-8"?>
<svg id="Layer_1" data-name="Layer 1" xmlns="http://www.w3.org/2000/svg" viewBox="0 0 613.04 553.83">
  <defs>
    <style>
      .cls-1 {
        fill: #797979;
        stroke-width: 0px;
      }
    </style>
  </defs>
  <path class="cls-1" d="m39.57,474.72v-8.86c0-150.17,0-300.34,0-450.52,0-12.95,2.41-15.32,15.57-15.32,10.5,0,21.01-.04,31.51.01,8.79.05,12.21,3.52,12.23,12.47.04,19.78.01,39.55.01,59.33,0,2.22,0,4.43,0,6.97h40.64c4.93-14.66,14.4-24.72,29.84-28.28,19.14-4.41,37.89,5.54,45.39,24.23,1.23,3.07,2.41,4.49,6.02,4.48,41.19-.15,82.38-.1,123.57-.11.82,0,1.63-.12,2.66-.2,6.56-18.25,19.03-29.4,38.96-29.29,19.82.11,31.99,11.69,39.18,31.59,7.16-19.83,19.31-31.44,39.1-31.58,19.92-.14,32.49,10.89,39.01,29.33h10.88v-6.6c0-19.98-.03-39.96.01-59.95.02-8.91,3.44-12.35,12.29-12.39,11.12-.06,22.24-.03,33.36-.01,10.55.01,13.65,3.07,13.65,13.54,0,66.54,0,133.07,0,199.61,0,84.46,0,168.92,0,253.38v8.17c9.12,0,17.89-.03,26.66,0,9.62.04,12.87,3.31,12.88,13.07.03,17.92.05,35.84,0,53.77-.03,8.81-3.53,12.26-12.44,12.27-196.06.02-392.12.02-588.18,0-8.86,0-12.32-3.48-12.34-12.35-.05-18.13-.05-36.25,0-54.38.02-8.89,3.46-12.3,12.33-12.35,8.82-.05,17.64-.01,27.2-.01Zm59.58-.43h415v-78.69c-13.13,0-25.27,0-37.41,0-1.01,0-2.02.14-3.06.21-.49,1.05-.97,1.95-1.35,2.9-6.49,16.4-20.16,26.31-36.59,26.53-16.85.22-31.07-9.28-37.6-25.88-1.59-4.05-4.02-3.8-7.12-3.8-39.94.02-79.89.01-119.83.03-1.78,0-3.57.19-5.27.28-6.81,18.74-19.54,29.5-39.44,29.2-19.69-.29-31.52-12.28-38.78-31.4-7.44,20.65-20.26,31.98-40.73,31.37-19.04-.56-30.97-11.62-37.16-29.13h-10.67v78.35Zm.26-375.16v78.38c.6.2.97.43,1.34.43,47.97.04,95.94.02,143.91.18,3.64.01,4.25-1.99,5.29-4.58,6.28-15.54,20.59-25.21,36.93-25.17,16.31.05,30.48,9.84,36.81,25.41.62,1.53,1.42,3,2.87,6.06,6.93-19.98,19.36-31.21,39.18-31.31,20.08-.11,32.37,11.59,39.76,31.74,6.97-20.25,19.35-31.58,39.11-31.73,19.91-.15,32.39,11.05,38.85,29.09h30.25v-78.55h-10.4c-6.61,18.39-19.13,29.48-39.05,29.33-19.78-.15-31.9-11.8-39.11-31.56-7.19,19.87-19.36,31.45-39.16,31.56-19.91.11-32.39-11.05-38.95-29.27h-130.53c-6.47,18.29-18.91,29.25-38.52,29.25-19.62,0-32-11.04-38.55-29.26h-40.02Zm414.3,177.64v-78.8h-30.18c-6.56,18.35-19.07,29.46-38.99,29.33-19.79-.13-31.96-11.72-39.14-31.56-7.3,20.06-19.65,31.63-39.74,31.58-20.02-.05-32.15-11.92-39.55-31.7-7.02,20.43-19.51,31.63-39.34,31.67-19.87.04-32.21-11.35-38.57-28.99H98.89v78.62c9.07,0,17.47-.17,25.86.08,3.63.11,5.24-1.03,6.61-4.53,6.12-15.62,20.52-25.25,36.85-25.21,16.32.04,30.51,9.84,36.82,25.39.62,1.54,1.41,3.01,2.81,5.97,7.08-19.73,19.36-31.12,39.23-31.2,20.08-.08,32.4,11.56,39.67,31.54,7.19-19.86,19.38-31.41,39.19-31.53,19.92-.12,32.4,11.03,38.95,29.34h148.82Zm-226.94,17.74c-7.38,20.34-19.8,31.8-39.93,31.71-19.97-.09-31.99-12.08-39.38-31.4-7.44,20.65-20.27,31.96-40.74,31.35-19.04-.57-30.96-11.64-37.14-29.11h-30.29v78.41h10.44c8.68-20.2,21.5-29.86,39.52-29.23,19.72.69,31.52,12.37,38.75,31.45,7.47-20.56,20.24-31.92,40.72-31.34,19.05.55,30.99,11.57,37.24,29.28h130.27c.31-.45.62-.77.75-1.14,6.21-17.22,18.22-27.55,36.64-28.12,18.92-.58,31.92,8.94,38.87,26.64.44,1.11,1.79,2.64,2.74,2.66,12.87.18,25.75.12,38.6.12v-78.78h-149.05c-6.1,17.39-17.86,28.38-36.6,29.14-20.74.85-33.74-10.53-41.42-31.64ZM20.1,533.64h572.67v-38.85H20.1v38.85Zm58.59-59.21V20.31h-19.02v454.13h19.02ZM534.35,20.09v454.13h19.04V20.09h-19.04ZM177.93,108.76c10.78.03,19.68-8.75,19.79-19.53.12-11.02-8.93-20.05-19.99-19.96-10.65.09-19.58,9.19-19.49,19.86.09,10.81,8.91,19.6,19.69,19.63Zm207.72,0c10.77-.02,19.64-8.84,19.7-19.62.07-11.02-9.02-20.01-20.08-19.87-10.65.14-19.54,9.28-19.4,19.95.14,10.81,9,19.56,19.78,19.55Zm98.8-19.55c.11-10.78-8.59-19.72-19.39-19.94-10.66-.22-19.88,8.61-20.1,19.25-.23,11.07,8.68,20.22,19.71,20.24,10.78.02,19.67-8.77,19.78-19.55Zm-197.61,118.46c10.8-.08,19.61-8.92,19.64-19.69.03-11.02-9.13-20.02-20.14-19.79-10.79.23-19.43,9.15-19.34,19.98.09,10.65,9.18,19.59,19.84,19.51Zm78.96,0c10.8-.01,19.68-8.79,19.78-19.56.1-11.02-9-20.09-20.01-19.93-10.8.16-19.5,9.02-19.48,19.85.02,10.66,9.04,19.65,19.71,19.64Zm78.83,0c10.8.13,19.8-8.53,20.05-19.29.25-11.01-8.74-20.22-19.74-20.21-10.8.01-19.62,8.77-19.74,19.58-.12,10.66,8.78,19.78,19.44,19.91Zm-256.79,79.66c.3-10.68-8.42-19.96-19.07-20.27-10.8-.32-19.96,8.17-20.41,18.92-.45,11.01,8.36,20.38,19.36,20.57,10.77.19,19.81-8.44,20.12-19.22Zm59.14-20.27c-10.8.15-19.56,9.04-19.53,19.81.03,11.02,9.24,19.96,20.26,19.68,10.76-.27,19.39-9.3,19.23-20.1-.16-10.67-9.28-19.53-19.96-19.38Zm99.06,19.56c-.07-10.68-9.1-19.62-19.78-19.56-10.81.05-19.65,8.86-19.71,19.63-.07,11.02,9.05,20.04,20.08,19.86,10.77-.18,19.48-9.12,19.41-19.92Zm-197.66,118.82c10.78-.03,19.61-8.84,19.69-19.64.08-10.69-8.82-19.76-19.49-19.85-11.05-.1-20.11,8.95-19.99,19.96.11,10.77,9.02,19.56,19.79,19.53Zm79.27-39.49c-10.8-.08-19.77,8.61-19.97,19.37-.21,11.02,8.8,20.17,19.82,20.12,10.78-.04,19.6-8.86,19.67-19.66.07-10.69-8.84-19.75-19.52-19.83Zm207.61,0c-10.8-.07-19.76,8.63-19.95,19.39-.2,11.02,8.82,20.16,19.84,20.1,10.78-.05,19.59-8.88,19.65-19.68.06-10.69-8.86-19.74-19.54-19.81Z"/>
  <path class="cls-1" d="m79.74,504.39c12.36,0,24.71-.05,37.07.02,7.26.04,11.7,3.88,11.69,9.87,0,5.98-4.45,9.85-11.71,9.87-25.13.05-50.25.06-75.38,0-7.28-.02-11.69-3.87-11.68-9.88,0-6.03,4.39-9.81,11.7-9.86,12.77-.07,25.54-.02,38.31-.02Z"/>
  <path class="cls-1" d="m152.7,524.1c-1.65,0-3.31.15-4.94-.03-5.47-.58-9.24-4.6-9.27-9.75-.03-5.15,3.72-9.36,9.16-9.82,3.48-.3,7-.25,10.49-.05,5.89.33,9.87,4.38,9.9,9.77.03,5.37-3.94,9.45-9.79,9.9-1.84.14-3.7.02-5.56.02,0-.01,0-.02,0-.03Z"/>
</svg>