<?xml version="1.0" encoding="UTF-8"?>
<svg id="Layer_1" data-name="Layer 1" xmlns="http://www.w3.org/2000/svg" viewBox="0 0 615.18 715.22">
  <defs>
    <style>
      .cls-1 {
        fill: #797979;
        stroke-width: 0px;
      }
    </style>
  </defs>
  <path class="cls-1" d="m93.55,715.22c-19.4-14.95-29.47-35.58-34.83-58.72-6.05-26.09-2.74-51.35,8.62-75.58.76-1.62,1.4-3.3,2.34-5.54-9,0-17.42.65-25.67-.25-4.7-.51-10.3-2.4-13.48-5.65-40.69-41.51-40.71-114.62,0-155.97,3.3-3.36,9.33-5.62,14.13-5.67,38.68-.45,77.37-.25,116.06-.25,2.51,0,5.02,0,8.78,0-1.52-1.81-2.23-2.82-3.1-3.68-39-38.94-52.71-86.69-48.19-140.43,2.88-34.25,14.88-65.13,36.91-91.85,29.6-35.9,77.25-55.04,125.98-36.6.6.23,1.29.24,2.62.47-1.98-13.09-7.5-24.12-15.87-33.71-13.23-15.16-30.08-23.11-50.16-24.13-10.79-.55-16.87-5.92-16.46-14.76.39-8.5,6.78-13.54,17.15-13.19,16.85.57,32.53,5.26,47.02,13.91,1.93,1.15,3.91,2.23,6.32,3.6,1.01-4.92,1.69-9.23,2.78-13.43,7.83-30.4,29.29-49.34,61.22-52.92,11.25-1.26,22.74-.91,34.09-.41,7.11.31,11.2,5.19,12.13,12.3,2.49,19.06.82,37.73-6.45,55.57-10.51,25.79-31.47,37.42-57.75,41.43-3.66.56-7.34,1.01-11.06,1.53,2.09,8.36,4.1,16.39,6.14,24.51,8.34-2.13,16.71-5.09,25.33-6.34,44.69-6.46,79.79,11.02,107.13,45.21,52.38,65.53,46.59,173.23-14.47,229.96-.62.58-1.12,1.29-2.55,2.97,3.57,0,6.01,0,8.45,0,35.42,0,70.85.04,106.27-.04,6.94-.02,12.34,2.22,15.14,8.9,3.7,8.81-2.33,18.31-12.27,18.98-5.8.39-11.69-.32-17.45.31-2.78.3-6.22,1.88-7.88,4.03-22.8,29.5-22.8,73.94.04,103.45,1.75,2.26,5.63,3.98,8.55,4.02,23.07.33,46.14.15,69.21.19,10.23.02,16.66,5.31,16.84,13.68.18,8.62-6.43,14.18-16.97,14.27-1.63.01-3.32.29-4.88-.04-11.9-2.51-18.27,3.72-23.18,13.58-16.21,32.48-14.49,63.64,5.82,93.81,2.36,3.5,5.03,4.92,9.22,4.6,4.63-.35,9.32-.13,13.98-.07,8.33.11,13.6,3.66,15.52,10.36,1.79,6.24-.87,11.85-7.69,16.26-.56.36-1.02.88-1.52,1.33H93.55Zm359.22-433.16c0-2.56.14-5.13-.03-7.69-.28-4.18-.61-8.37-1.17-12.52-4.49-33.12-16.88-62.39-42.51-84.85-29.09-25.48-66.8-28.21-98.72-7-8.19,5.44-15.06,5.35-22.99-.21-12.47-8.75-26.57-13.51-41.87-13.8-30.47-.58-53.59,13.77-71.67,36.99-38.32,49.22-38.22,128.22-.04,177.55,29.82,38.53,76.78,49.35,116.61,21.35,6.1-4.29,12.07-3.43,18.19.5,37.36,23.98,77.62,19.19,108.09-13.18,25.62-27.22,35.3-60.6,36.11-97.14Zm92.43,293.81H237.55c0,9.53.32,18.6-.08,27.64-.49,11.19-11.86,17.36-21.08,11.63-2.34-1.45-4.32-3.53-6.29-5.5-9.34-9.35-18.62-18.75-28.42-28.65-10.49,10.54-20.34,20.39-30.12,30.3-4.74,4.8-9.98,7.76-16.86,4.98-7.06-2.85-9.21-8.54-9.04-15.72.19-8.28.05-16.57.05-25.16-5.2,0-9.43.45-13.53-.1-6.42-.87-10.15,1.95-13.58,7.08-19.89,29.74-19.73,69.46.52,98.67,3,4.32,6.16,6.38,11.85,6.37,142.12-.2,284.24-.16,426.36-.16h8.09c-18.62-37.49-18.69-74.2-.22-111.39Zm-419.68-70.45c-9.8,0-19.07.27-28.32-.08-7.96-.3-13.58-6.6-13.42-14.15.15-7.27,5.68-12.96,13.32-13.6,1.85-.16,3.73-.07,5.59-.07,99.27,0,198.55,0,297.82,0,2.1,0,4.22-.12,6.29.13,7.14.87,12.44,6.73,12.53,13.67.09,6.93-5.11,12.98-12.2,13.97-2.29.32-4.65.18-6.98.19-51.5,0-103,0-154.5,0h-7.6v41.4h251.16c-18.45-37.24-18.34-73.96.12-111.07-2.22-.11-3.77-.24-5.32-.24-143.55,0-287.1.01-430.66-.11-4.28,0-6.7,1.55-9.11,4.84-21.94,29.91-21.83,72.86.19,102.66,2.5,3.38,5.09,4.61,9.24,4.57,21.9-.2,43.81-.08,65.72-.11,2,0,4-.26,6.12-.41v-41.57Zm83.76.43h-55.18v63.79c5.27-5.47,9.34-9.83,13.55-14.05,11.11-11.14,16.84-11.1,28.01.03,4.27,4.26,8.55,8.49,13.62,13.53v-63.31ZM354.32,27.92c-33.73-4.53-62.08,24.29-54.14,55.02,35.55-.32,55.31-14.15,54.14-55.02Z"/>
  <path class="cls-1" d="m422.62,261.61c-.1,7.55-4.82,13.17-11.55,14.34-6.51,1.13-13.03-2.71-15.36-9.32-1.62-4.59-2.54-9.44-4.37-13.94-7.44-18.32-19.74-31.78-38.9-38.33-9.18-3.14-13.29-10.38-10.75-18.13,2.66-8.11,10.45-11.56,19.92-8.19,33.4,11.86,52.19,36.48,60.58,70.02.34,1.34.34,2.76.43,3.55Z"/>
  <path class="cls-1" d="m363.57,617.34c30.73,0,61.46,0,92.18,0,1.86,0,3.73-.08,5.59.04,8,.5,13.82,6.27,13.93,13.73.12,7.72-5.87,13.69-14.23,14.16-1.39.08-2.79.03-4.19.03-62.39,0-124.77,0-187.16,0-1.86,0-3.74.09-5.58-.14-7.18-.89-12.4-6.65-12.5-13.65-.11-7.26,5.31-13.27,12.8-14.07,2.07-.22,4.19-.11,6.28-.11,30.96,0,61.92,0,92.88,0Z"/>
</svg>