<?xml version="1.0" encoding="UTF-8"?>
<svg id="Layer_1" data-name="Layer 1" xmlns="http://www.w3.org/2000/svg" viewBox="0 0 665.01 663.54">
  <defs>
    <style>
      .cls-1 {
        fill: #fff;
        stroke-width: 0px;
      }
    </style>
  </defs>
  <path class="cls-1" d="m404.59,569.84c0,3.22,0,5.59,0,7.96,0,22.58-.05,45.16.03,67.74.03,6.59-.36,12.9-7.06,16.45-6.71,3.55-12.04.37-17.46-3.52-39.32-28.25-78.67-56.46-118.21-84.41-3.44-2.43-8.29-4.03-12.5-4.05-64-.25-128.01-.17-192.01-.18-34.78,0-57.36-22.39-57.37-57C0,360.69,0,208.55.02,56.41.03,27.95,16.56,6.51,42.78,1.05,47.23.12,51.92.05,56.5.05,196.79,0,337.07-.01,477.36.02c34.57,0,56.5,22.12,56.54,56.83.03,23.9,0,47.79,0,71.69,0,2.11,0,4.21,0,7.57,2.38-2.07,3.86-3.21,5.17-4.51,12.58-12.53,25.07-25.16,37.69-37.64,17.42-17.21,39.64-17.15,57.13.08,6.09,6,12.09,12.09,18.1,18.17,17.43,17.67,17.37,39.92-.25,57.57-78.85,78.95-157.73,157.86-236.6,236.78-8.99,8.99-17.83,18.14-27.06,26.88-2.74,2.6-6.32,4.95-9.92,5.91-24.53,6.53-49.14,12.74-73.77,18.88-12.86,3.21-20.6-4.81-17.17-17.64,6.39-23.89,12.67-47.81,19.47-71.58,1.25-4.38,4.03-8.8,7.27-12.05,62.79-63.07,125.73-126,188.74-188.84,3.5-3.49,5.12-6.92,5.09-11.98-.23-33.32-.09-66.64-.13-99.96-.02-19.65-10.82-30.5-30.53-30.5-140.29-.03-280.57-.03-420.86,0-19.69,0-30.44,10.87-30.45,30.58-.02,152.36-.02,304.72,0,457.08,0,19.85,10.58,30.44,30.38,30.45,66.42.02,132.83-.11,199.25.23,5.27.03,11.32,2.02,15.65,5.04,33.75,23.6,67.17,47.69,100.7,71.61,1.89,1.35,3.88,2.56,6.42,4.23v-55.1c-2.74,0-5.3.17-7.83-.03-7.19-.58-12.52-6.04-12.63-12.74-.11-6.68,5.09-12.29,12.27-13.1,1.95-.22,3.94-.12,5.91-.12,33.76,0,67.51.02,101.27-.01,19.85-.02,30.44-10.57,30.46-30.38.03-46.04,0-92.07.02-138.11,0-2.19-.11-4.41.19-6.57.94-6.9,6.35-11.78,12.84-11.79,6.76,0,12.26,5.22,12.93,12.39.16,1.74.08,3.5.08,5.26,0,46.04.02,92.08,0,138.12-.02,34.73-22.43,57.1-57.19,57.12-23.64.02-47.29,0-71.95,0Zm-28.27-163.28c78.54-78.55,157.18-157.2,235.33-235.36-12.13-12.12-24.77-24.74-37.07-37.04-78.26,78.22-156.96,156.87-235.29,235.16,12.3,12.37,24.94,25.08,37.03,37.24Zm256.13-254.57c8.68-7.64,8.95-13.62.53-22.15-5.54-5.6-11.11-11.18-16.71-16.72-8.46-8.36-14.59-8.08-22.16.56,12.68,12.67,25.34,25.32,38.34,38.3Zm-305.61,243.71c-2.97,10.53-5.92,21-9.11,32.34,11.67-3.22,22.05-6.09,32.85-9.08-8.08-7.92-15.41-15.1-23.74-23.27Z"/>
  <path class="cls-1" d="m294.95,239.59c-22.35,0-44.7.14-67.05-.13-3.73-.05-8.58-.78-10.88-3.16-2.8-2.91-4.72-7.89-4.72-11.98,0-5.38,4.19-8.96,9.56-10.33,1.88-.48,3.91-.47,5.87-.47,44.92-.02,89.84-.05,134.76,0,12.03.01,19.11,9.2,14.41,18.61-2.9,5.82-8.1,7.5-14.24,7.49-22.57-.05-45.14-.02-67.71-.02Z"/>
  <path class="cls-1" d="m184.78,456.56c-20.15,0-40.31.09-60.46-.03-9.59-.05-15.85-6.3-14.86-14.4.8-6.56,5.94-11.49,13.05-11.51,41.4-.12,82.81-.14,124.21.01,7.56.03,13.03,5.95,12.97,12.96-.06,7.27-5.61,12.81-13.79,12.89-20.37.19-40.75.06-61.12.07Z"/>
  <path class="cls-1" d="m174.6,130.8c-16.66,0-33.31.06-49.97-.02-9.33-.04-15.14-4.96-15.29-12.65-.15-7.69,5.65-13.05,14.88-13.08,33.97-.11,67.94-.11,101.91,0,9.01.03,14.38,5.03,14.47,12.67.1,8-5.37,12.98-14.72,13.04-17.09.1-34.19.03-51.28.03Z"/>
  <path class="cls-1" d="m325.05,130.8c-12.91,0-25.82.09-38.73-.03-8.93-.08-14.32-4.93-14.44-12.63-.12-7.7,5.2-13,14.03-13.05,26.04-.17,52.08-.17,78.11,0,8.71.05,14.38,5.54,14.29,12.98-.09,7.48-5.81,12.63-14.53,12.71-12.91.12-25.82.03-38.73.03Z"/>
  <path class="cls-1" d="m147.31,239.42c-7.66,0-15.32.11-22.98-.03-9.12-.17-15.01-5.42-14.97-13.09.03-7.62,6.05-12.81,15.09-12.85,15.32-.05,30.64-.07,45.96,0,8.61.04,14.48,5.2,14.65,12.62.18,7.39-5.61,12.85-14.11,13.32-.44.02-.88.02-1.31.02-7.44,0-14.88,0-22.33,0Z"/>
  <path class="cls-1" d="m244.12,347.84c-7.21,0-14.42.13-21.63-.04-8.14-.2-13.62-5.53-13.57-12.86.04-7.33,5.5-12.59,13.74-12.68,14.42-.17,28.84-.16,43.25,0,8.32.09,13.77,5.21,13.91,12.53.15,7.54-5.51,12.88-14.08,13.04-7.21.13-14.42.03-21.63.02Z"/>
  <path class="cls-1" d="m148.76,347.77c-4.82,0-9.65.24-14.46-.05-7.17-.44-12.29-6.11-12.13-12.98.15-6.64,5.09-12.11,12.05-12.35,9.85-.34,19.72-.35,29.57,0,7.2.25,12.31,6.1,12.13,12.94-.17,6.66-5.13,11.98-12.05,12.4-5.02.3-10.07.06-15.11.06Z"/>
  <path class="cls-1" d="m426.3,130.67c-4.38,0-8.77.27-13.12-.06-6.77-.51-11.78-6.1-11.8-12.65-.02-6.33,4.58-12.18,11.1-12.52,9.59-.5,19.25-.51,28.84.05,6.45.38,10.98,6.42,10.81,12.74-.17,6.4-4.87,11.78-11.39,12.33-4.78.4-9.62.08-14.43.08,0,.01,0,.02,0,.04Z"/>
</svg>