<?xml version="1.0" encoding="UTF-8"?>
<svg id="Layer_1" data-name="Layer 1" xmlns="http://www.w3.org/2000/svg" viewBox="0 0 569.14 506.94">
  <defs>
    <style>
      .cls-1 {
        fill: #797979;
        stroke-width: 0px;
      }
    </style>
  </defs>
  <path class="cls-1" d="m0,158.19c1.88-11.09,2.92-22.4,5.77-33.23C20.75,67.86,54.14,26.14,111.34,8.08c61.03-19.26,114.28-3.73,158.33,42.73,5.19,5.48,9.81,11.5,14.96,17.59,4.98-5.88,9.62-11.82,14.72-17.33,24.27-26.21,53.33-44.38,89.19-48.96,55.42-7.08,102.77,9.84,139.21,52.49,36.44,42.64,47.07,93.02,38.69,147.69-5.31,34.65-21.2,64.86-41.91,92.65-27.19,36.48-60.28,67.28-94.43,96.99-40.26,35.02-80.73,69.79-121.18,104.59-15.55,13.38-32.25,14.01-47.19,1.05-52.77-45.76-105.66-91.38-157.79-137.86-26.44-23.58-50.19-49.88-69.61-79.78C16,251.72,3.74,221.32.82,187.51c-.11-1.26-.54-2.5-.82-3.75,0-8.52,0-17.05,0-25.57Zm284.52,315.12c1.33-1.07,2.06-1.63,2.76-2.24,45.4-39.25,91.09-78.18,136.11-117.88,31.02-27.35,60.48-56.34,83.48-91.12,21.99-33.25,32.86-69.43,27.85-109.5-5.41-43.24-23.91-79.14-62.3-101.75-35.78-21.08-73.53-23.66-111.55-5.46-22.48,10.76-39.07,28.36-52.97,48.68-1.25,1.83-2.41,3.73-3.62,5.6-11.07,17-27.83,16.88-39.27.25-6.9-10.03-14.15-20-22.44-28.88-20.76-22.22-46.29-35.59-77.05-37.11-56.37-2.79-105.88,31.79-123.5,85.51-16.68,50.87-8.83,98.17,20.26,142.48,18.12,27.61,40.36,51.75,64.72,73.75,37.67,34.01,76.15,67.12,114.35,100.53,14.2,12.42,28.6,24.61,43.17,37.13Z"/>
</svg>