<?xml version="1.0" encoding="UTF-8"?>
<svg id="Layer_1" data-name="Layer 1" xmlns="http://www.w3.org/2000/svg" viewBox="0 0 508.9 511.01">
  <defs>
    <style>
      .cls-1 {
        fill: #797979;
        stroke-width: 0px;
      }
    </style>
  </defs>
  <path class="cls-1" d="m270.71,511.01c-.71-.36-1.4-.79-2.15-1.05-15.23-5.41-21.64-20.67-14.26-35.1,17.17-33.58,43.39-57.24,78.98-69.92,65.04-23.19,136.22,4.15,170.33,64.16,9.91,17.44,6.28,35.67-14.33,41.91h-218.57Zm109.28-16.09s0-.08,0-.12c33.93,0,67.86.01,101.79,0,10.82,0,14.3-5.58,8.95-15.04-24.24-42.87-60.78-66.51-110.31-66.53-49.52-.02-86.05,23.69-110.44,66.41-5.47,9.58-1.84,15.29,9.22,15.29,33.6,0,67.2,0,100.8,0Z"/>
  <path class="cls-1" d="m372.41,241.42c0-20.48,0-40.59,0-60.71,0-1.83-.07-3.67.05-5.49.32-4.56,3.28-7.55,7.54-7.73,4.51-.19,8.02,2.75,8.38,7.4.26,3.31.09,6.65.09,9.98,0,18.78,0,37.57,0,56.63,2.46.52,4.71.96,6.94,1.49,28.08,6.64,49.43,30.64,51.89,58.32,2.65,29.77-12.95,56.85-39.6,68.74-26.21,11.7-57.08,5.33-76.74-16.1-2.52-2.74-4.94-3.72-8.53-3.7-30.94.12-61.88.07-92.81.07h-5.59v46.37c7.4,0,14.65-.14,21.9.04,6.57.17,10.42,4.79,8.73,10.33-1.38,4.53-5.01,5.86-9.35,5.89-9.81.05-19.62.16-29.44.16-23.78-.02-47.56-.1-71.34-.16-1.16,0-2.34.03-3.49-.14-4.78-.68-7.72-3.99-7.53-8.38.18-4.2,3.08-7.34,7.74-7.59,5.64-.31,11.3-.14,16.96-.17,1.98-.01,3.95,0,6.27,0v-46.35c-1.87,0-3.79,0-5.7,0-44.08,0-88.16,0-132.23,0C10.1,350.31,0,340.51,0,324.09-.02,242.59.05,161.09.15,79.58c.02-15.08,10.19-25.12,25.56-25.21,21.79-.13,43.58-.16,65.37.07,4.52.05,6.9-1.08,8.99-5.43,9.05-18.87,31.05-27.97,50.94-21.6,19.62,6.28,32.48,26.45,29.39,46.09-3.43,21.83-20.71,37.18-41.99,37.31-21.04.13-39.07-15.01-42.43-35.61-.24-1.44-.6-2.86-.98-4.67-7.18,0-14.14,0-21.11,0-15.8,0-31.6-.04-47.4.02-7.51.03-10.27,2.81-10.27,10.22-.02,61.38-.01,122.75,0,184.13,0,1.29.16,2.57.28,4.39h5.59c99.47,0,198.93-.02,298.4.07,3.65,0,6.05-.97,8.44-3.86,10.33-12.5,23.62-20.18,39.62-23.11,1.13-.21,2.24-.56,3.89-.99Zm-55.48,44.32H16.21c0,12.32,0,24.28,0,36.23,0,9.38,2.37,11.78,11.76,11.78,94.79,0,189.57,0,284.36,0,1.7,0,3.4-.19,5.52-.32-5.99-16.18-5.91-31.84-.91-47.68Zm63.29,73.8c28.31.11,51.13-22.52,51.24-50.8.1-28.25-22.64-51.18-50.83-51.24-28.32-.06-51.11,22.56-51.21,50.83-.1,28.34,22.49,51.1,50.8,51.21ZM137.81,41.64c-14.78.11-26.48,12.02-26.37,26.85.11,14.35,12.17,26.25,26.59,26.26,14.58,0,26.73-12.18,26.66-26.73-.07-14.69-12.09-26.49-26.88-26.38Zm69.62,354.7v-45.68h-26.25v45.68h26.25Z"/>
  <path class="cls-1" d="m183.33,178.62c0,7.24,0,14.03,0,20.81,0,7.48.15,14.97-.05,22.45-.31,11.64-8.01,19.44-19.55,19.49-29.1.12-58.21.15-87.31-.01-12.45-.07-21-9.87-19.11-22.14,2.88-18.71,5.93-37.41,9.62-55.98,4.57-23.02,23.41-38.22,46.89-38.35,26.77-.16,53.55-.09,80.33.03,3.41.02,5.97-.8,8.33-3.34,3.5-3.77,7.36-7.21,11.09-10.78,11.81-11.32,16.81-12.84,33.44-9.84,1.98-5.41,3.99-10.96,6.03-16.5,2.12-5.76,4.24-11.53,6.41-17.27,2.29-6.03,6.15-8.33,10.86-6.57,4.77,1.79,6.41,6.15,4.3,11.96-4.48,12.32-9.15,24.58-13.48,36.96-.68,1.94-.59,4.53.08,6.5,3.7,10.92,2.15,20.78-5.96,29.05-7.68,7.83-15.7,15.35-23.77,22.78-7.92,7.3-17.51,10.63-28.23,10.73-6.45.06-12.9.01-19.91.01Zm-74.54,46.06c1.02.3,1.49.56,1.96.56,17.29.04,34.58.02,51.88.09,3.93.02,4.56-2.19,4.54-5.48-.09-15.3-.05-30.59-.03-45.89.01-9.1,2.35-11.38,11.59-11.39,7.98,0,15.96.03,23.94-.02,7.28-.04,13.7-2.4,19.01-7.46,7.1-6.76,14.24-13.5,21.22-20.39,5.22-5.15,5.46-11.08.93-15.9-4.24-4.51-10.65-4.33-15.93.61-5.82,5.46-11.68,10.9-17.22,16.64-3.5,3.63-7.34,4.99-12.38,4.96-27.77-.19-55.54-.18-83.3-.06-16.77.07-29.23,9.66-32.32,25.48-3.5,17.92-6.24,36-9.35,54-.55,3.21.76,4.81,3.92,4.86,4.81.07,9.62.02,14.78.02.39-1.83.79-3.41,1.06-5.01,2.23-12.93,4.32-25.88,6.71-38.78.93-5.02,4.95-7.61,9.38-6.76,4.37.84,7.02,4.87,6.31,9.78-.57,3.94-1.3,7.86-1.96,11.8-1.58,9.45-3.16,18.91-4.74,28.35Z"/>
  <path class="cls-1" d="m309.75.01c29.1,0,58.2-.01,87.3,0,16.78,0,26.62,9.8,26.64,26.65.05,33.59.05,67.18,0,100.77-.03,16.65-9.75,26.42-26.27,26.44-38.08.04-76.16.02-114.24.01-1.16,0-2.34.06-3.49-.1-4.4-.59-6.92-3.13-7.13-7.56-.22-4.49,2.26-7.18,6.47-8.2,1.58-.38,3.31-.2,4.97-.2,37.41,0,74.83,0,112.24-.01,8.85,0,11.32-2.44,11.33-11.15.01-33.09.01-66.18,0-99.27,0-8.73-2.55-11.28-11.26-11.28-57.7,0-115.4,0-173.1,0-8.75,0-11.37,2.59-11.37,11.22-.01,19.79,0,39.58,0,59.36,0,1.5.09,3.01-.1,4.48-.54,4.27-4.06,7.4-8.09,7.34-4.14-.06-7.49-3.18-7.79-7.57-.22-3.15-.09-6.32-.09-9.47,0-18.62-.05-37.25.02-55.87.06-15.42,10.23-25.55,25.7-25.58,29.43-.05,58.87-.01,88.3-.01Z"/>
  <path class="cls-1" d="m327.44,37.61c10.8,0,21.6-.05,32.4.02,6.45.04,9.87,2.86,9.9,7.92.03,5.1-3.48,8.19-9.73,8.21-21.94.06-43.87.06-65.81,0-6.23-.02-9.74-3.16-9.65-8.28.08-4.92,3.42-7.79,9.49-7.84,11.13-.08,22.27-.02,33.4-.03Z"/>
  <path class="cls-1" d="m334.08,84.97c-8.96,0-17.93.04-26.89-.01-5.85-.04-9.4-3.1-9.42-7.94-.02-4.78,3.65-8.06,9.38-8.08,17.76-.06,35.52-.05,53.28,0,5.89.02,9.3,3.06,9.31,8.02.02,4.99-3.33,7.96-9.27,8-8.8.06-17.59.02-26.39.02Z"/>
  <path class="cls-1" d="m341.51,116.53c-6.13,0-12.27.08-18.4-.02-6.28-.1-9.74-3.11-9.71-8.2.02-5.06,3.43-7.98,9.84-8.02,12.26-.09,24.53-.09,36.79,0,6.33.05,9.76,3.06,9.72,8.14-.04,5.05-3.52,7.99-9.84,8.08-6.13.09-12.26.02-18.4.02Z"/>
  <path class="cls-1" d="m194.43,317.65c-3.82,0-7.64.17-11.44-.05-4.76-.27-7.95-3.58-7.97-7.88-.03-4.21,3.22-7.9,7.88-8.06,7.62-.26,15.27-.27,22.89.01,4.61.17,7.85,4,7.74,8.2-.12,4.3-3.3,7.47-8.14,7.74-3.64.2-7.3.04-10.95.03Z"/>
</svg>