<?xml version="1.0" encoding="UTF-8"?>
<svg id="Layer_1" data-name="Layer 1" xmlns="http://www.w3.org/2000/svg" viewBox="0 0 749.44 749.52">
  <defs>
    <style>
      .cls-1 {
        fill: #fff;
        stroke-width: 0px;
      }
    </style>
  </defs>
  <path class="cls-1" d="m749.38,382.04c-4.49,206.1-172.98,371.15-381.57,367.42C161,745.75-4.23,576,.08,366.84,4.34,160.07,174.38-4.23,382.95.08c204.98,4.24,370.07,174.19,366.43,381.95Zm-11.9-14.66C732.94,168.23,570.28,9.4,368.96,11.83,168.68,14.25,8.32,179.73,12.08,382.5c3.72,200.34,168.75,359.05,370.09,355.08,199.27-3.93,358.96-168.9,355.31-370.21Z"/>
  <path class="cls-1" d="m60.77,374.69c.23-173.67,140.92-314.33,313.95-313.88,173.92.45,314.08,141.06,313.84,314.85-.24,174.14-141.28,313.43-316.98,313.06-170.92-.36-311.04-141.93-310.81-314.03ZM374.81,72.7c-164.63-.76-301.17,134.08-302.14,298.37-1,168.95,132.82,305.05,300.68,305.78,166.99.73,302.74-134.33,303.31-301.77.57-166.65-134.16-301.62-301.85-302.39Z"/>
  <path class="cls-1" d="m278,374.9c0-30.47.11-60.94-.04-91.41-.1-19.18,7.17-34.45,24.1-43.79,17.48-9.64,34.72-7.64,51.02,3.71,44.09,30.68,88.32,61.16,132.28,92.03,29.09,20.42,29.13,58.21.04,78.65-44.35,31.17-88.95,61.99-133.51,92.86-15.61,10.82-32.25,12.28-49.07,3.35-16.82-8.93-24.8-23.53-24.81-42.51-.02-30.97,0-61.93,0-92.9Zm11.9-.89c0,30.72.11,61.45-.05,92.17-.07,14.9,5.4,26.63,18.79,33.7,13.48,7.12,26.22,4.58,38.37-3.9,43.25-30.18,86.61-60.18,129.84-90.39,24.78-17.32,24.74-44.35-.07-61.66-43.24-30.18-86.62-60.17-129.85-90.37-12.18-8.51-24.79-11.03-38.32-3.89-13.45,7.1-18.86,18.75-18.77,33.67.18,30.23.05,60.46.06,90.68Z"/>
</svg>